<?xml version="1.0" encoding="UTF-8" standalone="no"?>
<!DOCTYPE svg PUBLIC "-//W3C//DTD SVG 1.1//EN" "http://www.w3.org/Graphics/SVG/1.1/DTD/svg11.dtd">
<svg width="100%" height="100%" viewBox="0 0 2186 2190" version="1.1" xmlns="http://www.w3.org/2000/svg" xmlns:xlink="http://www.w3.org/1999/xlink" xml:space="preserve" xmlns:serif="http://www.serif.com/" style="fill-rule:evenodd;clip-rule:evenodd;stroke-linecap:square;stroke-linejoin:round;stroke-miterlimit:1.5;">
    <rect id="Artboard3" x="0" y="0" width="2185.03" height="2189.73" style="fill:none;"/>
    <g>
        <path d="M656.972,760.393C669.414,693.586 696.87,632.029 735.699,579.362L751.078,606.453C720.704,650.398 698.591,700.482 686.992,754.451L656.972,760.393ZM829.993,485.069C882.66,446.239 944.216,418.784 1011.02,406.341L1005.08,436.361C951.113,447.96 901.029,470.073 857.084,500.447L829.993,485.069ZM1174.01,406.341C1240.82,418.784 1302.37,446.239 1355.04,485.069L1327.95,500.447C1284,470.073 1233.92,447.96 1179.95,436.361L1174.01,406.341ZM1449.33,579.362C1488.16,632.029 1515.62,693.586 1528.06,760.393L1498.04,754.451C1486.44,700.482 1464.33,650.398 1433.96,606.453L1449.33,579.362ZM1528.06,923.379C1515.62,990.186 1488.16,1051.74 1449.33,1104.41L1433.96,1077.32C1464.33,1033.37 1486.44,983.29 1498.04,929.321L1528.06,923.379ZM1355.04,1198.7C1302.37,1237.53 1240.82,1264.99 1174.01,1277.43L1179.95,1247.41C1233.92,1235.81 1284,1213.7 1327.95,1183.33L1355.04,1198.7ZM1011.02,1277.43C944.216,1264.99 882.66,1237.53 829.993,1198.7L857.084,1183.33C901.029,1213.7 951.113,1235.81 1005.08,1247.41L1011.02,1277.43ZM735.699,1104.41C696.87,1051.74 669.414,990.186 656.972,923.379L686.992,929.321C698.591,983.29 720.704,1033.37 751.078,1077.32L735.699,1104.41ZM1092.52,878.814L1181.31,1093.17L1092.52,1543.32L1003.73,1093.17L1092.52,878.814ZM1129.44,841.886L1343.81,753.095L1793.95,841.886L1343.81,930.677L1129.44,841.886ZM1055.59,841.886L841.228,930.677L391.083,841.886L841.228,753.095L1055.59,841.886ZM1092.52,804.958L1003.73,590.598L1092.52,140.452L1181.31,590.598L1092.52,804.958ZM851.983,956.815L1066.4,867.998L977.588,1082.42L687.065,1247.34L851.983,956.815ZM1207.44,1082.42L1118.63,867.998L1333.05,956.815L1497.97,1247.34L1207.44,1082.42ZM1333.05,726.957L1118.63,815.774L1207.44,601.352L1497.97,436.434L1333.05,726.957ZM977.588,601.352L1066.4,815.774L851.983,726.957L687.065,436.434L977.588,601.352Z" style="fill:rgb(178,46,2);"/>
    </g>
    <path d="M257.371,1656.07L257.371,1677.57L290.785,1677.57L290.785,1769.06L315.871,1769.06L315.871,1677.57L349.283,1677.57L349.283,1656.07L257.371,1656.07Z" style="fill-rule:nonzero;"/>
    <path d="M358.905,1769.06L383.99,1769.06L383.99,1723.32L425.731,1723.32L425.731,1769.06L450.817,1769.06L450.817,1656.07L425.731,1656.07L425.731,1701.81L383.99,1701.81L383.99,1656.07L358.905,1656.07L358.905,1769.06Z" style="fill-rule:nonzero;"/>
    <path d="M466.903,1686.53L466.903,1738.61C466.95,1755.41 480.558,1769.02 497.359,1769.06L558.825,1769.06L558.825,1747.56L498.623,1747.56C494.964,1747.55 492.001,1744.58 491.991,1740.92L491.991,1684.21C492.001,1680.55 494.964,1677.58 498.623,1677.57L558.817,1677.57L558.817,1656.07L497.352,1656.07C480.55,1656.12 466.942,1669.72 466.895,1686.53L466.903,1686.53ZM504.533,1701.81L504.533,1723.33L558.809,1723.33L558.809,1701.81L504.533,1701.81Z" style="fill-rule:nonzero;"/>
    <path d="M683.973,1677.58C687.629,1677.59 690.591,1680.55 690.607,1684.21L690.607,1695.18C690.596,1698.84 687.632,1701.8 683.973,1701.81L655.823,1701.81L655.823,1677.58L683.973,1677.58ZM690.93,1723.32C694.589,1723.33 697.554,1726.29 697.564,1729.95L697.564,1740.92C697.554,1744.59 694.589,1747.55 690.93,1747.56L655.823,1747.56L655.823,1723.33L690.93,1723.32ZM630.738,1769.06L692.192,1769.06C708.992,1769.02 722.601,1755.41 722.65,1738.61L722.65,1732.27C722.639,1723.07 718.461,1714.36 711.286,1708.59C714.172,1703.85 715.696,1698.41 715.693,1692.86L715.693,1686.53C715.646,1669.72 702.038,1656.12 685.236,1656.07L630.738,1656.07L630.738,1769.06Z" style="fill-rule:nonzero;"/>
    <path d="M735.5,1739.45C735.548,1755.79 748.778,1769.02 765.113,1769.06L797.799,1769.06C814.134,1769.02 827.365,1755.79 827.414,1739.45L827.414,1656.07L802.326,1656.07L802.326,1737.55C802.31,1743.07 797.839,1747.54 792.319,1747.56L770.595,1747.56C765.074,1747.54 760.603,1743.07 760.587,1737.55L760.587,1656.07L735.5,1656.07L735.5,1739.45Z" style="fill-rule:nonzero;"/>
    <path d="M844.298,1769.06L869.387,1769.06L869.387,1677.57L904.495,1677.57C908.155,1677.58 911.119,1680.55 911.13,1684.21L911.13,1705.95C911.119,1709.61 908.155,1712.57 904.495,1712.58L870.113,1712.58L906.397,1769.08L936.219,1769.08L913.154,1733.16C926.684,1729.73 936.174,1717.58 936.219,1703.62L936.219,1686.53C936.173,1669.72 922.564,1656.12 905.763,1656.07L844.298,1656.07L844.298,1769.06Z" style="fill-rule:nonzero;"/>
    <path d="M950.513,1769.06L975.6,1769.06L975.6,1694.36L1012.13,1769.06L1042.43,1769.06L1042.43,1656.07L1017.34,1656.07L1017.34,1730.77L980.809,1656.07L950.513,1656.07L950.513,1769.06Z" style="fill-rule:nonzero;"/>
    <rect x="1060.28" y="1656.07" width="25.086" height="112.995" style="fill-rule:nonzero;"/>
    <path d="M1103.22,1769.06L1128.3,1769.06L1128.3,1694.36L1164.83,1769.06L1195.13,1769.06L1195.13,1656.07L1170.04,1656.07L1170.04,1730.77L1133.51,1656.07L1103.22,1656.07L1103.22,1769.06Z" style="fill-rule:nonzero;"/>
    <path d="M1211.21,1738.6C1211.25,1755.4 1224.86,1769.01 1241.66,1769.06L1272.66,1769.06C1289.46,1769.01 1303.07,1755.4 1303.12,1738.6L1303.12,1732.26C1303.07,1715.46 1289.46,1701.85 1272.66,1701.8L1257.16,1701.8L1257.16,1723.32L1271.4,1723.32C1275.06,1723.33 1278.02,1726.29 1278.03,1729.95L1278.03,1740.92C1278.02,1744.59 1275.06,1747.55 1271.4,1747.56L1242.93,1747.56C1239.27,1747.55 1236.3,1744.59 1236.29,1740.92L1236.29,1684.22C1236.3,1680.56 1239.27,1677.59 1242.93,1677.58L1303.13,1677.58L1303.13,1656.07L1241.66,1656.07C1224.86,1656.12 1211.25,1669.72 1211.21,1686.53L1211.21,1738.6Z" style="fill-rule:nonzero;"/>
    <path d="M1371.99,1686.53L1371.99,1738.61C1372.04,1755.41 1385.64,1769.02 1402.45,1769.06L1463.91,1769.06L1463.91,1747.56L1403.71,1747.56C1400.05,1747.55 1397.09,1744.58 1397.08,1740.92L1397.08,1684.21C1397.09,1680.55 1400.05,1677.58 1403.71,1677.57L1463.9,1677.57L1463.9,1656.07L1402.44,1656.07C1385.64,1656.12 1372.03,1669.72 1371.98,1686.53L1371.99,1686.53ZM1409.62,1701.81L1409.62,1723.33L1463.9,1723.33L1463.9,1701.81L1409.62,1701.81Z" style="fill-rule:nonzero;"/>
    <path d="M1479.81,1769.06L1504.9,1769.06L1504.9,1686.29L1526.56,1747.56L1550.06,1747.56L1571.73,1686.29L1571.73,1769.06L1596.81,1769.06L1596.81,1656.07L1559.6,1656.07L1538.31,1716.29L1517.02,1656.07L1479.81,1656.07L1479.81,1769.06Z" style="fill-rule:nonzero;"/>
    <path d="M1667.83,1677.58C1671.49,1677.59 1674.45,1680.55 1674.47,1684.21L1674.47,1695.18C1674.46,1698.84 1671.49,1701.8 1667.83,1701.81L1639.68,1701.81L1639.68,1677.58L1667.83,1677.58ZM1674.79,1723.32C1678.45,1723.33 1681.41,1726.29 1681.42,1729.95L1681.42,1740.92C1681.41,1744.59 1678.45,1747.55 1674.79,1747.56L1639.68,1747.56L1639.68,1723.33L1674.79,1723.32ZM1614.6,1769.06L1676.05,1769.06C1692.85,1769.02 1706.46,1755.41 1706.51,1738.61L1706.51,1732.27C1706.5,1723.07 1702.32,1714.36 1695.15,1708.59C1698.03,1703.85 1699.56,1698.41 1699.55,1692.86L1699.55,1686.53C1699.51,1669.72 1685.9,1656.12 1669.1,1656.07L1614.6,1656.07L1614.6,1769.06Z" style="fill-rule:nonzero;"/>
    <path d="M1718.4,1686.53L1718.4,1738.61C1718.45,1755.41 1732.06,1769.02 1748.86,1769.06L1810.32,1769.06L1810.32,1747.56L1750.12,1747.56C1746.46,1747.55 1743.5,1744.58 1743.49,1740.92L1743.49,1684.21C1743.5,1680.55 1746.46,1677.58 1750.12,1677.57L1810.31,1677.57L1810.31,1656.07L1748.85,1656.07C1732.05,1656.12 1718.44,1669.72 1718.39,1686.53L1718.4,1686.53ZM1756.03,1701.81L1756.03,1723.33L1810.31,1723.33L1810.31,1701.81L1756.03,1701.81Z" style="fill-rule:nonzero;"/>
    <path d="M1826.22,1769.06L1851.31,1769.06L1851.31,1677.57L1886.42,1677.57C1890.08,1677.58 1893.04,1680.55 1893.05,1684.21L1893.05,1705.95C1893.04,1709.61 1890.08,1712.57 1886.42,1712.58L1852.04,1712.58L1888.32,1769.08L1918.14,1769.08L1895.08,1733.16C1908.61,1729.73 1918.1,1717.58 1918.14,1703.62L1918.14,1686.53C1918.1,1669.72 1904.49,1656.12 1887.69,1656.07L1826.22,1656.07L1826.22,1769.06Z" style="fill-rule:nonzero;"/>
    <path d="M653.897,1885.15C653.897,1885.15 671.331,1836.56 671.331,1836.56L658.673,1836.56L644.393,1876.37L630.113,1836.56L617.455,1836.56L634.885,1885.15C635.948,1888.22 638.852,1890.26 642.098,1890.23L646.688,1890.23C649.932,1890.26 652.835,1888.22 653.897,1885.15Z" style="fill-rule:nonzero;"/>
    <rect x="675.642" y="1836.56" width="11.914" height="53.664" style="fill-rule:nonzero;"/>
    <path d="M695.191,1851.03C695.191,1851.03 695.191,1875.76 695.191,1875.76C695.213,1883.74 701.679,1890.2 709.659,1890.23L738.851,1890.23L738.851,1880.01L710.26,1880.01C708.522,1880.01 707.114,1878.6 707.109,1876.86L707.109,1849.92C707.114,1848.19 708.522,1846.78 710.26,1846.77L738.847,1846.77L738.847,1836.56L709.655,1836.56C701.676,1836.58 695.213,1843.05 695.191,1851.03Z" style="fill-rule:nonzero;"/>
    <path d="M740.959,1836.56L740.959,1846.77L756.829,1846.77L756.829,1890.23L768.743,1890.23L768.743,1846.77L784.611,1846.77L784.611,1836.56L740.959,1836.56Z" style="fill-rule:nonzero;"/>
    <path d="M803.404,1880.01C801.666,1880.01 800.258,1878.6 800.253,1876.86L800.253,1849.92C800.258,1848.19 801.666,1846.78 803.404,1846.77L816.924,1846.77C818.662,1846.78 820.07,1848.19 820.075,1849.92L820.075,1876.86C820.07,1878.6 818.662,1880.01 816.924,1880.01L803.404,1880.01ZM817.524,1836.56L802.802,1836.56C794.822,1836.58 788.359,1843.05 788.337,1851.03L788.337,1875.76C788.359,1883.74 794.822,1890.2 802.802,1890.23L817.524,1890.23C825.504,1890.2 831.967,1883.74 831.989,1875.76L831.989,1851.03C831.967,1843.05 825.504,1836.58 817.524,1836.56Z" style="fill-rule:nonzero;"/>
    <path d="M839.625,1890.23L851.541,1890.23L851.541,1846.77L868.215,1846.77C869.953,1846.78 871.361,1848.19 871.366,1849.92L871.366,1860.25C871.361,1861.99 869.953,1863.4 868.215,1863.4L851.886,1863.4L869.118,1890.23L883.281,1890.23L872.327,1873.17C878.753,1871.55 883.26,1865.77 883.281,1859.14L883.281,1851.03C883.259,1843.05 876.796,1836.58 868.817,1836.56L839.625,1836.56L839.625,1890.23Z" style="fill-rule:nonzero;"/>
    <path d="M923.085,1836.56L910.618,1853.39L898.152,1836.56L883.323,1836.56L903.204,1863.39L904.661,1865.36L904.661,1890.23L916.575,1890.23L916.575,1865.36L937.914,1836.56L923.085,1836.56Z" style="fill-rule:nonzero;"/>
    <path d="M964.28,1836.56L964.28,1846.77L980.149,1846.77L980.149,1890.23L992.063,1890.23L992.063,1846.77L1007.93,1846.77L1007.93,1836.56L964.28,1836.56Z" style="fill-rule:nonzero;"/>
    <path d="M1012.5,1890.23L1024.41,1890.23L1024.41,1868.5L1044.24,1868.5L1044.24,1890.23L1056.15,1890.23L1056.15,1836.56L1044.24,1836.56L1044.24,1858.29L1024.41,1858.29L1024.41,1836.56L1012.5,1836.56L1012.5,1890.23Z" style="fill-rule:nonzero;"/>
    <path d="M1064.63,1890.23L1076.55,1890.23L1076.55,1846.77L1093.22,1846.77C1094.96,1846.78 1096.37,1848.19 1096.37,1849.92L1096.37,1860.25C1096.37,1861.99 1094.96,1863.4 1093.22,1863.4L1076.89,1863.4L1094.12,1890.23L1108.29,1890.23L1097.33,1873.17C1103.76,1871.55 1108.27,1865.77 1108.29,1859.14L1108.29,1851.03C1108.27,1843.05 1101.8,1836.58 1093.82,1836.56L1064.63,1836.56L1064.63,1890.23Z" style="fill-rule:nonzero;"/>
    <path d="M1129.3,1880.01C1127.56,1880.01 1126.15,1878.6 1126.15,1876.86L1126.15,1849.92C1126.15,1848.19 1127.56,1846.78 1129.3,1846.77L1142.82,1846.77C1144.56,1846.78 1145.97,1848.19 1145.97,1849.92L1145.97,1876.86C1145.97,1878.6 1144.56,1880.01 1142.82,1880.01L1129.3,1880.01ZM1143.42,1836.56L1128.7,1836.56C1120.72,1836.58 1114.26,1843.05 1114.23,1851.03L1114.23,1875.76C1114.26,1883.74 1120.72,1890.2 1128.7,1890.23L1143.42,1890.23C1151.4,1890.2 1157.86,1883.74 1157.88,1875.76L1157.88,1851.03C1157.86,1843.05 1151.4,1836.58 1143.42,1836.56Z" style="fill-rule:nonzero;"/>
    <path d="M1165.14,1876.16C1165.16,1883.92 1171.44,1890.2 1179.2,1890.23L1194.73,1890.23C1202.48,1890.2 1208.77,1883.92 1208.79,1876.16L1208.79,1836.56L1196.88,1836.56L1196.88,1875.26C1196.87,1877.88 1194.75,1880.01 1192.12,1880.01L1181.81,1880.01C1179.18,1880.01 1177.06,1877.88 1177.05,1875.26L1177.05,1836.56L1165.14,1836.56L1165.14,1876.16Z" style="fill-rule:nonzero;"/>
    <path d="M1215.97,1875.76C1215.99,1883.74 1222.45,1890.2 1230.43,1890.22L1245.15,1890.22C1253.13,1890.2 1259.6,1883.74 1259.62,1875.76L1259.62,1872.75C1259.6,1864.77 1253.13,1858.3 1245.15,1858.28L1237.79,1858.28L1237.79,1868.5L1244.55,1868.5C1246.29,1868.5 1247.7,1869.91 1247.7,1871.65L1247.7,1876.86C1247.7,1878.6 1246.29,1880.01 1244.55,1880.01L1231.03,1880.01C1229.29,1880.01 1227.88,1878.6 1227.88,1876.86L1227.88,1849.93C1227.88,1848.19 1229.29,1846.78 1231.03,1846.78L1259.62,1846.78L1259.62,1836.56L1230.43,1836.56C1222.45,1836.58 1215.99,1843.05 1215.97,1851.03L1215.97,1875.76Z" style="fill-rule:nonzero;"/>
    <path d="M1266.56,1890.23L1278.48,1890.23L1278.48,1868.5L1298.3,1868.5L1298.3,1890.23L1310.21,1890.23L1310.21,1836.56L1298.3,1836.56L1298.3,1858.29L1278.48,1858.29L1278.48,1836.56L1266.56,1836.56L1266.56,1890.23Z" style="fill-rule:nonzero;"/>
    <path d="M1344.91,1876.16C1344.94,1883.92 1351.22,1890.2 1358.98,1890.23L1374.5,1890.23C1382.26,1890.2 1388.54,1883.92 1388.57,1876.16L1388.57,1836.56L1376.65,1836.56L1376.65,1875.26C1376.64,1877.88 1374.52,1880.01 1371.9,1880.01L1361.58,1880.01C1358.96,1880.01 1356.84,1877.88 1356.83,1875.26L1356.83,1836.56L1344.91,1836.56L1344.91,1876.16Z" style="fill-rule:nonzero;"/>
    <path d="M1396.59,1890.23L1408.5,1890.23L1408.5,1854.75L1425.85,1890.23L1440.24,1890.23L1440.24,1836.56L1428.32,1836.56L1428.32,1872.04L1410.97,1836.56L1396.59,1836.56L1396.59,1890.23Z" style="fill-rule:nonzero;"/>
    <rect x="1448.72" y="1836.56" width="11.914" height="53.664" style="fill-rule:nonzero;"/>
    <path d="M1465.2,1836.56L1465.2,1846.77L1481.07,1846.77L1481.07,1890.23L1492.98,1890.23L1492.98,1846.77L1508.85,1846.77L1508.85,1836.56L1465.2,1836.56Z" style="fill-rule:nonzero;"/>
    <path d="M1548.35,1836.56L1535.88,1853.39L1523.42,1836.56L1508.59,1836.56L1528.47,1863.39L1529.93,1865.36L1529.93,1890.23L1541.84,1890.23L1541.84,1865.36L1563.18,1836.56L1548.35,1836.56Z" style="fill-rule:nonzero;"/>
    <path d="M454.914,1806.03L1734.64,1806.03" style="fill:none;stroke:black;stroke-width:8.33px;"/>
</svg>
