<?xml version="1.0" encoding="UTF-8" standalone="no"?>
<!DOCTYPE svg PUBLIC "-//W3C//DTD SVG 1.1//EN" "http://www.w3.org/Graphics/SVG/1.1/DTD/svg11.dtd">
<svg width="100%" height="100%" viewBox="0 0 2186 2190" version="1.1" xmlns="http://www.w3.org/2000/svg" xmlns:xlink="http://www.w3.org/1999/xlink" xml:space="preserve" xmlns:serif="http://www.serif.com/" style="fill-rule:evenodd;clip-rule:evenodd;stroke-linejoin:round;stroke-miterlimit:2;">
    <rect id="Artboard3" x="0" y="0" width="2185.03" height="2189.73" style="fill:none;"/>
    <path d="M1036.76,1610.45C772.066,1587.73 564.017,1365.4 564.017,1094.86C564.017,824.325 772.066,601.996 1036.76,579.28L1036.76,1411.1C881.574,1389.34 762.16,1256.05 762.16,1094.86L655.71,1094.86C655.71,1314.91 822.631,1495.98 1036.76,1518.34L1036.76,1610.45ZM1148.27,581.643C1402.4,614.435 1599.01,831.87 1599.01,1094.86C1599.01,1357.86 1402.4,1575.29 1148.27,1608.08L1148.27,782.501C1292.6,813.198 1400.86,941.387 1400.86,1094.86L1507.31,1094.86C1507.31,882.413 1351.72,706.302 1148.27,674.265L1148.27,581.643Z"/>
</svg>
