<?xml version="1.0" encoding="UTF-8" standalone="no"?>
<!DOCTYPE svg PUBLIC "-//W3C//DTD SVG 1.1//EN" "http://www.w3.org/Graphics/SVG/1.1/DTD/svg11.dtd">
<svg width="100%" height="100%" viewBox="0 0 2186 2190" version="1.1" xmlns="http://www.w3.org/2000/svg" xmlns:xlink="http://www.w3.org/1999/xlink" xml:space="preserve" xmlns:serif="http://www.serif.com/" style="fill-rule:evenodd;clip-rule:evenodd;stroke-linejoin:round;stroke-miterlimit:2;">
    <rect id="Artboard3" x="0" y="0" width="2185.03" height="2189.73" style="fill:none;"/>
    <path d="M339.196,1602.52C336.149,1598.67 332.02,1595.83 326.808,1593.98C321.596,1592.14 316.665,1591.22 312.015,1591.22C309.288,1591.22 306.482,1591.54 303.596,1592.18C300.709,1592.82 297.983,1593.82 295.417,1595.19C292.851,1596.55 290.767,1598.35 289.163,1600.6C287.559,1602.84 286.758,1605.57 286.758,1608.78C286.758,1613.91 288.682,1617.84 292.531,1620.56C296.379,1623.29 301.23,1625.62 307.083,1627.54C312.937,1629.46 319.231,1631.39 325.966,1633.31C332.701,1635.24 338.995,1637.96 344.849,1641.49C350.702,1645.02 355.553,1649.75 359.402,1655.68C363.25,1661.62 365.175,1669.55 365.175,1679.5C365.175,1688.96 363.411,1697.22 359.883,1704.27C356.355,1711.33 351.584,1717.18 345.57,1721.83C339.557,1726.48 332.581,1729.93 324.643,1732.17C316.705,1734.42 308.326,1735.54 299.506,1735.54C288.441,1735.54 278.178,1733.86 268.717,1730.49C259.256,1727.12 250.436,1721.67 242.257,1714.13L268.957,1684.79C272.806,1689.92 277.657,1693.89 283.51,1696.69C289.363,1699.5 295.417,1700.9 301.671,1700.9C304.718,1700.9 307.805,1700.54 310.932,1699.82C314.059,1699.1 316.866,1698.02 319.351,1696.58C321.837,1695.13 323.841,1693.29 325.365,1691.04C326.888,1688.8 327.65,1686.15 327.65,1683.1C327.65,1677.97 325.685,1673.92 321.757,1670.96C317.828,1667.99 312.897,1665.47 306.963,1663.38C301.03,1661.3 294.615,1659.21 287.72,1657.13C280.824,1655.04 274.41,1652.24 268.476,1648.71C262.543,1645.18 257.612,1640.53 253.683,1634.76C249.754,1628.98 247.79,1621.37 247.79,1611.9C247.79,1602.76 249.594,1594.75 253.202,1587.85C256.81,1580.95 261.621,1575.18 267.634,1570.53C273.648,1565.88 280.584,1562.39 288.441,1560.07C296.299,1557.74 304.397,1556.58 312.736,1556.58C322.358,1556.58 331.659,1557.94 340.639,1560.67C349.619,1563.39 357.718,1567.97 364.934,1574.38L339.196,1602.52Z" style="fill-rule:nonzero;"/>
    <path d="M536.682,1665.55C536.682,1675.65 535.158,1684.95 532.111,1693.45C529.064,1701.95 524.534,1709.32 518.521,1715.58C512.507,1721.83 505.01,1726.72 496.03,1730.25C487.05,1733.78 476.706,1735.54 465,1735.54C453.133,1735.54 442.71,1733.78 433.729,1730.25C424.749,1726.72 417.252,1721.83 411.239,1715.58C405.225,1709.32 400.695,1701.95 397.648,1693.45C394.601,1684.95 393.078,1675.65 393.078,1665.55L393.078,1560.91L430.602,1560.91L430.602,1664.1C430.602,1669.39 431.444,1674.29 433.128,1678.78C434.812,1683.27 437.177,1687.15 440.224,1690.44C443.271,1693.73 446.919,1696.29 451.169,1698.14C455.418,1699.98 460.029,1700.9 465,1700.9C469.971,1700.9 474.541,1699.98 478.711,1698.14C482.88,1696.29 486.488,1693.73 489.535,1690.44C492.582,1687.15 494.947,1683.27 496.631,1678.78C498.315,1674.29 499.157,1669.39 499.157,1664.1L499.157,1560.91L536.682,1560.91L536.682,1665.55Z" style="fill-rule:nonzero;"/>
    <path d="M571.32,1560.91L622.315,1560.91L694.718,1679.26L695.199,1679.26L695.199,1560.91L732.724,1560.91L732.724,1731.21L683.653,1731.21L609.326,1609.98L608.845,1609.98L608.845,1731.21L571.32,1731.21L571.32,1560.91Z" style="fill-rule:nonzero;"/>
    <path d="M851.552,1602.52C848.505,1598.67 844.376,1595.83 839.164,1593.98C833.953,1592.14 829.021,1591.22 824.371,1591.22C821.645,1591.22 818.838,1591.54 815.952,1592.18C813.065,1592.82 810.339,1593.82 807.774,1595.19C805.208,1596.55 803.123,1598.35 801.519,1600.6C799.916,1602.84 799.114,1605.57 799.114,1608.78C799.114,1613.91 801.038,1617.84 804.887,1620.56C808.736,1623.29 813.587,1625.62 819.44,1627.54C825.293,1629.46 831.587,1631.39 838.322,1633.31C845.058,1635.24 851.352,1637.96 857.205,1641.49C863.058,1645.02 867.909,1649.75 871.758,1655.68C875.607,1661.62 877.531,1669.55 877.531,1679.5C877.531,1688.96 875.767,1697.22 872.239,1704.27C868.711,1711.33 863.94,1717.18 857.927,1721.83C851.913,1726.48 844.937,1729.93 836.999,1732.17C829.062,1734.42 820.683,1735.54 811.863,1735.54C800.798,1735.54 790.535,1733.86 781.073,1730.49C771.612,1727.12 762.792,1721.67 754.614,1714.13L781.314,1684.79C785.162,1689.92 790.013,1693.89 795.867,1696.69C801.72,1699.5 807.774,1700.9 814.028,1700.9C817.074,1700.9 820.161,1700.54 823.289,1699.82C826.416,1699.1 829.222,1698.02 831.708,1696.58C834.193,1695.13 836.198,1693.29 837.721,1691.04C839.245,1688.8 840.006,1686.15 840.006,1683.1C840.006,1677.97 838.042,1673.92 834.113,1670.96C830.184,1667.99 825.253,1665.47 819.32,1663.38C813.386,1661.3 806.972,1659.21 800.076,1657.13C793.181,1655.04 786.766,1652.24 780.833,1648.71C774.899,1645.18 769.968,1640.53 766.039,1634.76C762.11,1628.98 760.146,1621.37 760.146,1611.9C760.146,1602.76 761.95,1594.75 765.558,1587.85C769.166,1580.95 773.977,1575.18 779.991,1570.53C786.004,1565.88 792.94,1562.39 800.798,1560.07C808.655,1557.74 816.754,1556.58 825.093,1556.58C834.714,1556.58 844.015,1557.94 852.996,1560.67C861.976,1563.39 870.074,1567.97 877.29,1574.38L851.552,1602.52Z" style="fill-rule:nonzero;"/>
    <path d="M967.494,1646.06C967.494,1632.43 969.779,1620.08 974.349,1609.02C978.92,1597.95 985.294,1588.53 993.473,1580.75C1001.65,1572.98 1011.35,1567 1022.58,1562.83C1033.8,1558.66 1046.07,1556.58 1059.38,1556.58C1072.69,1556.58 1084.96,1558.66 1096.18,1562.83C1107.41,1567 1117.11,1572.98 1125.29,1580.75C1133.47,1588.53 1139.84,1597.95 1144.41,1609.02C1148.98,1620.08 1151.27,1632.43 1151.27,1646.06C1151.27,1659.69 1148.98,1672.04 1144.41,1683.1C1139.84,1694.17 1133.47,1703.59 1125.29,1711.37C1117.11,1719.15 1107.41,1725.12 1096.18,1729.29C1084.96,1733.46 1072.69,1735.54 1059.38,1735.54C1046.07,1735.54 1033.8,1733.46 1022.58,1729.29C1011.35,1725.12 1001.65,1719.15 993.473,1711.37C985.294,1703.59 978.92,1694.17 974.349,1683.1C969.779,1672.04 967.494,1659.69 967.494,1646.06ZM1006.46,1646.06C1006.46,1654.08 1007.71,1661.42 1010.19,1668.07C1012.68,1674.73 1016.24,1680.5 1020.89,1685.39C1025.55,1690.28 1031.12,1694.09 1037.61,1696.82C1044.11,1699.54 1051.36,1700.9 1059.38,1700.9C1067.4,1700.9 1074.66,1699.54 1081.15,1696.82C1087.64,1694.09 1093.22,1690.28 1097.87,1685.39C1102.52,1680.5 1106.09,1674.73 1108.57,1668.07C1111.06,1661.42 1112.3,1654.08 1112.3,1646.06C1112.3,1638.2 1111.06,1630.91 1108.57,1624.17C1106.09,1617.44 1102.52,1611.62 1097.87,1606.73C1093.22,1601.84 1087.64,1598.03 1081.15,1595.31C1074.66,1592.58 1067.4,1591.22 1059.38,1591.22C1051.36,1591.22 1044.11,1592.58 1037.61,1595.31C1031.12,1598.03 1025.55,1601.84 1020.89,1606.73C1016.24,1611.62 1012.68,1617.44 1010.19,1624.17C1007.71,1630.91 1006.46,1638.2 1006.46,1646.06Z" style="fill-rule:nonzero;"/>
    <path d="M1178.21,1560.91L1292.47,1560.91L1292.47,1595.55L1215.73,1595.55L1215.73,1630.18L1286.69,1630.18L1286.69,1664.82L1215.73,1664.82L1215.73,1731.21L1178.21,1731.21L1178.21,1560.91Z" style="fill-rule:nonzero;"/>
    <path d="M1478.65,1674.2C1478.65,1682.06 1477.97,1689.68 1476.6,1697.06C1475.24,1704.43 1472.63,1710.97 1468.79,1716.66C1464.94,1722.35 1459.44,1726.92 1452.31,1730.37C1445.17,1733.82 1435.83,1735.54 1424.29,1735.54C1410.82,1735.54 1399.43,1732.34 1390.13,1725.92C1380.83,1719.51 1374.81,1709.48 1372.09,1695.85L1406.49,1687.43C1406.97,1691.6 1408.85,1695.13 1412.14,1698.02C1415.42,1700.9 1419.15,1702.35 1423.32,1702.35C1427.65,1702.35 1431.02,1701.27 1433.43,1699.1C1435.83,1696.94 1437.6,1694.25 1438.72,1691.04C1439.84,1687.84 1440.52,1684.35 1440.76,1680.58C1441,1676.81 1441.12,1673.32 1441.12,1670.12L1441.12,1560.91L1478.65,1560.91L1478.65,1674.2Z" style="fill-rule:nonzero;"/>
    <path d="M1512.32,1560.91L1628.03,1560.91L1628.03,1595.55L1549.85,1595.55L1549.85,1627.3L1623.69,1627.3L1623.69,1661.94L1549.85,1661.94L1549.85,1696.58L1632.36,1696.58L1632.36,1731.21L1512.32,1731.21L1512.32,1560.91Z" style="fill-rule:nonzero;"/>
    <path d="M1663.87,1560.91L1778.12,1560.91L1778.12,1595.55L1701.39,1595.55L1701.39,1630.18L1772.35,1630.18L1772.35,1664.82L1701.39,1664.82L1701.39,1731.21L1663.87,1731.21L1663.87,1560.91Z" style="fill-rule:nonzero;"/>
    <path d="M1806.51,1560.91L1920.77,1560.91L1920.77,1595.55L1844.03,1595.55L1844.03,1630.18L1914.99,1630.18L1914.99,1664.82L1844.03,1664.82L1844.03,1731.21L1806.51,1731.21L1806.51,1560.91Z" style="fill-rule:nonzero;"/>
    <rect x="1044.6" y="1534.58" width="32.913" height="222.964" style="fill:white;"/>
    <path d="M957.816,1466.59L937.819,1466.59L937.819,1452.93L993.257,1452.93L993.257,1466.59L973.259,1466.59L973.259,1523.02L957.816,1523.02L957.816,1466.59Z" style="fill-rule:nonzero;"/>
    <path d="M1050.58,1452.93L1066.02,1452.93L1066.02,1479.07L1096.01,1479.07L1096.01,1452.93L1111.46,1452.93L1111.46,1523.02L1096.01,1523.02L1096.01,1492.73L1066.02,1492.73L1066.02,1523.02L1050.58,1523.02L1050.58,1452.93Z" style="fill-rule:nonzero;"/>
    <path d="M1175.81,1452.93L1223.42,1452.93L1223.42,1467.18L1191.25,1467.18L1191.25,1480.25L1221.64,1480.25L1221.64,1494.51L1191.25,1494.51L1191.25,1508.76L1225.2,1508.76L1225.2,1523.02L1175.81,1523.02L1175.81,1452.93Z" style="fill-rule:nonzero;"/>
    <path d="M1036.76,1298.06C772.066,1275.35 564.017,1053.02 564.017,782.479C564.017,511.941 772.066,289.613 1036.76,266.896L1036.76,1098.72C881.574,1076.96 762.16,943.664 762.16,782.479L655.71,782.479C655.71,1002.53 822.631,1183.59 1036.76,1205.96L1036.76,1298.06ZM1148.27,269.259C1402.4,302.051 1599.01,519.486 1599.01,782.479C1599.01,1045.47 1402.4,1262.91 1148.27,1295.7L1148.27,470.117C1292.6,500.814 1400.86,629.003 1400.86,782.479L1507.31,782.479C1507.31,570.029 1351.72,393.918 1148.27,361.881L1148.27,269.259Z"/>
    <path d="M501.536,1900.74L491.627,1900.74L491.627,1812.38L459.008,1812.38L459.008,1803.3L534.154,1803.3L534.154,1812.38L501.536,1812.38L501.536,1900.74Z" style="fill-rule:nonzero;"/>
    <path d="M533.466,1836.33L548.33,1888.63L548.606,1888.63L565.809,1836.33L575.168,1836.33L592.372,1888.63L592.647,1888.63L607.511,1836.33L618.247,1836.33L597.877,1900.74L587.693,1900.74L570.626,1847.89L570.351,1847.89L553.285,1900.74L543.1,1900.74L522.731,1836.33L533.466,1836.33Z" style="fill-rule:nonzero;"/>
    <path d="M685.273,1868.53C685.273,1864.95 684.699,1861.6 683.552,1858.48C682.405,1855.37 680.777,1852.66 678.667,1850.36C676.556,1848.07 674.01,1846.26 671.028,1844.93C668.046,1843.6 664.674,1842.93 660.912,1842.93C657.15,1842.93 653.778,1843.6 650.796,1844.93C647.814,1846.26 645.291,1848.07 643.227,1850.36C641.162,1852.66 639.556,1855.37 638.41,1858.48C637.263,1861.6 636.689,1864.95 636.689,1868.53C636.689,1872.11 637.263,1875.46 638.41,1878.58C639.556,1881.7 641.162,1884.4 643.227,1886.7C645.291,1888.99 647.814,1890.81 650.796,1892.13C653.778,1893.47 657.15,1894.13 660.912,1894.13C664.674,1894.13 668.046,1893.47 671.028,1892.13C674.01,1890.81 676.556,1888.99 678.667,1886.7C680.777,1884.4 682.405,1881.7 683.552,1878.58C684.699,1875.46 685.273,1872.11 685.273,1868.53ZM695.182,1868.53C695.182,1873.39 694.333,1877.89 692.636,1882.02C690.939,1886.15 688.576,1889.73 685.548,1892.75C682.52,1895.78 678.919,1898.14 674.744,1899.84C670.569,1901.54 665.959,1902.39 660.912,1902.39C655.957,1902.39 651.393,1901.54 647.218,1899.84C643.043,1898.14 639.442,1895.78 636.414,1892.75C633.386,1889.73 631.023,1886.15 629.326,1882.02C627.628,1877.89 626.78,1873.39 626.78,1868.53C626.78,1863.67 627.628,1859.17 629.326,1855.04C631.023,1850.91 633.386,1847.34 636.414,1844.31C639.442,1841.28 643.043,1838.92 647.218,1837.22C651.393,1835.52 655.957,1834.67 660.912,1834.67C665.959,1834.67 670.569,1835.52 674.744,1837.22C678.919,1838.92 682.52,1841.28 685.548,1844.31C688.576,1847.34 690.939,1850.91 692.636,1855.04C694.333,1859.17 695.182,1863.67 695.182,1868.53Z" style="fill-rule:nonzero;"/>
    <path d="M784.092,1851.6C782.715,1848.94 780.88,1846.83 778.586,1845.27C776.292,1843.71 773.494,1842.93 770.191,1842.93C768.631,1842.93 767.048,1843.12 765.443,1843.48C763.837,1843.85 762.392,1844.42 761.107,1845.2C759.823,1845.98 758.79,1846.97 758.011,1848.16C757.231,1849.36 756.841,1850.82 756.841,1852.57C756.841,1855.59 757.896,1857.8 760.006,1859.17C762.117,1860.55 765.282,1861.74 769.503,1862.75L778.724,1864.95C783.22,1865.96 786.959,1868 789.941,1871.08C792.923,1874.15 794.414,1877.98 794.414,1882.57C794.414,1886.06 793.703,1889.06 792.281,1891.59C790.858,1894.11 788.977,1896.17 786.638,1897.78C784.298,1899.38 781.614,1900.55 778.586,1901.29C775.558,1902.02 772.485,1902.39 769.365,1902.39C764.41,1902.39 759.8,1901.45 755.533,1899.57C751.267,1897.69 747.619,1894.45 744.592,1889.86L752.437,1884.5C754.272,1887.43 756.588,1889.77 759.387,1891.52C762.185,1893.26 765.511,1894.13 769.365,1894.13C771.2,1894.13 773.035,1893.92 774.87,1893.51C776.705,1893.1 778.334,1892.46 779.756,1891.59C781.178,1890.71 782.325,1889.59 783.197,1888.21C784.069,1886.84 784.504,1885.23 784.504,1883.4C784.504,1880.18 783.312,1877.87 780.926,1876.44C778.54,1875.02 775.65,1873.9 772.255,1873.07L763.447,1871.01C762.346,1870.73 760.855,1870.28 758.974,1869.63C757.093,1868.99 755.258,1868.03 753.469,1866.74C751.68,1865.46 750.143,1863.78 748.858,1861.72C747.574,1859.65 746.931,1857.11 746.931,1854.08C746.931,1850.78 747.597,1847.89 748.927,1845.41C750.257,1842.93 752.047,1840.91 754.295,1839.35C756.542,1837.79 759.089,1836.62 761.933,1835.84C764.777,1835.06 767.714,1834.67 770.741,1834.67C775.237,1834.67 779.412,1835.55 783.266,1837.29C787.119,1839.03 790.101,1842.02 792.212,1846.24L784.092,1851.6Z" style="fill-rule:nonzero;"/>
    <path d="M855.109,1900.74C854.925,1898.99 854.811,1897.27 854.765,1895.58C854.719,1893.88 854.696,1892.16 854.696,1890.41L854.421,1890.41C853.411,1892.16 852.127,1893.76 850.567,1895.23C849.007,1896.7 847.264,1897.96 845.337,1899.02C843.41,1900.07 841.369,1900.9 839.213,1901.49C837.056,1902.09 834.923,1902.39 832.813,1902.39C824.555,1902.39 818.453,1900.21 814.508,1895.85C810.563,1891.49 808.59,1885.28 808.59,1877.2L808.59,1836.33L817.673,1836.33L817.673,1871.97C817.673,1875.55 817.949,1878.72 818.499,1881.47C819.05,1884.22 819.99,1886.54 821.321,1888.42C822.651,1890.3 824.44,1891.72 826.688,1892.69C828.936,1893.65 831.758,1894.13 835.153,1894.13C835.611,1894.13 836.896,1893.95 839.006,1893.58C841.116,1893.21 843.342,1892.2 845.681,1890.55C848.021,1888.9 850.108,1886.42 851.943,1883.12C853.779,1879.82 854.696,1875.23 854.696,1869.36L854.696,1836.33L863.78,1836.33L863.78,1886.56C863.78,1888.3 863.848,1890.51 863.986,1893.17C864.124,1895.83 864.284,1898.35 864.468,1900.74L855.109,1900.74Z" style="fill-rule:nonzero;"/>
    <path d="M893.783,1836.33C893.967,1838.07 894.081,1839.79 894.127,1841.49C894.173,1843.18 894.196,1844.9 894.196,1846.65L894.471,1846.65C895.481,1844.9 896.765,1843.3 898.325,1841.83C899.885,1840.36 901.628,1839.1 903.555,1838.05C905.482,1836.99 907.523,1836.16 909.679,1835.57C911.836,1834.97 913.969,1834.67 916.079,1834.67C924.337,1834.67 930.439,1836.85 934.384,1841.21C938.33,1845.57 940.302,1851.79 940.302,1859.86L940.302,1900.74L931.219,1900.74L931.219,1865.09C931.219,1857.93 929.98,1852.45 927.503,1848.64C925.025,1844.84 920.438,1842.93 913.74,1842.93C913.281,1842.93 911.996,1843.12 909.886,1843.48C907.776,1843.85 905.551,1844.86 903.211,1846.51C900.871,1848.16 898.784,1850.64 896.949,1853.94C895.114,1857.25 894.196,1861.83 894.196,1867.71L894.196,1900.74L885.112,1900.74L885.112,1850.5C885.112,1848.76 885.044,1846.56 884.906,1843.9C884.768,1841.24 884.608,1838.71 884.424,1836.33L893.783,1836.33Z" style="fill-rule:nonzero;"/>
    <path d="M995.767,1851.6C994.391,1848.94 992.556,1846.83 990.262,1845.27C987.968,1843.71 985.17,1842.93 981.867,1842.93C980.307,1842.93 978.724,1843.12 977.118,1843.48C975.513,1843.85 974.068,1844.42 972.783,1845.2C971.499,1845.98 970.466,1846.97 969.686,1848.16C968.907,1849.36 968.517,1850.82 968.517,1852.57C968.517,1855.59 969.572,1857.8 971.682,1859.17C973.792,1860.55 976.958,1861.74 981.179,1862.75L990.4,1864.95C994.896,1865.96 998.635,1868 1001.62,1871.08C1004.6,1874.15 1006.09,1877.98 1006.09,1882.57C1006.09,1886.06 1005.38,1889.06 1003.96,1891.59C1002.53,1894.11 1000.65,1896.17 998.314,1897.78C995.974,1899.38 993.29,1900.55 990.262,1901.29C987.234,1902.02 984.161,1902.39 981.041,1902.39C976.086,1902.39 971.476,1901.45 967.209,1899.57C962.943,1897.69 959.295,1894.45 956.267,1889.86L964.112,1884.5C965.947,1887.43 968.264,1889.77 971.063,1891.52C973.861,1893.26 977.187,1894.13 981.041,1894.13C982.876,1894.13 984.711,1893.92 986.546,1893.51C988.381,1893.1 990.01,1892.46 991.432,1891.59C992.854,1890.71 994.001,1889.59 994.873,1888.21C995.744,1886.84 996.18,1885.23 996.18,1883.4C996.18,1880.18 994.988,1877.87 992.602,1876.44C990.216,1875.02 987.326,1873.9 983.931,1873.07L975.123,1871.01C974.022,1870.73 972.531,1870.28 970.65,1869.63C968.769,1868.99 966.934,1868.03 965.145,1866.74C963.355,1865.46 961.819,1863.78 960.534,1861.72C959.249,1859.65 958.607,1857.11 958.607,1854.08C958.607,1850.78 959.272,1847.89 960.603,1845.41C961.933,1842.93 963.722,1840.91 965.97,1839.35C968.218,1837.79 970.765,1836.62 973.609,1835.84C976.453,1835.06 979.389,1834.67 982.417,1834.67C986.913,1834.67 991.088,1835.55 994.942,1837.29C998.795,1839.03 1001.78,1842.02 1003.89,1846.24L995.767,1851.6Z" style="fill-rule:nonzero;"/>
    <path d="M1036.92,1894.13C1036.92,1896.06 1036.23,1897.78 1034.86,1899.29C1033.48,1900.81 1031.69,1901.56 1029.49,1901.56C1027.29,1901.56 1025.5,1900.81 1024.12,1899.29C1022.74,1897.78 1022.06,1896.06 1022.06,1894.13C1022.06,1892.2 1022.74,1890.48 1024.12,1888.97C1025.5,1887.46 1027.29,1886.7 1029.49,1886.7C1031.69,1886.7 1033.48,1887.46 1034.86,1888.97C1036.23,1890.48 1036.92,1892.2 1036.92,1894.13Z" style="fill-rule:nonzero;"/>
    <path d="M1184.32,1852.02C1184.32,1846.42 1183.4,1841.07 1181.57,1835.98C1179.73,1830.89 1177.1,1826.42 1173.65,1822.56C1170.21,1818.71 1166.02,1815.63 1161.06,1813.34C1156.11,1811.05 1150.51,1809.9 1144.27,1809.9C1138.03,1809.9 1132.43,1811.05 1127.48,1813.34C1122.53,1815.63 1118.33,1818.71 1114.89,1822.56C1111.45,1826.42 1108.81,1830.89 1106.97,1835.98C1105.14,1841.07 1104.22,1846.42 1104.22,1852.02C1104.22,1857.61 1105.14,1862.96 1106.97,1868.05C1108.81,1873.14 1111.45,1877.62 1114.89,1881.47C1118.33,1885.32 1122.53,1888.4 1127.48,1890.69C1132.43,1892.98 1138.03,1894.13 1144.27,1894.13C1150.51,1894.13 1156.11,1892.98 1161.06,1890.69C1166.02,1888.4 1170.21,1885.32 1173.65,1881.47C1177.1,1877.62 1179.73,1873.14 1181.57,1868.05C1183.4,1862.96 1184.32,1857.61 1184.32,1852.02ZM1195.06,1852.02C1195.06,1859.45 1193.77,1866.28 1191.2,1872.52C1188.63,1878.76 1185.08,1884.15 1180.54,1888.69C1176,1893.24 1170.63,1896.79 1164.43,1899.36C1158.24,1901.93 1151.52,1903.21 1144.27,1903.21C1137.02,1903.21 1130.3,1901.93 1124.11,1899.36C1117.91,1896.79 1112.55,1893.24 1108.01,1888.69C1103.46,1884.15 1099.91,1878.76 1097.34,1872.52C1094.77,1866.28 1093.49,1859.45 1093.49,1852.02C1093.49,1844.58 1094.77,1837.75 1097.34,1831.51C1099.91,1825.27 1103.46,1819.88 1108.01,1815.34C1112.55,1810.8 1117.91,1807.24 1124.11,1804.67C1130.3,1802.1 1137.02,1800.82 1144.27,1800.82C1151.52,1800.82 1158.24,1802.1 1164.43,1804.67C1170.63,1807.24 1176,1810.8 1180.54,1815.34C1185.08,1819.88 1188.63,1825.27 1191.2,1831.51C1193.77,1837.75 1195.06,1844.58 1195.06,1852.02Z" style="fill-rule:nonzero;"/>
    <path d="M1220.24,1836.33C1220.43,1838.07 1220.54,1839.79 1220.59,1841.49C1220.63,1843.18 1220.66,1844.9 1220.66,1846.65L1220.93,1846.65C1221.94,1844.9 1223.23,1843.3 1224.79,1841.83C1226.35,1840.36 1228.09,1839.1 1230.02,1838.05C1231.94,1836.99 1233.98,1836.16 1236.14,1835.57C1238.3,1834.97 1240.43,1834.67 1242.54,1834.67C1250.8,1834.67 1256.9,1836.85 1260.84,1841.21C1264.79,1845.57 1266.76,1851.79 1266.76,1859.86L1266.76,1900.74L1257.68,1900.74L1257.68,1865.09C1257.68,1857.93 1256.44,1852.45 1253.96,1848.64C1251.49,1844.84 1246.9,1842.93 1240.2,1842.93C1239.74,1842.93 1238.46,1843.12 1236.35,1843.48C1234.24,1843.85 1232.01,1844.86 1229.67,1846.51C1227.33,1848.16 1225.24,1850.64 1223.41,1853.94C1221.57,1857.25 1220.66,1861.83 1220.66,1867.71L1220.66,1900.74L1211.57,1900.74L1211.57,1850.5C1211.57,1848.76 1211.5,1846.56 1211.37,1843.9C1211.23,1841.24 1211.07,1838.71 1210.88,1836.33L1220.24,1836.33Z" style="fill-rule:nonzero;"/>
    <path d="M1338.19,1863.58C1338.19,1857.43 1336.36,1852.45 1332.69,1848.64C1329.02,1844.84 1323.88,1842.93 1317.27,1842.93C1314.34,1842.93 1311.49,1843.51 1308.74,1844.65C1305.99,1845.8 1303.58,1847.34 1301.51,1849.26C1299.45,1851.19 1297.8,1853.39 1296.56,1855.87C1295.32,1858.35 1294.7,1860.92 1294.7,1863.58L1338.19,1863.58ZM1294.43,1871.01C1294.7,1874.22 1295.48,1877.25 1296.77,1880.09C1298.05,1882.94 1299.75,1885.39 1301.86,1887.46C1303.97,1889.52 1306.4,1891.15 1309.15,1892.34C1311.9,1893.53 1314.89,1894.13 1318.1,1894.13C1322.96,1894.13 1327.16,1893.01 1330.69,1890.76C1334.22,1888.51 1336.91,1885.92 1338.74,1882.98L1345.76,1888.76C1341.91,1893.63 1337.66,1897.11 1333.03,1899.22C1328.4,1901.33 1323.42,1902.39 1318.1,1902.39C1313.33,1902.39 1308.9,1901.54 1304.82,1899.84C1300.73,1898.14 1297.22,1895.78 1294.29,1892.75C1291.35,1889.73 1289.04,1886.15 1287.34,1882.02C1285.64,1877.89 1284.79,1873.39 1284.79,1868.53C1284.79,1863.67 1285.62,1859.17 1287.27,1855.04C1288.92,1850.91 1291.21,1847.34 1294.15,1844.31C1297.09,1841.28 1300.53,1838.92 1304.47,1837.22C1308.42,1835.52 1312.68,1834.67 1317.27,1834.67C1322.13,1834.67 1326.49,1835.55 1330.35,1837.29C1334.2,1839.03 1337.43,1841.35 1340.05,1844.24C1342.66,1847.13 1344.66,1850.53 1346.04,1854.42C1347.41,1858.32 1348.1,1862.48 1348.1,1866.88L1348.1,1871.01L1294.43,1871.01Z" style="fill-rule:nonzero;"/>
    <path d="M1436.18,1844.58L1417.61,1844.58L1417.61,1882.57C1417.61,1884.95 1417.84,1886.9 1418.29,1888.42C1418.75,1889.93 1419.39,1891.1 1420.22,1891.93C1421.05,1892.75 1422.03,1893.33 1423.18,1893.65C1424.33,1893.97 1425.59,1894.13 1426.96,1894.13C1428.52,1894.13 1430.13,1893.9 1431.78,1893.44C1433.43,1892.98 1434.95,1892.39 1436.32,1891.65L1436.74,1900.05C1433.34,1901.61 1429.26,1902.39 1424.49,1902.39C1422.74,1902.39 1420.93,1902.16 1419.05,1901.7C1417.17,1901.24 1415.45,1900.37 1413.89,1899.09C1412.33,1897.8 1411.05,1896.06 1410.04,1893.86C1409.03,1891.65 1408.52,1888.76 1408.52,1885.18L1408.52,1844.58L1394.9,1844.58L1394.9,1836.33L1408.52,1836.33L1408.52,1818.16L1417.61,1818.16L1417.61,1836.33L1436.18,1836.33L1436.18,1844.58Z" style="fill-rule:nonzero;"/>
    <path d="M1449.54,1856.42C1449.54,1853.58 1449.47,1850.68 1449.33,1847.75C1449.19,1844.81 1449.08,1841.01 1448.99,1836.33L1457.93,1836.33L1457.93,1848.3L1458.21,1848.3C1458.85,1846.56 1459.77,1844.88 1460.96,1843.28C1462.15,1841.67 1463.6,1840.23 1465.29,1838.94C1466.99,1837.66 1468.96,1836.62 1471.21,1835.84C1473.46,1835.06 1476.01,1834.67 1478.85,1834.67C1481.42,1834.67 1483.67,1834.95 1485.6,1835.5L1483.81,1844.45C1482.61,1843.99 1480.87,1843.76 1478.58,1843.76C1475.09,1843.76 1472.11,1844.42 1469.63,1845.75C1467.15,1847.08 1465.09,1848.78 1463.44,1850.85C1461.79,1852.91 1460.57,1855.13 1459.79,1857.52C1459.01,1859.91 1458.62,1862.2 1458.62,1864.4L1458.62,1900.74L1449.54,1900.74L1449.54,1856.42Z" style="fill-rule:nonzero;"/>
    <path d="M1540.79,1900.74C1540.6,1898.99 1540.49,1897.27 1540.44,1895.58C1540.39,1893.88 1540.37,1892.16 1540.37,1890.41L1540.1,1890.41C1539.09,1892.16 1537.8,1893.76 1536.24,1895.23C1534.68,1896.7 1532.94,1897.96 1531.01,1899.02C1529.09,1900.07 1527.04,1900.9 1524.89,1901.49C1522.73,1902.09 1520.6,1902.39 1518.49,1902.39C1510.23,1902.39 1504.13,1900.21 1500.18,1895.85C1496.24,1891.49 1494.27,1885.28 1494.27,1877.2L1494.27,1836.33L1503.35,1836.33L1503.35,1871.97C1503.35,1875.55 1503.62,1878.72 1504.17,1881.47C1504.73,1884.22 1505.67,1886.54 1507,1888.42C1508.33,1890.3 1510.12,1891.72 1512.36,1892.69C1514.61,1893.65 1517.43,1894.13 1520.83,1894.13C1521.29,1894.13 1522.57,1893.95 1524.68,1893.58C1526.79,1893.21 1529.02,1892.2 1531.36,1890.55C1533.7,1888.9 1535.78,1886.42 1537.62,1883.12C1539.45,1879.82 1540.37,1875.23 1540.37,1869.36L1540.37,1836.33L1549.45,1836.33L1549.45,1886.56C1549.45,1888.3 1549.52,1890.51 1549.66,1893.17C1549.8,1895.83 1549.96,1898.35 1550.14,1900.74L1540.79,1900.74Z" style="fill-rule:nonzero;"/>
    <path d="M1604.1,1844.58L1585.52,1844.58L1585.52,1882.57C1585.52,1884.95 1585.74,1886.9 1586.2,1888.42C1586.66,1889.93 1587.3,1891.1 1588.13,1891.93C1588.95,1892.75 1589.94,1893.33 1591.09,1893.65C1592.24,1893.97 1593.5,1894.13 1594.87,1894.13C1596.43,1894.13 1598.04,1893.9 1599.69,1893.44C1601.34,1892.98 1602.86,1892.39 1604.23,1891.65L1604.64,1900.05C1601.25,1901.61 1597.17,1902.39 1592.4,1902.39C1590.65,1902.39 1588.84,1902.16 1586.96,1901.7C1585.08,1901.24 1583.36,1900.37 1581.8,1899.09C1580.24,1897.8 1578.95,1896.06 1577.94,1893.86C1576.94,1891.65 1576.43,1888.76 1576.43,1885.18L1576.43,1844.58L1562.81,1844.58L1562.81,1836.33L1576.43,1836.33L1576.43,1818.16L1585.52,1818.16L1585.52,1836.33L1604.1,1836.33L1604.1,1844.58Z" style="fill-rule:nonzero;"/>
    <path d="M1616.48,1796.69L1625.57,1796.69L1625.57,1846.65L1625.84,1846.65C1626.85,1844.9 1628.13,1843.3 1629.69,1841.83C1631.25,1840.36 1633,1839.1 1634.92,1838.05C1636.85,1836.99 1638.89,1836.16 1641.05,1835.57C1643.2,1834.97 1645.34,1834.67 1647.45,1834.67C1655.71,1834.67 1661.81,1836.85 1665.75,1841.21C1669.7,1845.57 1671.67,1851.79 1671.67,1859.86L1671.67,1900.74L1662.59,1900.74L1662.59,1865.09C1662.59,1857.93 1661.35,1852.45 1658.87,1848.64C1656.39,1844.84 1651.81,1842.93 1645.11,1842.93C1644.65,1842.93 1643.37,1843.12 1641.26,1843.48C1639.14,1843.85 1636.92,1844.86 1634.58,1846.51C1632.24,1848.16 1630.15,1850.64 1628.32,1853.94C1626.48,1857.25 1625.57,1861.83 1625.57,1867.71L1625.57,1900.74L1616.48,1900.74L1616.48,1796.69Z" style="fill-rule:nonzero;"/>
    <path d="M1709.66,1894.13C1709.66,1896.06 1708.97,1897.78 1707.59,1899.29C1706.22,1900.81 1704.43,1901.56 1702.23,1901.56C1700.02,1901.56 1698.23,1900.81 1696.86,1899.29C1695.48,1897.78 1694.79,1896.06 1694.79,1894.13C1694.79,1892.2 1695.48,1890.48 1696.86,1888.97C1698.23,1887.46 1700.02,1886.7 1702.23,1886.7C1704.43,1886.7 1706.22,1887.46 1707.59,1888.97C1708.97,1890.48 1709.66,1892.2 1709.66,1894.13Z" style="fill-rule:nonzero;"/>
</svg>
