<?xml version="1.0" encoding="UTF-8" standalone="no"?>
<!DOCTYPE svg PUBLIC "-//W3C//DTD SVG 1.1//EN" "http://www.w3.org/Graphics/SVG/1.1/DTD/svg11.dtd">
<svg width="100%" height="100%" viewBox="0 0 2843 2065" version="1.1" xmlns="http://www.w3.org/2000/svg" xmlns:xlink="http://www.w3.org/1999/xlink" xml:space="preserve" xmlns:serif="http://www.serif.com/" style="fill-rule:evenodd;clip-rule:evenodd;stroke-linecap:square;stroke-linejoin:round;stroke-miterlimit:1.5;">
    <rect id="Artboard5" x="0" y="-0" width="2842.6" height="2064.1" style="fill:none;"/>
    <g>
        <path d="M457.399,960.871C441.383,951.973 425.17,945.844 408.759,942.482L408.759,1095.82L338.765,1095.82L338.765,942.482C322.354,945.844 306.141,951.973 290.125,960.871L266.991,911.044C281.821,902.147 298.429,895.325 316.818,890.58C335.206,885.835 354.187,883.462 373.762,883.462C393.337,883.462 412.318,885.835 430.706,890.58C449.094,895.325 465.703,902.147 480.532,911.044L457.399,960.871Z" style="fill-rule:nonzero;"/>
        <path d="M696.743,888.207L696.743,1095.82L626.749,1095.82L626.749,1019.3L562.093,1019.3L562.093,1095.82L492.099,1095.82L492.099,888.207L562.093,888.207L562.093,961.76L626.749,961.76L626.749,888.207L696.743,888.207Z" style="fill-rule:nonzero;"/>
        <path d="M917.995,1082.17C906.922,1087.91 893.576,1092.41 877.956,1095.67C862.336,1098.93 846.419,1100.56 830.206,1100.56C806.874,1100.56 787.053,1097.84 770.741,1092.41C754.428,1086.97 742.12,1079.36 733.816,1069.57C725.511,1059.78 721.359,1048.56 721.359,1035.91C721.359,1025.43 724.177,1016.03 729.812,1007.73C735.447,999.427 743.504,993.001 753.984,988.453C746.075,984.103 740.094,978.419 736.04,971.399C731.987,964.38 729.96,956.62 729.96,948.118C729.96,936.452 733.766,925.725 741.379,915.938C748.991,906.151 760.657,898.291 776.376,892.36C792.095,886.428 811.422,883.462 834.358,883.462C848.396,883.462 862.188,884.698 875.732,887.169C889.276,889.641 901.386,892.953 912.063,897.105L893.082,948.118C874.496,940.604 855.811,936.847 837.027,936.847C824.768,936.847 815.624,938.231 809.593,941C803.563,943.768 800.547,947.623 800.547,952.566C800.547,956.718 802.03,959.882 804.996,962.057C807.962,964.232 812.905,965.319 819.825,965.319L880.625,965.319L880.625,1016.93L815.08,1016.93C807.369,1016.93 801.585,1018.16 797.73,1020.63C793.874,1023.1 791.946,1026.61 791.946,1031.16C791.946,1041.84 805.589,1047.18 832.875,1047.18C843.354,1047.18 854.476,1045.74 866.241,1042.88C878.005,1040.01 888.435,1036.2 897.531,1031.46L917.995,1082.17Z" style="fill-rule:nonzero;"/>
        <path d="M1133.02,1100.56C1111.07,1100.56 1091.3,1095.96 1073.7,1086.77C1056.11,1077.58 1042.31,1064.72 1032.33,1048.21C1022.34,1031.7 1017.35,1012.97 1017.35,992.012C1017.35,971.053 1022.34,952.319 1032.33,935.809C1042.31,919.299 1056.11,906.447 1073.7,897.253C1091.3,888.059 1111.07,883.462 1133.02,883.462C1153.19,883.462 1171.18,887.021 1187,894.139C1202.82,901.257 1215.87,911.539 1226.15,924.984L1181.95,964.43C1169.1,948.216 1153.98,940.11 1136.58,940.11C1121.95,940.11 1110.18,944.806 1101.28,954.198C1092.39,963.589 1087.94,976.194 1087.94,992.012C1087.94,1007.83 1092.39,1020.44 1101.28,1029.83C1110.18,1039.22 1121.95,1043.91 1136.58,1043.91C1153.98,1043.91 1169.1,1035.81 1181.95,1019.59L1226.15,1059.04C1215.87,1072.49 1202.82,1082.77 1187,1089.88C1171.18,1097 1153.19,1100.56 1133.02,1100.56Z" style="fill-rule:nonzero;"/>
        <path d="M1347.75,1100.56C1325.4,1100.56 1305.34,1095.92 1287.54,1086.62C1269.74,1077.33 1255.81,1064.43 1245.72,1047.92C1235.64,1031.41 1230.6,1012.77 1230.6,992.012C1230.6,971.251 1235.64,952.616 1245.72,936.106C1255.81,919.596 1269.74,906.695 1287.54,897.402C1305.34,888.109 1325.4,883.462 1347.75,883.462C1370.09,883.462 1390.16,888.109 1407.95,897.402C1425.75,906.695 1439.69,919.596 1449.77,936.106C1459.86,952.616 1464.9,971.251 1464.9,992.012C1464.9,1012.77 1459.86,1031.41 1449.77,1047.92C1439.69,1064.43 1425.75,1077.33 1407.95,1086.62C1390.16,1095.92 1370.09,1100.56 1347.75,1100.56ZM1347.75,1043.91C1356.45,1043.91 1364.31,1041.79 1371.33,1037.54C1378.34,1033.29 1383.93,1027.26 1388.08,1019.45C1392.23,1011.64 1394.31,1002.49 1394.31,992.012C1394.31,981.533 1392.23,972.388 1388.08,964.578C1383.93,956.768 1378.34,950.737 1371.33,946.486C1364.31,942.235 1356.45,940.11 1347.75,940.11C1339.05,940.11 1331.19,942.235 1324.17,946.486C1317.15,950.737 1311.56,956.768 1307.41,964.578C1303.26,972.388 1301.18,981.533 1301.18,992.012C1301.18,1002.49 1303.26,1011.64 1307.41,1019.45C1311.56,1027.26 1317.15,1033.29 1324.17,1037.54C1331.19,1041.79 1339.05,1043.91 1347.75,1043.91Z" style="fill-rule:nonzero;"/>
        <path d="M1616.45,883.462C1640.97,883.462 1660,891.47 1673.54,907.485C1687.09,923.501 1693.86,946.239 1693.86,975.7L1693.86,1095.82L1623.87,1095.82L1623.87,977.776C1623.87,965.122 1621.15,955.68 1615.71,949.452C1610.27,943.224 1602.71,940.11 1593.02,940.11C1583.33,940.11 1575.47,943.471 1569.44,950.194C1563.41,956.916 1560.4,966.901 1560.4,980.149L1560.4,1095.82L1490.4,1095.82L1490.4,888.207L1558.32,888.207L1558.32,910.451C1572.36,892.458 1591.74,883.462 1616.45,883.462Z" style="fill-rule:nonzero;"/>
        <path d="M1833.26,1100.56C1811.31,1100.56 1791.54,1095.96 1773.94,1086.77C1756.34,1077.58 1742.55,1064.72 1732.57,1048.21C1722.58,1031.7 1717.59,1012.97 1717.59,992.012C1717.59,971.053 1722.58,952.319 1732.57,935.809C1742.55,919.299 1756.34,906.447 1773.94,897.253C1791.54,888.059 1811.31,883.462 1833.26,883.462C1853.42,883.462 1871.42,887.021 1887.23,894.139C1903.05,901.257 1916.1,911.539 1926.38,924.984L1882.19,964.43C1869.34,948.216 1854.21,940.11 1836.81,940.11C1822.18,940.11 1810.42,944.806 1801.52,954.198C1792.62,963.589 1788.17,976.194 1788.17,992.012C1788.17,1007.83 1792.62,1020.44 1801.52,1029.83C1810.42,1039.22 1822.18,1043.91 1836.81,1043.91C1854.21,1043.91 1869.34,1035.81 1882.19,1019.59L1926.38,1059.04C1916.1,1072.49 1903.05,1082.77 1887.23,1089.88C1871.42,1097 1853.42,1100.56 1833.26,1100.56Z" style="fill-rule:nonzero;"/>
        <path d="M2132.51,1082.17C2121.44,1087.91 2108.09,1092.41 2092.47,1095.67C2076.85,1098.93 2060.93,1100.56 2044.72,1100.56C2021.39,1100.56 2001.57,1097.84 1985.26,1092.41C1968.94,1086.97 1956.63,1079.36 1948.33,1069.57C1940.03,1059.78 1935.87,1048.56 1935.87,1035.91C1935.87,1025.43 1938.69,1016.03 1944.33,1007.73C1949.96,999.427 1958.02,993.001 1968.5,988.453C1960.59,984.103 1954.61,978.419 1950.56,971.399C1946.5,964.38 1944.48,956.62 1944.48,948.118C1944.48,936.452 1948.28,925.725 1955.89,915.938C1963.51,906.151 1975.17,898.291 1990.89,892.36C2006.61,886.428 2025.94,883.462 2048.87,883.462C2062.91,883.462 2076.7,884.698 2090.25,887.169C2103.79,889.641 2115.9,892.953 2126.58,897.105L2107.6,948.118C2089.01,940.604 2070.32,936.847 2051.54,936.847C2039.28,936.847 2030.14,938.231 2024.11,941C2018.08,943.768 2015.06,947.623 2015.06,952.566C2015.06,956.718 2016.55,959.882 2019.51,962.057C2022.48,964.232 2027.42,965.319 2034.34,965.319L2095.14,965.319L2095.14,1016.93L2029.59,1016.93C2021.88,1016.93 2016.1,1018.16 2012.24,1020.63C2008.39,1023.1 2006.46,1026.61 2006.46,1031.16C2006.46,1041.84 2020.1,1047.18 2047.39,1047.18C2057.87,1047.18 2068.99,1045.74 2080.76,1042.88C2092.52,1040.01 2102.95,1036.2 2112.05,1031.46L2132.51,1082.17Z" style="fill-rule:nonzero;"/>
        <path d="M2240.17,1043.62L2221.19,1043.62L2221.19,1095.82L2151.19,1095.82L2151.19,888.207L2251.14,888.207C2270.32,888.207 2287.03,891.371 2301.27,897.698C2315.5,904.025 2326.48,913.121 2334.19,924.984C2341.9,936.847 2345.75,950.688 2345.75,966.506C2345.75,981.335 2342.39,994.286 2335.67,1005.36C2328.95,1016.43 2319.26,1025.23 2306.61,1031.75L2350.2,1095.82L2275.46,1095.82L2240.17,1043.62ZM2275.17,966.506C2275.17,958.795 2272.79,952.813 2268.05,948.562C2263.3,944.311 2256.18,942.186 2246.69,942.186L2221.19,942.186L2221.19,990.826L2246.69,990.826C2256.18,990.826 2263.3,988.7 2268.05,984.449C2272.79,980.198 2275.17,974.217 2275.17,966.506Z" style="fill-rule:nonzero;"/>
        <path d="M2498.2,883.462C2522.72,883.462 2541.75,891.47 2555.29,907.485C2568.84,923.501 2575.61,946.239 2575.61,975.7L2575.61,1095.82L2505.61,1095.82L2505.61,977.776C2505.61,965.122 2502.89,955.68 2497.46,949.452C2492.02,943.224 2484.46,940.11 2474.77,940.11C2465.08,940.11 2457.22,943.471 2451.19,950.194C2445.16,956.916 2442.14,966.901 2442.14,980.149L2442.14,1095.82L2372.15,1095.82L2372.15,888.207L2440.07,888.207L2440.07,910.451C2454.11,892.458 2473.48,883.462 2498.2,883.462Z" style="fill-rule:nonzero;"/>
        <path d="M1347.33,992.012L1347.33,1158.42" style="fill:none;stroke:white;stroke-width:20.83px;"/>
    </g>
    <path d="M1305.84,1147.97L1305.84,1155.26L1323.57,1155.26L1323.57,1166.07L1305.84,1166.07L1305.84,1179.66L1291.52,1179.66L1291.52,1137.17L1326.06,1137.17L1326.06,1147.97L1305.84,1147.97Z" style="fill-rule:nonzero;"/>
    <path d="M1382.95,1180.64C1378.37,1180.64 1374.27,1179.69 1370.62,1177.78C1366.98,1175.88 1364.13,1173.24 1362.06,1169.86C1360,1166.48 1358.97,1162.67 1358.97,1158.42C1358.97,1154.17 1360,1150.35 1362.06,1146.97C1364.13,1143.59 1366.98,1140.95 1370.62,1139.05C1374.27,1137.15 1378.37,1136.2 1382.95,1136.2C1387.52,1136.2 1391.63,1137.15 1395.27,1139.05C1398.91,1140.95 1401.77,1143.59 1403.83,1146.97C1405.89,1150.35 1406.93,1154.17 1406.93,1158.42C1406.93,1162.67 1405.89,1166.48 1403.83,1169.86C1401.77,1173.24 1398.91,1175.88 1395.27,1177.78C1391.63,1179.69 1387.52,1180.64 1382.95,1180.64ZM1382.95,1169.04C1384.73,1169.04 1386.34,1168.61 1387.77,1167.74C1389.21,1166.87 1390.35,1165.63 1391.2,1164.03C1392.05,1162.43 1392.48,1160.56 1392.48,1158.42C1392.48,1156.27 1392.05,1154.4 1391.2,1152.8C1390.35,1151.2 1389.21,1149.97 1387.77,1149.1C1386.34,1148.23 1384.73,1147.79 1382.95,1147.79C1381.17,1147.79 1379.56,1148.23 1378.12,1149.1C1376.68,1149.97 1375.54,1151.2 1374.69,1152.8C1373.84,1154.4 1373.41,1156.27 1373.41,1158.42C1373.41,1160.56 1373.84,1162.43 1374.69,1164.03C1375.54,1165.63 1376.68,1166.87 1378.12,1167.74C1379.56,1168.61 1381.17,1169.04 1382.95,1169.04Z" style="fill-rule:nonzero;"/>
    <path d="M1460.72,1168.98L1456.83,1168.98L1456.83,1179.66L1442.5,1179.66L1442.5,1137.17L1462.96,1137.17C1466.89,1137.17 1470.31,1137.82 1473.22,1139.11C1476.14,1140.41 1478.38,1142.27 1479.96,1144.7C1481.54,1147.12 1482.33,1149.96 1482.33,1153.2C1482.33,1156.23 1481.64,1158.88 1480.27,1161.15C1478.89,1163.41 1476.91,1165.22 1474.32,1166.55L1483.24,1179.66L1467.94,1179.66L1460.72,1168.98ZM1467.88,1153.2C1467.88,1151.62 1467.39,1150.39 1466.42,1149.52C1465.45,1148.65 1464,1148.22 1462.05,1148.22L1456.83,1148.22L1456.83,1158.17L1462.05,1158.17C1464,1158.17 1465.45,1157.74 1466.42,1156.87C1467.39,1156 1467.88,1154.77 1467.88,1153.2Z" style="fill-rule:nonzero;"/>
    <path d="M1575.88,1148.28L1563.44,1148.28L1563.44,1137.17L1602.66,1137.17L1602.66,1148.28L1590.21,1148.28L1590.21,1179.66L1575.88,1179.66L1575.88,1148.28Z" style="fill-rule:nonzero;"/>
    <path d="M1678.61,1137.17L1678.61,1179.66L1664.28,1179.66L1664.28,1164L1651.05,1164L1651.05,1179.66L1636.72,1179.66L1636.72,1137.17L1651.05,1137.17L1651.05,1152.22L1664.28,1152.22L1664.28,1137.17L1678.61,1137.17Z" style="fill-rule:nonzero;"/>
    <path d="M1751.22,1168.86L1751.22,1179.66L1715.88,1179.66L1715.88,1137.17L1750.43,1137.17L1750.43,1147.97L1729.97,1147.97L1729.97,1152.95L1747.94,1152.95L1747.94,1163.27L1729.97,1163.27L1729.97,1168.86L1751.22,1168.86Z" style="fill-rule:nonzero;"/>
    <path d="M1863.78,1157.26L1876.22,1157.26L1876.22,1175.23C1873.71,1176.97 1870.8,1178.31 1867.48,1179.24C1864.16,1180.17 1860.9,1180.64 1857.7,1180.64C1853.17,1180.64 1849.1,1179.7 1845.5,1177.81C1841.9,1175.93 1839.08,1173.3 1837.03,1169.92C1834.99,1166.54 1833.97,1162.71 1833.97,1158.42C1833.97,1154.13 1834.99,1150.29 1837.03,1146.91C1839.08,1143.53 1841.93,1140.9 1845.59,1139.02C1849.26,1137.14 1853.39,1136.2 1858.01,1136.2C1862.18,1136.2 1865.91,1136.89 1869.21,1138.29C1872.51,1139.69 1875.25,1141.72 1877.43,1144.39L1868.27,1152.47C1865.6,1149.35 1862.42,1147.79 1858.74,1147.79C1855.58,1147.79 1853.07,1148.74 1851.21,1150.65C1849.35,1152.55 1848.41,1155.14 1848.41,1158.42C1848.41,1161.61 1849.34,1164.18 1851.18,1166.13C1853.02,1168.07 1855.48,1169.04 1858.55,1169.04C1860.38,1169.04 1862.12,1168.7 1863.78,1168.01L1863.78,1157.26Z" style="fill-rule:nonzero;"/>
    <path d="M1934.99,1180.64C1930.41,1180.64 1926.31,1179.69 1922.66,1177.78C1919.02,1175.88 1916.17,1173.24 1914.1,1169.86C1912.04,1166.48 1911.01,1162.67 1911.01,1158.42C1911.01,1154.17 1912.04,1150.35 1914.1,1146.97C1916.17,1143.59 1919.02,1140.95 1922.66,1139.05C1926.31,1137.15 1930.41,1136.2 1934.99,1136.2C1939.56,1136.2 1943.67,1137.15 1947.31,1139.05C1950.95,1140.95 1953.81,1143.59 1955.87,1146.97C1957.94,1150.35 1958.97,1154.17 1958.97,1158.42C1958.97,1162.67 1957.94,1166.48 1955.87,1169.86C1953.81,1173.24 1950.95,1175.88 1947.31,1177.78C1943.67,1179.69 1939.56,1180.64 1934.99,1180.64ZM1934.99,1169.04C1936.77,1169.04 1938.38,1168.61 1939.82,1167.74C1941.25,1166.87 1942.39,1165.63 1943.25,1164.03C1944.1,1162.43 1944.52,1160.56 1944.52,1158.42C1944.52,1156.27 1944.1,1154.4 1943.25,1152.8C1942.39,1151.2 1941.25,1149.97 1939.82,1149.1C1938.38,1148.23 1936.77,1147.79 1934.99,1147.79C1933.21,1147.79 1931.6,1148.23 1930.16,1149.1C1928.73,1149.97 1927.58,1151.2 1926.73,1152.8C1925.88,1154.4 1925.46,1156.27 1925.46,1158.42C1925.46,1160.56 1925.88,1162.43 1926.73,1164.03C1927.58,1165.63 1928.73,1166.87 1930.16,1167.74C1931.6,1168.61 1933.21,1169.04 1934.99,1169.04Z" style="fill-rule:nonzero;"/>
    <path d="M2016.83,1180.64C2012.25,1180.64 2008.14,1179.69 2004.5,1177.78C2000.86,1175.88 1998.01,1173.24 1995.94,1169.86C1993.88,1166.48 1992.85,1162.67 1992.85,1158.42C1992.85,1154.17 1993.88,1150.35 1995.94,1146.97C1998.01,1143.59 2000.86,1140.95 2004.5,1139.05C2008.14,1137.15 2012.25,1136.2 2016.83,1136.2C2021.4,1136.2 2025.51,1137.15 2029.15,1139.05C2032.79,1140.95 2035.65,1143.59 2037.71,1146.97C2039.78,1150.35 2040.81,1154.17 2040.81,1158.42C2040.81,1162.67 2039.78,1166.48 2037.71,1169.86C2035.65,1173.24 2032.79,1175.88 2029.15,1177.78C2025.51,1179.69 2021.4,1180.64 2016.83,1180.64ZM2016.83,1169.04C2018.61,1169.04 2020.22,1168.61 2021.65,1167.74C2023.09,1166.87 2024.23,1165.63 2025.08,1164.03C2025.93,1162.43 2026.36,1160.56 2026.36,1158.42C2026.36,1156.27 2025.93,1154.4 2025.08,1152.8C2024.23,1151.2 2023.09,1149.97 2021.65,1149.1C2020.22,1148.23 2018.61,1147.79 2016.83,1147.79C2015.05,1147.79 2013.44,1148.23 2012,1149.1C2010.56,1149.97 2009.42,1151.2 2008.57,1152.8C2007.72,1154.4 2007.3,1156.27 2007.3,1158.42C2007.3,1160.56 2007.72,1162.43 2008.57,1164.03C2009.42,1165.63 2010.56,1166.87 2012,1167.74C2013.44,1168.61 2015.05,1169.04 2016.83,1169.04Z" style="fill-rule:nonzero;"/>
    <path d="M2076.38,1137.17L2097.33,1137.17C2102.06,1137.17 2106.24,1138.03 2109.87,1139.75C2113.49,1141.47 2116.3,1143.93 2118.3,1147.12C2120.31,1150.32 2121.31,1154.09 2121.31,1158.42C2121.31,1162.75 2120.31,1166.51 2118.3,1169.71C2116.3,1172.91 2113.49,1175.37 2109.87,1177.09C2106.24,1178.81 2102.06,1179.66 2097.33,1179.66L2076.38,1179.66L2076.38,1137.17ZM2096.72,1168.5C2099.8,1168.5 2102.26,1167.61 2104.1,1165.85C2105.94,1164.09 2106.86,1161.61 2106.86,1158.42C2106.86,1155.22 2105.94,1152.74 2104.1,1150.98C2102.26,1149.22 2099.8,1148.34 2096.72,1148.34L2090.71,1148.34L2090.71,1168.5L2096.72,1168.5Z" style="fill-rule:nonzero;"/>
    <path d="M2227.74,1180.64C2223.16,1180.64 2219.05,1179.69 2215.41,1177.78C2211.77,1175.88 2208.91,1173.24 2206.85,1169.86C2204.79,1166.48 2203.75,1162.67 2203.75,1158.42C2203.75,1154.17 2204.79,1150.35 2206.85,1146.97C2208.91,1143.59 2211.77,1140.95 2215.41,1139.05C2219.05,1137.15 2223.16,1136.2 2227.74,1136.2C2232.31,1136.2 2236.42,1137.15 2240.06,1139.05C2243.7,1140.95 2246.55,1143.59 2248.62,1146.97C2250.68,1150.35 2251.72,1154.17 2251.72,1158.42C2251.72,1162.67 2250.68,1166.48 2248.62,1169.86C2246.55,1173.24 2243.7,1175.88 2240.06,1177.78C2236.42,1179.69 2232.31,1180.64 2227.74,1180.64ZM2227.74,1169.04C2229.52,1169.04 2231.12,1168.61 2232.56,1167.74C2234,1166.87 2235.14,1165.63 2235.99,1164.03C2236.84,1162.43 2237.27,1160.56 2237.27,1158.42C2237.27,1156.27 2236.84,1154.4 2235.99,1152.8C2235.14,1151.2 2234,1149.97 2232.56,1149.1C2231.12,1148.23 2229.52,1147.79 2227.74,1147.79C2225.95,1147.79 2224.35,1148.23 2222.91,1149.1C2221.47,1149.97 2220.33,1151.2 2219.48,1152.8C2218.63,1154.4 2218.2,1156.27 2218.2,1158.42C2218.2,1160.56 2218.63,1162.43 2219.48,1164.03C2220.33,1165.63 2221.47,1166.87 2222.91,1167.74C2224.35,1168.61 2225.95,1169.04 2227.74,1169.04Z" style="fill-rule:nonzero;"/>
    <path d="M2301.62,1147.97L2301.62,1155.26L2319.35,1155.26L2319.35,1166.07L2301.62,1166.07L2301.62,1179.66L2287.29,1179.66L2287.29,1137.17L2321.84,1137.17L2321.84,1147.97L2301.62,1147.97Z" style="fill-rule:nonzero;"/>
    <path d="M2422.62,1165.58L2419.4,1169.16L2419.4,1179.66L2405.31,1179.66L2405.31,1137.17L2419.4,1137.17L2419.4,1152.59L2433.36,1137.17L2448.96,1137.17L2431.97,1155.87L2449.81,1179.66L2433.24,1179.66L2422.62,1165.58Z" style="fill-rule:nonzero;"/>
    <rect x="2482.11" y="1137.17" width="14.328" height="42.497" style="fill-rule:nonzero;"/>
    <path d="M2575.61,1137.17L2575.61,1179.66L2563.83,1179.66L2547.68,1160.36L2547.68,1179.66L2533.72,1179.66L2533.72,1137.17L2545.49,1137.17L2561.64,1156.47L2561.64,1137.17L2575.61,1137.17Z" style="fill-rule:nonzero;"/>
</svg>
