<?xml version="1.0" encoding="UTF-8" standalone="no"?>
<!DOCTYPE svg PUBLIC "-//W3C//DTD SVG 1.1//EN" "http://www.w3.org/Graphics/SVG/1.1/DTD/svg11.dtd">
<svg width="100%" height="100%" viewBox="0 0 2005 2005" version="1.1" xmlns="http://www.w3.org/2000/svg" xmlns:xlink="http://www.w3.org/1999/xlink" xml:space="preserve" xmlns:serif="http://www.serif.com/" style="fill-rule:evenodd;clip-rule:evenodd;stroke-linejoin:round;stroke-miterlimit:2;">
    <rect id="Artboard2" x="0" y="-0" width="2004.74" height="2004.74" style="fill:none;"/>
    <g>
        <path d="M615.967,1681.34C582.542,1681.34 553.34,1674.78 528.361,1661.66C503.381,1648.55 484.063,1629.95 470.405,1605.87C456.748,1581.79 449.919,1553.93 449.919,1522.3L449.919,1365.42C449.919,1351.76 449.02,1341.52 447.223,1334.69C445.426,1327.86 443,1323.19 439.945,1320.67C436.89,1318.16 432.667,1316.18 427.276,1314.74C420.807,1312.59 417.572,1307.91 417.572,1300.73C417.572,1298.93 417.841,1297.22 418.381,1295.61C418.92,1293.99 419.369,1293 419.728,1292.64C432.667,1293.72 441.652,1294.26 446.684,1294.26L548.577,1294.26C555.047,1294.26 568.525,1293.72 589.011,1292.64C589.371,1293 589.91,1293.9 590.629,1295.34C591.347,1296.77 591.707,1298.39 591.707,1300.19C591.707,1307.74 586.675,1312.59 576.612,1314.74C568.704,1316.18 562.505,1318.16 558.012,1320.67C553.519,1323.19 549.835,1327.86 546.96,1334.69C544.085,1341.52 542.647,1351.76 542.647,1365.42L542.647,1516.37C542.647,1552.67 552.172,1581.61 571.22,1603.17C590.269,1624.74 615.608,1635.52 647.236,1635.52C677.067,1635.52 700.878,1624.47 718.669,1602.36C736.46,1580.26 745.355,1550.88 745.355,1514.22L745.355,1365.42C745.355,1351.76 743.918,1341.52 741.042,1334.69C738.167,1327.86 734.483,1323.19 729.99,1320.67C725.498,1318.16 719.298,1316.18 711.391,1314.74C701.327,1312.59 696.296,1307.74 696.296,1300.19C696.296,1298.39 696.655,1296.77 697.374,1295.34C698.093,1293.9 698.632,1293 698.991,1292.64C718.399,1293.72 731.877,1294.26 739.425,1294.26L771.233,1294.26C776.265,1294.26 785.25,1293.72 798.189,1292.64C798.548,1293 798.997,1293.99 799.537,1295.61C800.076,1297.22 800.345,1298.93 800.345,1300.73C800.345,1307.91 797.111,1312.59 790.641,1314.74C785.25,1316.18 781.027,1318.16 777.972,1320.67C774.917,1323.19 772.491,1327.86 770.694,1334.69C768.897,1341.52 767.998,1351.76 767.998,1365.42L767.998,1515.3C767.998,1548.36 761.798,1577.47 749.399,1602.63C736.999,1627.79 719.388,1647.2 696.565,1660.86C673.743,1674.51 646.876,1681.34 615.967,1681.34Z" style="fill-rule:nonzero;"/>
        <path d="M1186.35,1323.37C1186.35,1357.87 1189.77,1398.49 1196.6,1445.21C1193.72,1445.93 1190.49,1446.29 1186.89,1446.29C1173.95,1446.29 1166.23,1439.82 1163.71,1426.88C1157.96,1397.41 1152.66,1375.48 1147.81,1361.11C1142.95,1346.73 1137.65,1336.76 1131.9,1331.19C1126.15,1325.62 1118.07,1321.75 1107.64,1319.6C1102.97,1317.08 1089.49,1316.18 1067.21,1316.9C1062.89,1316.9 1059.75,1318.88 1057.77,1322.83C1055.8,1326.78 1054.81,1331.28 1054.81,1336.31L1054.81,1600.48C1054.81,1614.13 1056.34,1624.38 1059.39,1631.2C1062.45,1638.03 1066.58,1642.71 1071.79,1645.22C1077,1647.74 1084.1,1649.72 1093.09,1651.15C1104.23,1653.31 1109.8,1658.16 1109.8,1665.71C1109.8,1667.51 1109.44,1669.12 1108.72,1670.56C1108,1672 1107.46,1672.9 1107.1,1673.26C1084.46,1672.18 1069.18,1671.64 1061.28,1671.64L955.072,1671.64C947.165,1671.64 931.89,1672.18 909.247,1673.26C908.888,1672.9 908.348,1672 907.63,1670.56C906.911,1669.12 906.551,1667.51 906.551,1665.71C906.551,1658.16 912.122,1653.31 923.264,1651.15C932.249,1649.72 939.348,1647.74 944.559,1645.22C949.771,1642.71 953.904,1638.03 956.959,1631.2C960.014,1624.38 961.541,1614.13 961.541,1600.48L961.541,1336.31C961.541,1331.28 960.553,1326.78 958.576,1322.83C956.599,1318.88 953.455,1316.9 949.142,1316.9C925.42,1316.9 911.763,1317.8 908.169,1319.6C898.105,1321.75 890.198,1325.62 884.448,1331.19C878.697,1336.76 873.306,1346.73 868.274,1361.11C863.242,1375.48 858.031,1397.41 852.64,1426.88C850.124,1439.82 842.396,1446.29 829.458,1446.29C825.863,1446.29 822.629,1445.93 819.753,1445.21C826.582,1400.28 829.997,1360.93 829.997,1327.14L829.458,1312.59C829.098,1309.71 828.918,1305.4 828.918,1299.65C828.918,1291.02 832.872,1286.71 840.779,1286.71C844.733,1286.71 850.483,1287.25 858.031,1288.33C888.581,1292.28 923.084,1294.26 961.541,1294.26L1054.81,1294.26C1093.27,1294.26 1127.77,1292.28 1158.32,1288.33C1165.51,1287.25 1171.08,1286.71 1175.03,1286.71C1182.94,1286.71 1186.89,1290.66 1186.89,1298.57L1186.35,1323.37Z" style="fill-rule:nonzero;"/>
        <path d="M1240.8,1672.18C1236.85,1672.54 1231.46,1672.72 1224.63,1672.72C1224.27,1672.36 1223.82,1671.46 1223.28,1670.02C1222.74,1668.58 1222.47,1666.97 1222.47,1665.17C1222.47,1657.98 1226.61,1653.31 1234.87,1651.15C1241.7,1649.72 1246.91,1647.74 1250.51,1645.22C1254.1,1642.71 1257.07,1638.03 1259.4,1631.2C1261.74,1624.38 1262.91,1614.13 1262.91,1600.48L1262.91,1365.42C1262.91,1351.76 1261.74,1341.52 1259.4,1334.69C1257.07,1327.86 1254.1,1323.19 1250.51,1320.67C1246.91,1318.16 1241.7,1316.18 1234.87,1314.74C1226.61,1312.59 1222.47,1307.91 1222.47,1300.73C1222.47,1298.93 1222.74,1297.31 1223.28,1295.87C1223.82,1294.44 1224.27,1293.54 1224.63,1293.18C1231.46,1293.18 1236.85,1293.36 1240.8,1293.72L1258.06,1294.26C1271.35,1294.26 1295.26,1293.54 1329.76,1292.1C1368.58,1290.66 1393.55,1289.94 1404.7,1289.94C1438.12,1289.94 1465.62,1293.9 1487.18,1301.81C1508.75,1309.71 1524.56,1320.13 1534.62,1333.07C1544.69,1346.01 1549.72,1360.21 1549.72,1375.66C1549.72,1428.5 1517.19,1458.33 1452.14,1465.16C1492.03,1466.95 1523.48,1476.03 1546.48,1492.38C1569.49,1508.74 1580.99,1532.19 1580.99,1562.74C1580.99,1599.04 1566.16,1626.89 1536.51,1646.3C1506.86,1665.71 1463.82,1675.41 1407.39,1675.41C1386.9,1675.41 1357.97,1674.69 1320.59,1673.26C1313.05,1672.9 1304.06,1672.54 1293.64,1672.18C1283.21,1671.82 1271.53,1671.64 1258.6,1671.64L1240.8,1672.18ZM1391.76,1456.53C1411.53,1452.94 1425.9,1446.2 1434.89,1436.31C1443.87,1426.43 1448.36,1410.35 1448.36,1388.06C1448.36,1363.62 1442.97,1345.2 1432.19,1332.8C1421.41,1320.4 1408.47,1314.03 1393.37,1313.66L1371.81,1313.13C1364.98,1313.13 1360.67,1314.65 1358.87,1317.71C1357.07,1320.76 1356.17,1326.6 1356.17,1335.23L1356.17,1630.13C1356.17,1639.11 1357.43,1645.13 1359.95,1648.19C1362.46,1651.24 1367.86,1652.77 1376.12,1652.77L1394.45,1652.77C1416.74,1652.77 1435.16,1645.58 1449.71,1631.2C1464.27,1616.83 1471.55,1595.26 1471.55,1566.51C1471.55,1536.68 1465.26,1514.94 1452.68,1501.28C1440.1,1487.62 1419.07,1480.61 1389.6,1480.25L1371.27,1479.71C1370.55,1479.71 1369.74,1478.55 1368.85,1476.21C1367.95,1473.87 1367.5,1471.45 1367.5,1468.93C1367.5,1463.54 1370.01,1459.95 1375.04,1458.15L1391.76,1456.53Z" style="fill-rule:nonzero;"/>
        <path d="M452.379,1795.04C453.934,1800.42 455.679,1804.85 457.612,1808.34C459.546,1811.83 461.357,1814.43 463.046,1816.14C464.734,1817.85 466.512,1819.4 468.379,1820.77C468.246,1821.35 467.901,1821.85 467.346,1822.27C466.79,1822.7 466.046,1822.88 465.112,1822.84C459.912,1821.91 455.034,1819.17 450.479,1814.64C445.923,1810.11 442.134,1804.42 439.112,1797.57L434.779,1802.64L434.779,1810.84C434.779,1812.53 434.923,1813.8 435.212,1814.64C435.501,1815.48 435.868,1816.06 436.312,1816.37C436.757,1816.68 437.401,1816.93 438.246,1817.11C439.268,1817.37 439.779,1817.97 439.779,1818.91C439.779,1819.13 439.746,1819.33 439.679,1819.51C439.612,1819.68 439.557,1819.8 439.512,1819.84C437.512,1819.71 436.134,1819.64 435.379,1819.64L422.712,1819.64C421.957,1819.64 420.579,1819.71 418.579,1819.84C418.49,1819.8 418.412,1819.67 418.346,1819.47C418.279,1819.27 418.246,1819.06 418.246,1818.84C418.246,1817.95 418.757,1817.37 419.779,1817.11C420.623,1816.93 421.268,1816.68 421.712,1816.37C422.157,1816.06 422.523,1815.48 422.812,1814.64C423.101,1813.8 423.246,1812.53 423.246,1810.84L423.246,1781.77C423.246,1780.08 423.101,1778.82 422.812,1777.97C422.523,1777.13 422.157,1776.55 421.712,1776.24C421.268,1775.93 420.623,1775.68 419.779,1775.51C418.757,1775.24 418.246,1774.66 418.246,1773.77C418.246,1773.55 418.279,1773.34 418.346,1773.14C418.412,1772.94 418.49,1772.82 418.579,1772.77C420.579,1772.91 421.957,1772.97 422.712,1772.97L435.379,1772.97C436.134,1772.97 437.512,1772.91 439.512,1772.77C439.557,1772.82 439.612,1772.93 439.679,1773.11C439.746,1773.28 439.779,1773.48 439.779,1773.71C439.779,1774.64 439.268,1775.24 438.246,1775.51C437.401,1775.68 436.757,1775.93 436.312,1776.24C435.868,1776.55 435.501,1777.13 435.212,1777.97C434.923,1778.82 434.779,1780.08 434.779,1781.77L434.779,1798.91L449.512,1780.51C450.934,1778.77 451.646,1777.55 451.646,1776.84C451.646,1776.44 451.49,1776.16 451.179,1776.01C450.868,1775.85 450.379,1775.68 449.712,1775.51C448.69,1775.24 448.179,1774.64 448.179,1773.71C448.179,1773.48 448.212,1773.28 448.279,1773.11C448.346,1772.93 448.401,1772.82 448.446,1772.77C450.579,1772.91 451.979,1772.97 452.646,1772.97L458.179,1772.97C458.934,1772.97 460.312,1772.91 462.312,1772.77C462.401,1772.82 462.479,1772.94 462.546,1773.14C462.612,1773.34 462.646,1773.55 462.646,1773.77C462.646,1774.66 462.134,1775.24 461.112,1775.51C459.823,1775.82 458.679,1776.26 457.679,1776.84C456.679,1777.42 455.401,1778.6 453.846,1780.37L440.246,1796.24C443.046,1795.8 446.423,1794.97 450.379,1793.77C450.734,1793.68 450.957,1793.64 451.046,1793.64C451.668,1793.64 452.112,1794.11 452.379,1795.04Z" style="fill-rule:nonzero;"/>
        <path d="M537.179,1772.77C537.268,1772.82 537.346,1772.94 537.412,1773.14C537.479,1773.34 537.512,1773.55 537.512,1773.77C537.512,1774.66 537.001,1775.24 535.979,1775.51C535.134,1775.68 534.479,1775.93 534.012,1776.24C533.546,1776.55 533.168,1777.13 532.879,1777.97C532.59,1778.82 532.446,1780.08 532.446,1781.77L532.379,1819.24C532.379,1819.33 532.246,1819.44 531.979,1819.57C531.712,1819.71 531.401,1819.77 531.046,1819.77L530.846,1819.77C530.179,1819.77 529.668,1819.53 529.312,1819.04L497.979,1781.17C497.801,1781 497.623,1780.91 497.446,1780.91C497.268,1780.91 497.179,1781.06 497.179,1781.37L497.112,1810.91C497.112,1812.55 497.257,1813.81 497.546,1814.67C497.834,1815.54 498.212,1816.13 498.679,1816.44C499.146,1816.75 499.779,1817 500.579,1817.17C501.601,1817.44 502.112,1818.02 502.112,1818.91C502.112,1819.13 502.079,1819.33 502.012,1819.51C501.946,1819.68 501.89,1819.8 501.846,1819.84C501.001,1819.84 500.334,1819.82 499.846,1819.77L497.646,1819.71L493.646,1819.71L491.379,1819.77C490.934,1819.82 490.312,1819.84 489.512,1819.84C489.468,1819.8 489.401,1819.68 489.312,1819.51C489.223,1819.33 489.179,1819.13 489.179,1818.91C489.179,1818.02 489.69,1817.44 490.712,1817.17C491.557,1817 492.212,1816.75 492.679,1816.44C493.146,1816.13 493.523,1815.54 493.812,1814.67C494.101,1813.81 494.246,1812.55 494.246,1810.91L494.312,1778.11C493.823,1777.22 493.312,1776.61 492.779,1776.27C492.246,1775.94 491.557,1775.66 490.712,1775.44C489.779,1775.17 489.312,1774.6 489.312,1773.71C489.312,1773.48 489.346,1773.27 489.412,1773.07C489.479,1772.87 489.534,1772.75 489.579,1772.71C491.446,1772.84 492.734,1772.91 493.446,1772.91L504.312,1772.97C505.601,1772.97 506.534,1773.33 507.112,1774.04L528.712,1801.17C528.934,1801.44 529.134,1801.57 529.312,1801.57C529.534,1801.57 529.646,1801.4 529.646,1801.04L529.579,1781.77C529.579,1780.08 529.434,1778.82 529.146,1777.97C528.857,1777.13 528.49,1776.55 528.046,1776.24C527.601,1775.93 526.957,1775.68 526.112,1775.51C525.09,1775.24 524.579,1774.64 524.579,1773.71C524.579,1773.48 524.612,1773.28 524.679,1773.11C524.746,1772.93 524.801,1772.82 524.846,1772.77C526.979,1772.91 528.379,1772.97 529.046,1772.97L533.046,1772.97C533.801,1772.97 535.179,1772.91 537.179,1772.77ZM495.446,1780.77L495.646,1781.51L495.446,1780.77Z" style="fill-rule:nonzero;"/>
        <path d="M585.246,1820.84C580.534,1820.84 576.334,1819.83 572.646,1817.81C568.957,1815.78 566.079,1812.97 564.012,1809.37C561.946,1805.77 560.912,1801.71 560.912,1797.17C560.912,1792.42 562.112,1788.11 564.512,1784.24C566.912,1780.37 570.179,1777.34 574.312,1775.14C578.446,1772.94 583.046,1771.84 588.112,1771.84C592.912,1771.84 597.212,1772.85 601.012,1774.87C604.812,1776.9 607.768,1779.7 609.879,1783.27C611.99,1786.85 613.046,1790.88 613.046,1795.37C613.046,1800.26 611.846,1804.64 609.446,1808.51C607.046,1812.37 603.734,1815.4 599.512,1817.57C595.29,1819.75 590.534,1820.84 585.246,1820.84ZM590.246,1817.31C593.579,1817.31 596.223,1816.13 598.179,1813.77C600.134,1811.42 601.112,1808.11 601.112,1803.84C601.112,1800.33 600.312,1796.31 598.712,1791.77C597.112,1787.24 594.957,1783.37 592.246,1780.17C589.534,1776.97 586.579,1775.37 583.379,1775.37C580.09,1775.37 577.468,1776.58 575.512,1779.01C573.557,1781.43 572.579,1784.62 572.579,1788.57C572.579,1792.08 573.401,1796.13 575.046,1800.71C576.69,1805.28 578.868,1809.2 581.579,1812.44C584.29,1815.68 587.179,1817.31 590.246,1817.31Z" style="fill-rule:nonzero;"/>
        <path d="M703.646,1772.77C703.69,1772.82 703.734,1772.93 703.779,1773.11C703.823,1773.28 703.846,1773.51 703.846,1773.77C703.846,1774.66 703.446,1775.24 702.646,1775.51C701.979,1775.73 701.423,1775.98 700.979,1776.27C700.534,1776.56 700.068,1777.11 699.579,1777.91C699.09,1778.71 698.601,1779.91 698.112,1781.51L687.712,1813.77C687.623,1814.22 687.579,1814.51 687.579,1814.64C687.579,1815 687.646,1815.28 687.779,1815.51L687.912,1815.97C688.001,1816.15 688.046,1816.35 688.046,1816.57C688.046,1816.97 687.846,1817.24 687.446,1817.37L678.446,1820.57C678.179,1820.66 677.979,1820.71 677.846,1820.71C677.312,1820.71 676.957,1820.42 676.779,1819.84L668.179,1793.51L661.446,1813.84C661.268,1814.46 661.246,1814.91 661.379,1815.17L661.712,1815.97L661.846,1816.51C661.846,1816.91 661.646,1817.2 661.246,1817.37L652.246,1820.57C651.89,1820.66 651.668,1820.71 651.579,1820.71C651.09,1820.71 650.757,1820.42 650.579,1819.84L638.046,1781.51C637.512,1779.91 637.001,1778.71 636.512,1777.91C636.023,1777.11 635.557,1776.55 635.112,1776.24C634.668,1775.93 634.112,1775.68 633.446,1775.51C632.646,1775.24 632.246,1774.66 632.246,1773.77C632.246,1773.55 632.279,1773.34 632.346,1773.14C632.412,1772.94 632.468,1772.82 632.512,1772.77C634.112,1772.91 635.223,1772.97 635.846,1772.97L648.912,1772.97C649.579,1772.97 650.846,1772.91 652.712,1772.77C652.757,1772.82 652.812,1772.94 652.879,1773.14C652.946,1773.34 652.979,1773.55 652.979,1773.77C652.979,1774.66 652.512,1775.24 651.579,1775.51C650.823,1775.73 650.279,1775.97 649.946,1776.24C649.612,1776.51 649.446,1777.04 649.446,1777.84C649.446,1778.77 649.69,1780 650.179,1781.51L659.246,1809.31C659.334,1809.53 659.446,1809.64 659.579,1809.64C659.757,1809.64 659.912,1809.53 660.046,1809.31L666.112,1790.77C666.334,1790.11 666.446,1789.55 666.446,1789.11C666.446,1788.57 666.29,1787.86 665.979,1786.97L666.112,1787.11L664.246,1781.51C663.757,1779.91 663.246,1778.71 662.712,1777.91C662.179,1777.11 661.668,1776.55 661.179,1776.24C660.69,1775.93 660.046,1775.68 659.246,1775.51C658.312,1775.24 657.846,1774.64 657.846,1773.71C657.846,1773.48 657.879,1773.28 657.946,1773.11C658.012,1772.93 658.068,1772.82 658.112,1772.77C659.979,1772.91 661.268,1772.97 661.979,1772.97L675.246,1772.97C676.134,1772.97 677.712,1772.91 679.979,1772.77C680.068,1772.82 680.146,1772.94 680.212,1773.14C680.279,1773.34 680.312,1773.55 680.312,1773.77C680.312,1774.66 679.734,1775.24 678.579,1775.51C677.601,1775.73 676.879,1776.01 676.412,1776.34C675.946,1776.67 675.712,1777.28 675.712,1778.17C675.712,1779.02 675.934,1780.13 676.379,1781.51L685.379,1809.24C685.423,1809.55 685.557,1809.71 685.779,1809.71C685.957,1809.71 686.112,1809.57 686.246,1809.31L695.179,1781.51C695.623,1780.17 695.846,1779.08 695.846,1778.24C695.846,1777.31 695.601,1776.67 695.112,1776.34C694.623,1776.01 693.846,1775.73 692.779,1775.51C691.579,1775.24 690.979,1774.64 690.979,1773.71C690.979,1773.48 691.012,1773.28 691.079,1773.11C691.146,1772.93 691.201,1772.82 691.246,1772.77C693.779,1772.91 695.446,1772.97 696.246,1772.97L700.312,1772.97C700.801,1772.97 701.912,1772.91 703.646,1772.77Z" style="fill-rule:nonzero;"/>
        <path d="M730.979,1819.64C730.223,1819.64 728.846,1819.71 726.846,1819.84C726.757,1819.8 726.679,1819.67 726.612,1819.47C726.546,1819.27 726.512,1819.06 726.512,1818.84C726.512,1817.95 727.023,1817.37 728.046,1817.11C728.89,1816.93 729.534,1816.68 729.979,1816.37C730.423,1816.06 730.79,1815.48 731.079,1814.64C731.368,1813.8 731.512,1812.53 731.512,1810.84L731.512,1781.77C731.512,1780.08 731.368,1778.82 731.079,1777.97C730.79,1777.13 730.423,1776.55 729.979,1776.24C729.534,1775.93 728.89,1775.68 728.046,1775.51C727.023,1775.24 726.512,1774.66 726.512,1773.77C726.512,1773.55 726.546,1773.34 726.612,1773.14C726.679,1772.94 726.757,1772.82 726.846,1772.77C728.846,1772.91 730.223,1772.97 730.979,1772.97L743.646,1772.97C744.401,1772.97 745.846,1772.91 747.979,1772.77C748.068,1772.82 748.146,1772.94 748.212,1773.14C748.279,1773.34 748.312,1773.55 748.312,1773.77C748.312,1774.66 747.779,1775.24 746.712,1775.51C745.823,1775.68 745.134,1775.93 744.646,1776.24C744.157,1776.55 743.757,1777.13 743.446,1777.97C743.134,1778.82 742.979,1780.08 742.979,1781.77L742.979,1815.11C742.979,1816.26 743.534,1816.84 744.646,1816.84C748.29,1816.88 751.068,1816.74 752.979,1816.41C754.89,1816.07 756.268,1815.4 757.112,1814.37C757.734,1813.62 758.279,1812.47 758.746,1810.94C759.212,1809.41 759.69,1807.11 760.179,1804.04C760.401,1802.8 760.868,1801.92 761.579,1801.41C762.29,1800.9 763.068,1800.64 763.912,1800.64C764.312,1800.64 764.668,1800.68 764.979,1800.77C765.29,1800.86 765.446,1800.95 765.446,1801.04C764.646,1806.28 764.246,1811.15 764.246,1815.64L764.312,1818.97C764.312,1820.04 763.823,1820.57 762.846,1820.57C762.446,1820.57 761.801,1820.51 760.912,1820.37C757.357,1819.88 753.69,1819.64 749.912,1819.64L730.979,1819.64Z" style="fill-rule:nonzero;"/>
        <path d="M794.179,1819.64C793.423,1819.64 792.046,1819.71 790.046,1819.84C789.957,1819.8 789.879,1819.67 789.812,1819.47C789.746,1819.27 789.712,1819.06 789.712,1818.84C789.712,1817.95 790.223,1817.37 791.246,1817.11C792.09,1816.93 792.734,1816.68 793.179,1816.37C793.623,1816.06 793.99,1815.48 794.279,1814.64C794.568,1813.8 794.712,1812.53 794.712,1810.84L794.712,1781.77C794.712,1780.08 794.568,1778.82 794.279,1777.97C793.99,1777.13 793.623,1776.55 793.179,1776.24C792.734,1775.93 792.09,1775.68 791.246,1775.51C790.223,1775.24 789.712,1774.66 789.712,1773.77C789.712,1773.55 789.746,1773.34 789.812,1773.14C789.879,1772.94 789.957,1772.82 790.046,1772.77C792.046,1772.91 793.423,1772.97 794.179,1772.97L814.379,1772.97C817.134,1772.97 820.068,1772.75 823.179,1772.31C824.423,1772.13 825.179,1772.04 825.446,1772.04C826.023,1772.04 826.457,1772.17 826.746,1772.44C827.034,1772.71 827.157,1773.17 827.112,1773.84C827.023,1774.68 826.979,1776 826.979,1777.77C826.979,1781.33 827.334,1785.15 828.046,1789.24C826.934,1789.33 825.946,1789.2 825.079,1788.84C824.212,1788.48 823.69,1787.82 823.512,1786.84C823.068,1783.77 822.634,1781.53 822.212,1780.11C821.79,1778.68 821.246,1777.71 820.579,1777.17C819.868,1776.55 818.701,1776.16 817.079,1776.01C815.457,1775.85 812.534,1775.77 808.312,1775.77C806.89,1775.77 806.179,1776.57 806.179,1778.17L806.179,1791.64C806.179,1792.17 806.29,1792.64 806.512,1793.04C806.734,1793.44 807.112,1793.64 807.646,1793.64C809.468,1793.64 811.023,1793.57 812.312,1793.44C813.157,1793.35 813.779,1793.2 814.179,1792.97C814.579,1792.75 814.901,1792.34 815.146,1791.74C815.39,1791.14 815.69,1790.08 816.046,1788.57C816.268,1787.64 816.868,1787.17 817.846,1787.17C818.29,1787.17 818.712,1787.26 819.112,1787.44C818.846,1789.17 818.712,1791.13 818.712,1793.31C818.712,1796.46 818.957,1799.71 819.446,1803.04L818.712,1803.11C817.423,1803.11 816.668,1802.68 816.446,1801.84C815.957,1800.15 815.579,1798.98 815.312,1798.34C815.046,1797.7 814.712,1797.26 814.312,1797.04C813.912,1796.82 813.29,1796.66 812.446,1796.57C811.201,1796.48 809.601,1796.44 807.646,1796.44C807.112,1796.44 806.734,1796.64 806.512,1797.04C806.29,1797.44 806.179,1797.91 806.179,1798.44L806.179,1814.24C806.179,1815.13 806.268,1815.74 806.446,1816.07C806.623,1816.41 806.901,1816.62 807.279,1816.71C807.657,1816.8 808.334,1816.84 809.312,1816.84C813.223,1816.84 816.023,1816.76 817.712,1816.61C819.401,1816.45 820.646,1816.11 821.446,1815.57C822.201,1815.04 822.812,1814.12 823.279,1812.81C823.746,1811.5 824.268,1809.06 824.846,1805.51C825.023,1804.66 825.468,1804.06 826.179,1803.71C826.89,1803.35 827.668,1803.17 828.512,1803.17C828.868,1803.17 829.157,1803.2 829.379,1803.24C829.601,1803.28 829.734,1803.33 829.779,1803.37C829.112,1807.82 828.779,1811.84 828.779,1815.44L828.846,1818.77C828.846,1819.35 828.701,1819.8 828.412,1820.11C828.123,1820.42 827.757,1820.57 827.312,1820.57C826.912,1820.57 826.334,1820.51 825.579,1820.37C822.29,1819.88 818.69,1819.64 814.779,1819.64L794.179,1819.64Z" style="fill-rule:nonzero;"/>
        <path d="M875.979,1820.17C873.623,1820.17 870.401,1820.08 866.312,1819.91C862.757,1819.73 860.357,1819.64 859.112,1819.64L854.379,1819.84C854.334,1819.8 854.279,1819.68 854.212,1819.51C854.146,1819.33 854.112,1819.13 854.112,1818.91C854.112,1817.97 854.623,1817.37 855.646,1817.11C856.49,1816.93 857.134,1816.68 857.579,1816.37C858.023,1816.06 858.39,1815.48 858.679,1814.64C858.968,1813.8 859.112,1812.53 859.112,1810.84L859.112,1781.77C859.112,1780.08 858.968,1778.82 858.679,1777.97C858.39,1777.13 858.023,1776.55 857.579,1776.24C857.134,1775.93 856.49,1775.68 855.646,1775.51C854.623,1775.24 854.112,1774.66 854.112,1773.77C854.112,1773.55 854.146,1773.35 854.212,1773.17C854.279,1773 854.334,1772.88 854.379,1772.84C855.579,1772.84 856.979,1772.88 858.579,1772.97C859.734,1772.97 860.979,1772.95 862.312,1772.91C863.646,1772.86 864.957,1772.82 866.246,1772.77C870.779,1772.6 873.868,1772.51 875.512,1772.51C880.801,1772.51 885.401,1773.4 889.312,1775.17C893.223,1776.95 896.246,1779.55 898.379,1782.97C900.512,1786.4 901.579,1790.51 901.579,1795.31C901.579,1800.2 900.546,1804.52 898.479,1808.27C896.412,1812.03 893.446,1814.95 889.579,1817.04C885.712,1819.13 881.179,1820.17 875.979,1820.17ZM874.579,1817.31C879.379,1817.31 883.034,1815.56 885.546,1812.07C888.057,1808.58 889.334,1803.84 889.379,1797.84C889.423,1793.53 888.846,1789.67 887.646,1786.27C886.446,1782.87 884.623,1780.2 882.179,1778.24C879.734,1776.28 876.757,1775.31 873.246,1775.31C872.179,1775.31 871.468,1775.5 871.112,1775.87C870.757,1776.25 870.579,1776.86 870.579,1777.71L870.646,1814.71C870.646,1815.77 870.901,1816.47 871.412,1816.81C871.923,1817.14 872.979,1817.31 874.579,1817.31Z" style="fill-rule:nonzero;"/>
        <path d="M949.646,1820.84C945.379,1820.84 941.446,1819.86 937.846,1817.91C934.246,1815.95 931.368,1813.18 929.212,1809.61C927.057,1806.03 925.979,1801.91 925.979,1797.24C925.979,1792.66 927.101,1788.43 929.346,1784.54C931.59,1780.65 934.668,1777.56 938.579,1775.27C942.49,1772.98 946.823,1771.84 951.579,1771.84C954.512,1771.84 957.268,1772.23 959.846,1773.01C962.423,1773.78 964.479,1774.83 966.012,1776.14C967.546,1777.45 968.312,1778.91 968.312,1780.51C968.312,1781.13 968.223,1781.68 968.046,1782.17L964.179,1793.37C963.868,1793.46 963.534,1793.51 963.179,1793.51C961.357,1793.51 960.401,1792.6 960.312,1790.77C960.401,1787.4 959.934,1784.57 958.912,1782.31C957.979,1780.17 956.634,1778.48 954.879,1777.24C953.123,1776 951.09,1775.37 948.779,1775.37C945.179,1775.37 942.368,1776.64 940.346,1779.17C938.323,1781.71 937.312,1785.2 937.312,1789.64C937.312,1794.31 938.19,1798.65 939.946,1802.67C941.701,1806.7 943.979,1809.9 946.779,1812.27C949.579,1814.65 952.401,1815.84 955.246,1815.84C957.468,1815.84 959.257,1815.37 960.612,1814.44C961.968,1813.51 962.734,1812.44 962.912,1811.24C963.001,1810.13 962.923,1809.08 962.679,1808.11C962.434,1807.13 961.979,1805.77 961.312,1804.04C960.779,1803.37 959.968,1802.86 958.879,1802.51C957.79,1802.15 956.068,1801.84 953.712,1801.57C952.246,1801.17 951.512,1800.28 951.512,1798.91C951.512,1798.46 951.59,1798.04 951.746,1797.64C951.901,1797.24 952.09,1796.95 952.312,1796.77C955.646,1797 958.712,1797.11 961.512,1797.11C964.357,1797.11 967.157,1797 969.912,1796.77C970.534,1796.73 970.99,1796.9 971.279,1797.27C971.568,1797.65 971.712,1798.13 971.712,1798.71C971.712,1799.02 971.668,1799.45 971.579,1800.01C971.49,1800.56 971.379,1801.35 971.246,1802.37C971.023,1804.91 970.912,1807.44 970.912,1809.97C970.912,1810.42 970.857,1810.77 970.746,1811.04C970.634,1811.31 970.423,1811.62 970.112,1811.97C967.534,1815 964.479,1817.23 960.946,1818.67C957.412,1820.12 953.646,1820.84 949.646,1820.84Z" style="fill-rule:nonzero;"/>
        <path d="M999.779,1819.64C999.023,1819.64 997.646,1819.71 995.646,1819.84C995.557,1819.8 995.479,1819.67 995.412,1819.47C995.346,1819.27 995.312,1819.06 995.312,1818.84C995.312,1817.95 995.823,1817.37 996.846,1817.11C997.69,1816.93 998.334,1816.68 998.779,1816.37C999.223,1816.06 999.59,1815.48 999.879,1814.64C1000.17,1813.8 1000.31,1812.53 1000.31,1810.84L1000.31,1781.77C1000.31,1780.08 1000.17,1778.82 999.879,1777.97C999.59,1777.13 999.223,1776.55 998.779,1776.24C998.334,1775.93 997.69,1775.68 996.846,1775.51C995.823,1775.24 995.312,1774.66 995.312,1773.77C995.312,1773.55 995.346,1773.34 995.412,1773.14C995.479,1772.94 995.557,1772.82 995.646,1772.77C997.646,1772.91 999.023,1772.97 999.779,1772.97L1019.98,1772.97C1022.73,1772.97 1025.67,1772.75 1028.78,1772.31C1030.02,1772.13 1030.78,1772.04 1031.05,1772.04C1031.62,1772.04 1032.06,1772.17 1032.35,1772.44C1032.63,1772.71 1032.76,1773.17 1032.71,1773.84C1032.62,1774.68 1032.58,1776 1032.58,1777.77C1032.58,1781.33 1032.93,1785.15 1033.65,1789.24C1032.53,1789.33 1031.55,1789.2 1030.68,1788.84C1029.81,1788.48 1029.29,1787.82 1029.11,1786.84C1028.67,1783.77 1028.23,1781.53 1027.81,1780.11C1027.39,1778.68 1026.85,1777.71 1026.18,1777.17C1025.47,1776.55 1024.3,1776.16 1022.68,1776.01C1021.06,1775.85 1018.13,1775.77 1013.91,1775.77C1012.49,1775.77 1011.78,1776.57 1011.78,1778.17L1011.78,1791.64C1011.78,1792.17 1011.89,1792.64 1012.11,1793.04C1012.33,1793.44 1012.71,1793.64 1013.25,1793.64C1015.07,1793.64 1016.62,1793.57 1017.91,1793.44C1018.76,1793.35 1019.38,1793.2 1019.78,1792.97C1020.18,1792.75 1020.5,1792.34 1020.75,1791.74C1020.99,1791.14 1021.29,1790.08 1021.65,1788.57C1021.87,1787.64 1022.47,1787.17 1023.45,1787.17C1023.89,1787.17 1024.31,1787.26 1024.71,1787.44C1024.45,1789.17 1024.31,1791.13 1024.31,1793.31C1024.31,1796.46 1024.56,1799.71 1025.05,1803.04L1024.31,1803.11C1023.02,1803.11 1022.27,1802.68 1022.05,1801.84C1021.56,1800.15 1021.18,1798.98 1020.91,1798.34C1020.65,1797.7 1020.31,1797.26 1019.91,1797.04C1019.51,1796.82 1018.89,1796.66 1018.05,1796.57C1016.8,1796.48 1015.2,1796.44 1013.25,1796.44C1012.71,1796.44 1012.33,1796.64 1012.11,1797.04C1011.89,1797.44 1011.78,1797.91 1011.78,1798.44L1011.78,1814.24C1011.78,1815.13 1011.87,1815.74 1012.05,1816.07C1012.22,1816.41 1012.5,1816.62 1012.88,1816.71C1013.26,1816.8 1013.93,1816.84 1014.91,1816.84C1018.82,1816.84 1021.62,1816.76 1023.31,1816.61C1025,1816.45 1026.25,1816.11 1027.05,1815.57C1027.8,1815.04 1028.41,1814.12 1028.88,1812.81C1029.35,1811.5 1029.87,1809.06 1030.45,1805.51C1030.62,1804.66 1031.07,1804.06 1031.78,1803.71C1032.49,1803.35 1033.27,1803.17 1034.11,1803.17C1034.47,1803.17 1034.76,1803.2 1034.98,1803.24C1035.2,1803.28 1035.33,1803.33 1035.38,1803.37C1034.71,1807.82 1034.38,1811.84 1034.38,1815.44L1034.45,1818.77C1034.45,1819.35 1034.3,1819.8 1034.01,1820.11C1033.72,1820.42 1033.36,1820.57 1032.91,1820.57C1032.51,1820.57 1031.93,1820.51 1031.18,1820.37C1027.89,1819.88 1024.29,1819.64 1020.38,1819.64L999.779,1819.64Z" style="fill-rule:nonzero;"/>
        <path d="M1101.65,1781.77C1101.65,1780.08 1101.5,1778.82 1101.21,1777.97C1100.92,1777.13 1100.56,1776.55 1100.11,1776.24C1099.67,1775.93 1099.02,1775.68 1098.18,1775.51C1097.16,1775.24 1096.65,1774.66 1096.65,1773.77C1096.65,1773.55 1096.68,1773.34 1096.75,1773.14C1096.81,1772.94 1096.89,1772.82 1096.98,1772.77C1098.98,1772.91 1100.36,1772.97 1101.11,1772.97L1113.78,1772.97C1114.53,1772.97 1115.91,1772.91 1117.91,1772.77C1117.96,1772.82 1118.01,1772.93 1118.08,1773.11C1118.15,1773.28 1118.18,1773.48 1118.18,1773.71C1118.18,1774.64 1117.67,1775.24 1116.65,1775.51C1115.8,1775.68 1115.16,1775.93 1114.71,1776.24C1114.27,1776.55 1113.9,1777.13 1113.61,1777.97C1113.32,1778.82 1113.18,1780.08 1113.18,1781.77L1113.18,1810.84C1113.18,1812.53 1113.32,1813.8 1113.61,1814.64C1113.9,1815.48 1114.27,1816.06 1114.71,1816.37C1115.16,1816.68 1115.8,1816.93 1116.65,1817.11C1117.67,1817.37 1118.18,1817.97 1118.18,1818.91C1118.18,1819.13 1118.15,1819.33 1118.08,1819.51C1118.01,1819.68 1117.96,1819.8 1117.91,1819.84C1115.91,1819.71 1114.53,1819.64 1113.78,1819.64L1101.11,1819.64C1100.36,1819.64 1098.98,1819.71 1096.98,1819.84C1096.89,1819.8 1096.81,1819.67 1096.75,1819.47C1096.68,1819.27 1096.65,1819.06 1096.65,1818.84C1096.65,1817.95 1097.16,1817.37 1098.18,1817.11C1099.02,1816.93 1099.67,1816.68 1100.11,1816.37C1100.56,1816.06 1100.92,1815.48 1101.21,1814.64C1101.5,1813.8 1101.65,1812.53 1101.65,1810.84L1101.65,1781.77Z" style="fill-rule:nonzero;"/>
        <path d="M1147.98,1799.97C1148.6,1799.93 1149.12,1800.1 1149.55,1800.47C1149.97,1800.85 1150.18,1801.48 1150.18,1802.37C1150.13,1802.95 1150.11,1803.75 1150.11,1804.77C1150.11,1809.35 1150.98,1812.68 1152.71,1814.77C1154.45,1816.86 1157.2,1817.91 1160.98,1817.91C1163.29,1817.91 1165.3,1817.33 1167.01,1816.17C1168.72,1815.02 1169.58,1813.17 1169.58,1810.64C1169.58,1808.51 1168.79,1806.62 1167.21,1804.97C1165.63,1803.33 1163.27,1801.53 1160.11,1799.57C1156.87,1797.48 1154.29,1795.72 1152.38,1794.27C1150.47,1792.83 1148.92,1791.28 1147.75,1789.64C1146.57,1788 1145.98,1786.24 1145.98,1784.37C1145.98,1782.02 1146.75,1779.88 1148.28,1777.97C1149.81,1776.06 1152,1774.56 1154.85,1773.47C1157.69,1772.38 1161,1771.84 1164.78,1771.84C1167.13,1771.84 1169.51,1772.13 1171.91,1772.71C1174.31,1773.28 1176.3,1774.1 1177.88,1775.14C1179.46,1776.18 1180.25,1777.35 1180.25,1778.64C1180.25,1778.82 1180.2,1779.13 1180.11,1779.57L1176.78,1790.37C1176.07,1790.46 1175.48,1790.34 1175.01,1790.01C1174.55,1789.67 1174.31,1789.04 1174.31,1788.11C1174.36,1787.57 1174.38,1786.82 1174.38,1785.84C1174.38,1781.93 1173.6,1779.11 1172.05,1777.37C1170.49,1775.64 1168.13,1774.77 1164.98,1774.77C1162.62,1774.77 1160.8,1775.26 1159.51,1776.24C1158.22,1777.22 1157.58,1778.51 1157.58,1780.11C1157.58,1781.53 1157.91,1782.74 1158.58,1783.74C1159.25,1784.74 1160.13,1785.64 1161.25,1786.44C1162.36,1787.24 1164.2,1788.46 1166.78,1790.11C1170.07,1792.15 1172.67,1793.91 1174.58,1795.37C1176.49,1796.84 1178.06,1798.51 1179.28,1800.37C1180.5,1802.24 1181.11,1804.35 1181.11,1806.71C1181.11,1809.6 1180.3,1812.11 1178.68,1814.24C1177.06,1816.37 1174.71,1818.01 1171.65,1819.14C1168.58,1820.27 1164.93,1820.84 1160.71,1820.84C1157.91,1820.84 1155.22,1820.46 1152.65,1819.71C1150.07,1818.95 1147.99,1817.95 1146.41,1816.71C1144.83,1815.46 1144.05,1814.17 1144.05,1812.84C1144.05,1812.62 1144.09,1812.33 1144.18,1811.97L1147.98,1799.97Z" style="fill-rule:nonzero;"/>
        <path d="M1260.98,1800.37C1260.67,1799.66 1260.51,1799.11 1260.51,1798.71C1260.51,1798.04 1260.82,1797.68 1261.45,1797.64L1263.51,1797.64C1266.71,1797.55 1269.07,1796.65 1270.58,1794.94C1272.09,1793.23 1272.85,1790.53 1272.85,1786.84C1272.85,1784.8 1272.48,1782.9 1271.75,1781.14C1271.01,1779.38 1269.97,1777.97 1268.61,1776.91C1267.26,1775.84 1265.67,1775.31 1263.85,1775.31L1261.38,1775.31C1260.49,1775.31 1259.89,1775.47 1259.58,1775.81C1259.27,1776.14 1259.11,1776.84 1259.11,1777.91L1259.11,1810.84C1259.11,1812.53 1259.3,1813.8 1259.68,1814.64C1260.06,1815.48 1260.55,1816.06 1261.15,1816.37C1261.75,1816.68 1262.58,1816.93 1263.65,1817.11C1264.98,1817.37 1265.65,1817.97 1265.65,1818.91C1265.65,1819.13 1265.6,1819.33 1265.51,1819.51C1265.42,1819.68 1265.36,1819.8 1265.31,1819.84C1262.65,1819.71 1260.85,1819.64 1259.91,1819.64L1247.05,1819.64C1246.29,1819.64 1244.91,1819.71 1242.91,1819.84C1242.82,1819.8 1242.75,1819.67 1242.68,1819.47C1242.61,1819.27 1242.58,1819.06 1242.58,1818.84C1242.58,1817.95 1243.09,1817.37 1244.11,1817.11C1244.96,1816.93 1245.6,1816.68 1246.05,1816.37C1246.49,1816.06 1246.86,1815.48 1247.15,1814.64C1247.43,1813.8 1247.58,1812.53 1247.58,1810.84L1247.58,1781.77C1247.58,1780.08 1247.43,1778.82 1247.15,1777.97C1246.86,1777.13 1246.49,1776.55 1246.05,1776.24C1245.6,1775.93 1244.96,1775.68 1244.11,1775.51C1243.09,1775.24 1242.58,1774.66 1242.58,1773.77C1242.58,1773.55 1242.61,1773.35 1242.68,1773.17C1242.75,1773 1242.8,1772.88 1242.85,1772.84C1243.69,1772.84 1244.36,1772.86 1244.85,1772.91L1247.05,1772.97C1248.65,1772.97 1250.08,1772.95 1251.35,1772.91C1252.61,1772.86 1253.67,1772.82 1254.51,1772.77C1259.13,1772.6 1262.69,1772.51 1265.18,1772.51C1278.6,1772.51 1285.31,1777.15 1285.31,1786.44C1285.31,1790.8 1283.79,1794.24 1280.75,1796.77C1277.7,1799.31 1273.02,1800.57 1266.71,1800.57C1265.56,1800.57 1264.69,1800.55 1264.11,1800.51L1260.98,1800.37Z" style="fill-rule:nonzero;"/>
        <path d="M1333.11,1820.84C1328.4,1820.84 1324.2,1819.83 1320.51,1817.81C1316.82,1815.78 1313.95,1812.97 1311.88,1809.37C1309.81,1805.77 1308.78,1801.71 1308.78,1797.17C1308.78,1792.42 1309.98,1788.11 1312.38,1784.24C1314.78,1780.37 1318.05,1777.34 1322.18,1775.14C1326.31,1772.94 1330.91,1771.84 1335.98,1771.84C1340.78,1771.84 1345.08,1772.85 1348.88,1774.87C1352.68,1776.9 1355.63,1779.7 1357.75,1783.27C1359.86,1786.85 1360.91,1790.88 1360.91,1795.37C1360.91,1800.26 1359.71,1804.64 1357.31,1808.51C1354.91,1812.37 1351.6,1815.4 1347.38,1817.57C1343.16,1819.75 1338.4,1820.84 1333.11,1820.84ZM1338.11,1817.31C1341.45,1817.31 1344.09,1816.13 1346.05,1813.77C1348,1811.42 1348.98,1808.11 1348.98,1803.84C1348.98,1800.33 1348.18,1796.31 1346.58,1791.77C1344.98,1787.24 1342.82,1783.37 1340.11,1780.17C1337.4,1776.97 1334.45,1775.37 1331.25,1775.37C1327.96,1775.37 1325.33,1776.58 1323.38,1779.01C1321.42,1781.43 1320.45,1784.62 1320.45,1788.57C1320.45,1792.08 1321.27,1796.13 1322.91,1800.71C1324.56,1805.28 1326.73,1809.2 1329.45,1812.44C1332.16,1815.68 1335.05,1817.31 1338.11,1817.31Z" style="fill-rule:nonzero;"/>
        <path d="M1451.51,1772.77C1451.56,1772.82 1451.6,1772.93 1451.65,1773.11C1451.69,1773.28 1451.71,1773.51 1451.71,1773.77C1451.71,1774.66 1451.31,1775.24 1450.51,1775.51C1449.85,1775.73 1449.29,1775.98 1448.85,1776.27C1448.4,1776.56 1447.93,1777.11 1447.45,1777.91C1446.96,1778.71 1446.47,1779.91 1445.98,1781.51L1435.58,1813.77C1435.49,1814.22 1435.45,1814.51 1435.45,1814.64C1435.45,1815 1435.51,1815.28 1435.65,1815.51L1435.78,1815.97C1435.87,1816.15 1435.91,1816.35 1435.91,1816.57C1435.91,1816.97 1435.71,1817.24 1435.31,1817.37L1426.31,1820.57C1426.05,1820.66 1425.85,1820.71 1425.71,1820.71C1425.18,1820.71 1424.82,1820.42 1424.65,1819.84L1416.05,1793.51L1409.31,1813.84C1409.13,1814.46 1409.11,1814.91 1409.25,1815.17L1409.58,1815.97L1409.71,1816.51C1409.71,1816.91 1409.51,1817.2 1409.11,1817.37L1400.11,1820.57C1399.76,1820.66 1399.53,1820.71 1399.45,1820.71C1398.96,1820.71 1398.62,1820.42 1398.45,1819.84L1385.91,1781.51C1385.38,1779.91 1384.87,1778.71 1384.38,1777.91C1383.89,1777.11 1383.42,1776.55 1382.98,1776.24C1382.53,1775.93 1381.98,1775.68 1381.31,1775.51C1380.51,1775.24 1380.11,1774.66 1380.11,1773.77C1380.11,1773.55 1380.15,1773.34 1380.21,1773.14C1380.28,1772.94 1380.33,1772.82 1380.38,1772.77C1381.98,1772.91 1383.09,1772.97 1383.71,1772.97L1396.78,1772.97C1397.45,1772.97 1398.71,1772.91 1400.58,1772.77C1400.62,1772.82 1400.68,1772.94 1400.75,1773.14C1400.81,1773.34 1400.85,1773.55 1400.85,1773.77C1400.85,1774.66 1400.38,1775.24 1399.45,1775.51C1398.69,1775.73 1398.15,1775.97 1397.81,1776.24C1397.48,1776.51 1397.31,1777.04 1397.31,1777.84C1397.31,1778.77 1397.56,1780 1398.05,1781.51L1407.11,1809.31C1407.2,1809.53 1407.31,1809.64 1407.45,1809.64C1407.62,1809.64 1407.78,1809.53 1407.91,1809.31L1413.98,1790.77C1414.2,1790.11 1414.31,1789.55 1414.31,1789.11C1414.31,1788.57 1414.16,1787.86 1413.85,1786.97L1413.98,1787.11L1412.11,1781.51C1411.62,1779.91 1411.11,1778.71 1410.58,1777.91C1410.05,1777.11 1409.53,1776.55 1409.05,1776.24C1408.56,1775.93 1407.91,1775.68 1407.11,1775.51C1406.18,1775.24 1405.71,1774.64 1405.71,1773.71C1405.71,1773.48 1405.75,1773.28 1405.81,1773.11C1405.88,1772.93 1405.93,1772.82 1405.98,1772.77C1407.85,1772.91 1409.13,1772.97 1409.85,1772.97L1423.11,1772.97C1424,1772.97 1425.58,1772.91 1427.85,1772.77C1427.93,1772.82 1428.01,1772.94 1428.08,1773.14C1428.15,1773.34 1428.18,1773.55 1428.18,1773.77C1428.18,1774.66 1427.6,1775.24 1426.45,1775.51C1425.47,1775.73 1424.75,1776.01 1424.28,1776.34C1423.81,1776.67 1423.58,1777.28 1423.58,1778.17C1423.58,1779.02 1423.8,1780.13 1424.25,1781.51L1433.25,1809.24C1433.29,1809.55 1433.42,1809.71 1433.65,1809.71C1433.82,1809.71 1433.98,1809.57 1434.11,1809.31L1443.05,1781.51C1443.49,1780.17 1443.71,1779.08 1443.71,1778.24C1443.71,1777.31 1443.47,1776.67 1442.98,1776.34C1442.49,1776.01 1441.71,1775.73 1440.65,1775.51C1439.45,1775.24 1438.85,1774.64 1438.85,1773.71C1438.85,1773.48 1438.88,1773.28 1438.95,1773.11C1439.01,1772.93 1439.07,1772.82 1439.11,1772.77C1441.65,1772.91 1443.31,1772.97 1444.11,1772.97L1448.18,1772.97C1448.67,1772.97 1449.78,1772.91 1451.51,1772.77Z" style="fill-rule:nonzero;"/>
        <path d="M1478.85,1819.64C1478.09,1819.64 1476.71,1819.71 1474.71,1819.84C1474.62,1819.8 1474.55,1819.67 1474.48,1819.47C1474.41,1819.27 1474.38,1819.06 1474.38,1818.84C1474.38,1817.95 1474.89,1817.37 1475.91,1817.11C1476.76,1816.93 1477.4,1816.68 1477.85,1816.37C1478.29,1816.06 1478.66,1815.48 1478.95,1814.64C1479.23,1813.8 1479.38,1812.53 1479.38,1810.84L1479.38,1781.77C1479.38,1780.08 1479.23,1778.82 1478.95,1777.97C1478.66,1777.13 1478.29,1776.55 1477.85,1776.24C1477.4,1775.93 1476.76,1775.68 1475.91,1775.51C1474.89,1775.24 1474.38,1774.66 1474.38,1773.77C1474.38,1773.55 1474.41,1773.34 1474.48,1773.14C1474.55,1772.94 1474.62,1772.82 1474.71,1772.77C1476.71,1772.91 1478.09,1772.97 1478.85,1772.97L1499.05,1772.97C1501.8,1772.97 1504.73,1772.75 1507.85,1772.31C1509.09,1772.13 1509.85,1772.04 1510.11,1772.04C1510.69,1772.04 1511.12,1772.17 1511.41,1772.44C1511.7,1772.71 1511.82,1773.17 1511.78,1773.84C1511.69,1774.68 1511.65,1776 1511.65,1777.77C1511.65,1781.33 1512,1785.15 1512.71,1789.24C1511.6,1789.33 1510.61,1789.2 1509.75,1788.84C1508.88,1788.48 1508.36,1787.82 1508.18,1786.84C1507.73,1783.77 1507.3,1781.53 1506.88,1780.11C1506.46,1778.68 1505.91,1777.71 1505.25,1777.17C1504.53,1776.55 1503.37,1776.16 1501.75,1776.01C1500.12,1775.85 1497.2,1775.77 1492.98,1775.77C1491.56,1775.77 1490.85,1776.57 1490.85,1778.17L1490.85,1791.64C1490.85,1792.17 1490.96,1792.64 1491.18,1793.04C1491.4,1793.44 1491.78,1793.64 1492.31,1793.64C1494.13,1793.64 1495.69,1793.57 1496.98,1793.44C1497.82,1793.35 1498.45,1793.2 1498.85,1792.97C1499.25,1792.75 1499.57,1792.34 1499.81,1791.74C1500.06,1791.14 1500.36,1790.08 1500.71,1788.57C1500.93,1787.64 1501.53,1787.17 1502.51,1787.17C1502.96,1787.17 1503.38,1787.26 1503.78,1787.44C1503.51,1789.17 1503.38,1791.13 1503.38,1793.31C1503.38,1796.46 1503.62,1799.71 1504.11,1803.04L1503.38,1803.11C1502.09,1803.11 1501.33,1802.68 1501.11,1801.84C1500.62,1800.15 1500.25,1798.98 1499.98,1798.34C1499.71,1797.7 1499.38,1797.26 1498.98,1797.04C1498.58,1796.82 1497.96,1796.66 1497.11,1796.57C1495.87,1796.48 1494.27,1796.44 1492.31,1796.44C1491.78,1796.44 1491.4,1796.64 1491.18,1797.04C1490.96,1797.44 1490.85,1797.91 1490.85,1798.44L1490.85,1814.24C1490.85,1815.13 1490.93,1815.74 1491.11,1816.07C1491.29,1816.41 1491.57,1816.62 1491.95,1816.71C1492.32,1816.8 1493,1816.84 1493.98,1816.84C1497.89,1816.84 1500.69,1816.76 1502.38,1816.61C1504.07,1816.45 1505.31,1816.11 1506.11,1815.57C1506.87,1815.04 1507.48,1814.12 1507.95,1812.81C1508.41,1811.5 1508.93,1809.06 1509.51,1805.51C1509.69,1804.66 1510.13,1804.06 1510.85,1803.71C1511.56,1803.35 1512.33,1803.17 1513.18,1803.17C1513.53,1803.17 1513.82,1803.2 1514.05,1803.24C1514.27,1803.28 1514.4,1803.33 1514.45,1803.37C1513.78,1807.82 1513.45,1811.84 1513.45,1815.44L1513.51,1818.77C1513.51,1819.35 1513.37,1819.8 1513.08,1820.11C1512.79,1820.42 1512.42,1820.57 1511.98,1820.57C1511.58,1820.57 1511,1820.51 1510.25,1820.37C1506.96,1819.88 1503.36,1819.64 1499.45,1819.64L1478.85,1819.64Z" style="fill-rule:nonzero;"/>
        <path d="M1573.71,1800.84C1575.71,1806.31 1577.91,1810.53 1580.31,1813.51C1582.71,1816.48 1585.16,1818.91 1587.65,1820.77C1587.2,1822.24 1585.93,1822.91 1583.85,1822.77C1579.27,1822.02 1574.72,1819.44 1570.21,1815.04C1565.7,1810.64 1561.89,1805.17 1558.78,1798.64L1557.18,1798.31C1557.05,1798.17 1556.98,1798.02 1556.98,1797.84C1556.98,1797.31 1557.31,1797.02 1557.98,1796.97L1560.18,1796.91C1563.51,1796.6 1565.9,1795.58 1567.35,1793.87C1568.79,1792.16 1569.51,1789.62 1569.51,1786.24C1569.51,1782.6 1568.65,1779.87 1566.91,1778.07C1565.18,1776.27 1562.82,1775.35 1559.85,1775.31L1557.58,1775.31C1556.69,1775.31 1556.09,1775.48 1555.78,1775.84C1555.47,1776.2 1555.31,1776.86 1555.31,1777.84L1555.31,1810.84C1555.31,1812.53 1555.46,1813.8 1555.75,1814.64C1556.03,1815.48 1556.4,1816.06 1556.85,1816.37C1557.29,1816.68 1557.93,1816.93 1558.78,1817.11C1559.8,1817.37 1560.31,1817.97 1560.31,1818.91C1560.31,1819.13 1560.28,1819.33 1560.21,1819.51C1560.15,1819.68 1560.09,1819.8 1560.05,1819.84C1558.05,1819.71 1556.67,1819.64 1555.91,1819.64L1543.25,1819.64C1542.49,1819.64 1541.11,1819.71 1539.11,1819.84C1539.02,1819.8 1538.95,1819.67 1538.88,1819.47C1538.81,1819.27 1538.78,1819.06 1538.78,1818.84C1538.78,1817.95 1539.29,1817.37 1540.31,1817.11C1541.16,1816.93 1541.8,1816.68 1542.25,1816.37C1542.69,1816.06 1543.06,1815.48 1543.35,1814.64C1543.63,1813.8 1543.78,1812.53 1543.78,1810.84L1543.78,1781.77C1543.78,1780.08 1543.63,1778.82 1543.35,1777.97C1543.06,1777.13 1542.69,1776.55 1542.25,1776.24C1541.8,1775.93 1541.16,1775.68 1540.31,1775.51C1539.29,1775.24 1538.78,1774.66 1538.78,1773.77C1538.78,1773.55 1538.81,1773.35 1538.88,1773.17C1538.95,1773 1539,1772.88 1539.05,1772.84C1539.89,1772.84 1540.56,1772.86 1541.05,1772.91L1543.25,1772.97C1544.85,1772.97 1546.29,1772.95 1547.58,1772.91C1548.87,1772.86 1549.98,1772.82 1550.91,1772.77C1555.53,1772.6 1559.11,1772.51 1561.65,1772.51C1568.67,1772.51 1573.91,1773.61 1577.38,1775.81C1580.85,1778.01 1582.58,1781.35 1582.58,1785.84C1582.58,1789.8 1581.15,1792.87 1578.28,1795.07C1575.41,1797.27 1571.36,1798.51 1566.11,1798.77L1565.85,1799.04C1567.22,1799.13 1569.25,1799.22 1571.91,1799.31C1572.45,1799.31 1572.82,1799.42 1573.05,1799.64C1573.27,1799.86 1573.49,1800.26 1573.71,1800.84Z" style="fill-rule:nonzero;"/>
        <path d="M594.134,830.287C576.587,836.851 556.054,833.058 541.958,818.906C527.892,804.786 524.059,784.259 530.457,766.647L529.826,766.016C530.2,765.01 530.607,764.013 531.047,763.028L531.936,763.028C534.323,757.788 537.663,752.88 541.958,748.569C561.217,729.234 592.49,729.234 611.75,748.569C616.044,752.88 619.385,757.788 621.771,763.028L622.66,763.028C630.963,781.617 627.518,804.226 612.324,819.478C607.168,824.654 601.166,828.466 594.763,830.916L594.134,830.287ZM1026.91,763.028L1027.93,763.028C1035.34,772.91 1034.56,787.025 1025.6,796.018C1015.94,805.715 1000.25,805.715 990.593,796.018C981.636,787.025 980.858,772.91 988.26,763.028L989.282,763.028C989.862,762.293 990.491,761.583 991.168,760.904C1000.51,751.524 1015.68,751.524 1025.03,760.904C1025.7,761.583 1026.33,762.293 1026.91,763.028ZM984.929,1227.7L983.774,1227.23C978.703,1216.86 980.459,1203.97 989.043,1195.35C999.692,1184.66 1016.98,1184.66 1027.63,1195.35C1036.21,1203.96 1037.97,1216.85 1032.91,1227.21L1031.75,1227.69C1030.54,1229.97 1028.97,1232.11 1027.06,1234.04C1025.21,1235.89 1023.16,1237.41 1020.97,1238.61L1020.49,1239.77C1012.88,1243.57 1003.88,1243.58 996.263,1239.81L995.777,1238.64C993.564,1237.45 991.485,1235.91 989.617,1234.04C987.705,1232.12 986.143,1229.98 984.929,1227.7ZM759.037,462.914L1274.72,458.426C1267.92,471.359 1268.04,487.006 1275.08,499.844L772.572,504.216L738.209,482.487L759.037,462.914ZM736.49,510.181L842.067,763.028L960.723,763.028C956.407,776.726 958.1,791.927 965.801,804.447L859.361,804.447L1008.25,1161.03L1155.84,804.447L1050.39,804.447C1058.09,791.927 1059.79,776.726 1055.47,763.028L1172.98,763.028L1279.29,506.162C1280.27,507.377 1281.32,508.552 1282.44,509.681C1292.02,519.296 1304.99,523.456 1317.5,522.161L1217.81,763.028L1373.24,763.028L1387.72,778.444L1340.29,804.447L1200.66,804.447L1067.29,1126.7L1373.41,820.407L1399.99,817.568L1393.97,858.423L1096.59,1155.98L1271.08,1083.65C1270.88,1085.3 1270.78,1086.97 1270.78,1088.67C1270.78,1102.14 1277.02,1114.18 1286.76,1121.98L1060.56,1215.75C1060.76,1202.04 1055.65,1188.27 1045.24,1177.81C1024.87,1157.37 991.803,1157.37 971.436,1177.81C961.017,1188.27 955.91,1202.06 956.117,1215.78L729.448,1121.96C739.177,1114.16 745.409,1102.13 745.409,1088.67C745.409,1086.96 745.309,1085.28 745.114,1083.62L920.058,1156.03L613.417,849.56C619.337,846.245 624.903,842.064 629.93,837.017C635.039,831.888 639.257,826.202 642.584,820.152L948.84,1126.24L814.477,804.447L649.026,804.447C652.857,790.93 652.857,776.545 649.026,763.028L797.182,763.028L699.104,528.14L704.785,519.157L731.382,547.46L728.131,508.757L736.49,510.181ZM1009.02,1267.48L1008.42,1268.93L1007.82,1267.48C1008.22,1267.48 1008.62,1267.48 1009.02,1267.48ZM703.162,1070.99C712.824,1070.99 720.558,1078.97 720.558,1088.67C720.558,1098.37 712.824,1106.36 703.162,1106.36C693.499,1106.36 685.766,1098.37 685.766,1088.67C685.766,1078.97 693.499,1070.99 703.162,1070.99ZM1300.05,465.464C1307.21,458.271 1318.85,458.271 1326.01,465.464C1333.35,472.826 1333.35,484.78 1326.01,492.142C1318.85,499.335 1307.21,499.335 1300.05,492.142C1292.72,484.78 1292.72,472.826 1300.05,465.464ZM1313.03,1070.99C1322.69,1070.99 1330.43,1078.97 1330.43,1088.67C1330.43,1098.37 1322.69,1106.36 1313.03,1106.36C1303.37,1106.36 1295.63,1098.37 1295.63,1088.67C1295.63,1078.97 1303.37,1070.99 1313.03,1070.99ZM996.448,340.484C1002.88,334.03 1013.32,334.03 1019.75,340.484C1026.35,347.113 1026.35,357.877 1019.75,364.506C1013.32,370.96 1002.88,370.96 996.448,364.506C989.844,357.877 989.844,347.113 996.448,340.484ZM718.675,443.673L715.024,465.098C714.744,466.742 715.24,468.422 716.368,469.649C717.495,470.877 719.127,471.514 720.788,471.374L734.3,470.239L724.419,479.524C723.204,480.666 722.586,482.305 722.745,483.964C722.903,485.624 723.821,487.116 725.229,488.007L743.599,499.623L722.173,495.973C720.53,495.693 718.85,496.189 717.623,497.316C716.395,498.444 715.758,500.076 715.898,501.737L717.033,515.248L707.748,505.367C706.606,504.153 704.967,503.535 703.308,503.693C701.648,503.852 700.156,504.769 699.265,506.178L687.649,524.548L691.299,503.122C691.579,501.479 691.083,499.799 689.956,498.571C688.828,497.343 687.196,496.707 685.535,496.846L672.024,497.981L681.905,488.696C683.119,487.555 683.737,485.915 683.579,484.256C683.42,482.597 682.503,481.104 681.094,480.213L662.724,468.597L684.15,472.248C685.793,472.528 687.473,472.032 688.701,470.904C689.929,469.777 690.565,468.145 690.426,466.484L689.291,452.972L698.576,462.853C699.717,464.068 701.357,464.686 703.016,464.527C704.675,464.369 706.168,463.451 707.059,462.043L718.675,443.673ZM1412.11,696.925L1438.31,744.725C1439.12,746.186 1440.55,747.195 1442.19,747.456C1443.84,747.718 1445.52,747.203 1446.73,746.062L1470.87,723.392L1466.04,756.151C1465.8,757.8 1466.33,759.469 1467.49,760.671C1468.64,761.873 1470.29,762.472 1471.95,762.295L1526.15,756.505L1478.35,782.713C1476.89,783.514 1475.88,784.947 1475.62,786.593C1475.36,788.239 1475.87,789.914 1477.02,791.129L1499.68,815.264L1466.92,810.441C1465.28,810.198 1463.61,810.732 1462.41,811.887C1461.2,813.042 1460.6,814.688 1460.78,816.346L1466.57,870.55L1440.36,822.75C1439.56,821.289 1438.13,820.28 1436.48,820.019C1434.84,819.757 1433.16,820.272 1431.95,821.413L1407.81,844.083L1412.64,811.324C1412.88,809.675 1412.34,808.006 1411.19,806.804C1410.03,805.603 1408.39,805.003 1406.73,805.18L1352.53,810.97L1400.33,784.762C1401.79,783.961 1402.8,782.528 1403.06,780.882C1403.32,779.236 1402.81,777.561 1401.66,776.347L1378.99,752.211L1411.75,757.034C1413.4,757.277 1415.07,756.743 1416.27,755.588C1417.47,754.433 1418.07,752.787 1417.9,751.13L1412.11,696.925Z"/>
        <rect x="413.405" y="1731.01" width="1171.75" height="8.333"/>
        <path d="M1683.49,1344.88L1649.76,1324.28C1715.46,1203.91 1750.05,1067.37 1750.05,928.381C1750.05,491.377 1414.62,136.585 1001.48,136.585C588.334,136.585 252.913,491.377 252.913,928.381C252.913,1067.37 287.502,1203.91 353.202,1324.28L319.468,1344.88C250.349,1218.25 213.96,1074.6 213.96,928.381C213.96,468.637 566.836,95.383 1001.48,95.383C1436.12,95.383 1789,468.637 1789,928.381C1789,1074.6 1752.61,1218.25 1683.49,1344.88Z"/>
    </g>
</svg>
