<?xml version="1.0" encoding="UTF-8" standalone="no"?>
<!DOCTYPE svg PUBLIC "-//W3C//DTD SVG 1.1//EN" "http://www.w3.org/Graphics/SVG/1.1/DTD/svg11.dtd">
<svg width="100%" height="100%" viewBox="0 0 2112 2113" version="1.1" xmlns="http://www.w3.org/2000/svg" xmlns:xlink="http://www.w3.org/1999/xlink" xml:space="preserve" xmlns:serif="http://www.serif.com/" style="fill-rule:evenodd;clip-rule:evenodd;stroke-linejoin:round;stroke-miterlimit:2;">
    <rect id="aesthetic_detail" x="0.316" y="0.746" width="2111.51" height="2111.51" style="fill:none;"/>
    <path d="M646.392,1114.85C628.741,1121.46 608.086,1117.64 593.905,1103.41C579.755,1089.2 575.899,1068.55 582.336,1050.83L581.7,1050.2C582.077,1049.19 582.486,1048.18 582.929,1047.19L583.823,1047.19C586.224,1041.92 589.585,1036.98 593.905,1032.65C613.279,1013.2 644.739,1013.2 664.114,1032.65C668.434,1036.98 671.795,1041.92 674.196,1047.19L675.09,1047.19C683.442,1065.89 679.976,1088.64 664.692,1103.98C659.505,1109.19 653.467,1113.02 647.025,1115.49L646.392,1114.85ZM1081.76,1047.19L1082.79,1047.19C1090.23,1057.13 1089.45,1071.33 1080.44,1080.38C1070.72,1090.13 1054.94,1090.13 1045.22,1080.38C1036.21,1071.33 1035.43,1057.13 1042.88,1047.19L1043.9,1047.19C1044.49,1046.45 1045.12,1045.74 1045.8,1045.06C1055.2,1035.62 1070.46,1035.62 1079.86,1045.06C1080.54,1045.74 1081.17,1046.45 1081.76,1047.19ZM1039.52,1514.65L1038.36,1514.17C1033.26,1503.74 1035.03,1490.77 1043.66,1482.1C1054.38,1471.35 1071.77,1471.35 1082.48,1482.1C1091.12,1490.77 1092.88,1503.73 1087.79,1514.15L1086.63,1514.63C1085.41,1516.93 1083.83,1519.08 1081.91,1521.02C1080.05,1522.88 1077.98,1524.41 1075.78,1525.61L1075.3,1526.79C1067.65,1530.6 1058.59,1530.62 1050.93,1526.83L1050.44,1525.65C1048.21,1524.45 1046.12,1522.9 1044.24,1521.02C1042.32,1519.09 1040.75,1516.94 1039.52,1514.65ZM812.282,745.284L1331.05,740.77C1324.21,753.78 1324.33,769.52 1331.41,782.435L825.898,786.834L791.329,764.974L812.282,745.284ZM789.6,792.834L895.808,1047.19L1015.17,1047.19C1010.83,1060.97 1012.53,1076.27 1020.28,1088.86L913.206,1088.86L1062.99,1447.58L1211.46,1088.86L1105.38,1088.86C1113.13,1076.27 1114.83,1060.97 1110.49,1047.19L1228.7,1047.19L1335.65,788.791C1336.63,790.014 1337.69,791.196 1338.82,792.331C1348.45,802.003 1361.5,806.188 1374.08,804.885L1273.8,1047.19L1430.15,1047.19L1444.72,1062.7L1397.01,1088.86L1256.55,1088.86L1122.38,1413.04L1430.33,1104.92L1457.07,1102.06L1451.02,1143.16L1151.85,1442.49L1327.38,1369.73C1327.19,1371.39 1327.09,1373.07 1327.09,1374.78C1327.09,1388.34 1333.37,1400.44 1343.16,1408.29L1115.61,1502.62C1115.81,1488.83 1110.67,1474.97 1100.2,1464.46C1079.71,1443.89 1046.44,1443.89 1025.95,1464.46C1015.47,1474.98 1010.33,1488.85 1010.54,1502.65L782.516,1408.28C792.303,1400.43 798.573,1388.33 798.573,1374.78C798.573,1373.07 798.472,1371.37 798.275,1369.7L974.266,1442.54L665.791,1134.24C671.746,1130.91 677.345,1126.7 682.403,1121.62C687.543,1116.46 691.786,1110.74 695.133,1104.66L1003.22,1412.57L868.053,1088.86L701.613,1088.86C705.467,1075.26 705.467,1060.79 701.613,1047.19L850.655,1047.19L751.991,810.901L757.706,801.864L784.462,830.336L781.191,791.402L789.6,792.834ZM1063.76,1554.66L1063.16,1556.12L1062.55,1554.66C1062.95,1554.66 1063.36,1554.66 1063.76,1554.66ZM756.073,1356.99C765.793,1356.99 773.573,1365.03 773.573,1374.78C773.573,1384.54 765.793,1392.58 756.073,1392.58C746.352,1392.58 738.573,1384.54 738.573,1374.78C738.573,1365.03 746.352,1356.99 756.073,1356.99ZM1356.53,747.85C1363.74,740.614 1375.44,740.614 1382.65,747.85C1390.03,755.256 1390.03,767.281 1382.65,774.687C1375.44,781.923 1363.74,781.923 1356.53,774.687C1349.15,767.281 1349.15,755.256 1356.53,747.85ZM1369.59,1356.99C1379.31,1356.99 1387.09,1365.03 1387.09,1374.78C1387.09,1384.54 1379.31,1392.58 1369.59,1392.58C1359.87,1392.58 1352.09,1384.54 1352.09,1374.78C1352.09,1365.03 1359.87,1356.99 1369.59,1356.99ZM1051.11,622.122C1057.58,615.629 1068.08,615.629 1074.55,622.122C1081.19,628.791 1081.19,639.619 1074.55,646.288C1068.08,652.781 1057.58,652.781 1051.11,646.288C1044.47,639.619 1044.47,628.791 1051.11,622.122ZM771.678,725.928L768.006,747.482C767.724,749.135 768.223,750.825 769.358,752.06C770.492,753.295 772.134,753.936 773.805,753.795L787.397,752.653L777.457,761.994C776.235,763.142 775.613,764.791 775.773,766.461C775.932,768.13 776.855,769.631 778.272,770.527L796.752,782.213L775.198,778.541C773.545,778.259 771.855,778.758 770.62,779.892C769.385,781.027 768.744,782.668 768.885,784.339L770.027,797.931L760.686,787.992C759.538,786.77 757.889,786.148 756.219,786.307C754.55,786.467 753.049,787.39 752.153,788.807L740.467,807.287L744.139,785.733C744.421,784.08 743.922,782.39 742.788,781.155C741.653,779.92 740.012,779.279 738.341,779.419L724.749,780.561L734.688,771.221C735.91,770.072 736.532,768.423 736.373,766.754C736.213,765.085 735.29,763.583 733.873,762.687L715.393,751.002L736.947,754.674C738.6,754.956 740.29,754.457 741.525,753.322C742.76,752.188 743.401,750.546 743.261,748.875L742.119,735.283L751.459,745.223C752.608,746.445 754.257,747.067 755.926,746.907C757.595,746.748 759.097,745.825 759.993,744.408L771.678,725.928ZM1469.26,980.695L1495.62,1028.78C1496.43,1030.25 1497.87,1031.27 1499.52,1031.53C1501.18,1031.79 1502.87,1031.27 1504.09,1030.13L1528.37,1007.32L1523.52,1040.28C1523.27,1041.93 1523.81,1043.61 1524.97,1044.82C1526.13,1046.03 1527.79,1046.63 1529.45,1046.46L1583.98,1040.63L1535.9,1067C1534.43,1067.8 1533.41,1069.24 1533.15,1070.9C1532.89,1072.56 1533.4,1074.24 1534.55,1075.46L1557.36,1099.74L1524.4,1094.89C1522.74,1094.64 1521.07,1095.18 1519.86,1096.34C1518.65,1097.51 1518.04,1099.16 1518.22,1100.83L1524.05,1155.36L1497.68,1107.27C1496.88,1105.8 1495.43,1104.79 1493.78,1104.52C1492.12,1104.26 1490.44,1104.78 1489.22,1105.93L1464.94,1128.73L1469.79,1095.78C1470.03,1094.12 1469.5,1092.44 1468.33,1091.23C1467.17,1090.02 1465.52,1089.42 1463.85,1089.6L1409.32,1095.42L1457.41,1069.06C1458.88,1068.25 1459.89,1066.81 1460.15,1065.15C1460.42,1063.5 1459.9,1061.81 1458.75,1060.59L1435.95,1036.31L1468.9,1041.16C1470.56,1041.41 1472.24,1040.87 1473.45,1039.71C1474.66,1038.55 1475.26,1036.89 1475.08,1035.22L1469.26,980.695Z" style="fill:white;"/>
</svg>
