<?xml version="1.0" encoding="UTF-8" standalone="no"?>
<!DOCTYPE svg PUBLIC "-//W3C//DTD SVG 1.1//EN" "http://www.w3.org/Graphics/SVG/1.1/DTD/svg11.dtd">
<svg width="100%" height="100%" viewBox="0 0 2113 2113" version="1.1" xmlns="http://www.w3.org/2000/svg" xmlns:xlink="http://www.w3.org/1999/xlink" xml:space="preserve" xmlns:serif="http://www.serif.com/" style="fill-rule:evenodd;clip-rule:evenodd;stroke-linejoin:round;stroke-miterlimit:2;">
    <rect id="curious_detail" x="0.539" y="0.746" width="2111.51" height="2111.51" style="fill:none;"/>
    <path d="M1083.91,731.63L1083.92,742.922L1302.54,741.02C1298.5,754.599 1298.62,769.163 1302.9,782.685L1083.93,784.59L1084,1023.26C1071.04,1016.25 1055.32,1016.21 1042.33,1023.14L1042.26,784.953L826.011,786.835C829.908,773.234 829.789,758.714 825.653,745.17L989.863,743.741L982.902,762.018L1000.33,743.65L1042.25,743.285L1042.24,699.466L1055.22,685.781L1083.91,731.63ZM714.228,1047.19L1021.53,1047.19C1016.55,1060.95 1018.55,1076.68 1027.5,1088.86L714.228,1088.86C717.539,1075.19 717.539,1060.87 714.228,1047.19ZM1104.58,1047.19L1426.87,1047.19C1422.88,1060.77 1422.88,1075.28 1426.87,1088.86L1098.6,1088.86C1107.56,1076.68 1109.55,1060.95 1104.58,1047.19ZM1084.02,1101.59L1084.09,1353.95L1315.12,1353.95C1312.68,1360.43 1311.34,1367.45 1311.34,1374.78C1311.34,1382.12 1312.68,1389.14 1315.12,1395.62L1084.1,1395.62L1084.11,1435.17C1070.58,1430.88 1056,1430.83 1042.44,1435.03L1042.43,1395.62L815.079,1395.62C817.371,1389.1 818.618,1382.09 818.618,1374.78C818.618,1367.48 817.371,1360.47 815.079,1353.95L1042.42,1353.95L1042.35,1101.73C1055.34,1108.66 1071.07,1108.61 1084.02,1101.59ZM584.285,1022.84C609.092,997.94 649.373,997.94 674.18,1022.84C699.021,1047.78 699.021,1088.27 674.18,1113.21C649.373,1138.11 609.092,1138.11 584.285,1113.21C559.444,1088.27 559.444,1047.78 584.285,1022.84ZM1337.1,728.277C1355.16,710.156 1384.47,710.156 1402.52,728.277C1420.66,746.486 1420.66,776.051 1402.52,794.26C1384.47,812.381 1355.16,812.381 1337.1,794.26C1318.97,776.051 1318.97,746.486 1337.1,728.277ZM1048.79,1047.81C1056.66,1039.91 1069.44,1039.91 1077.32,1047.81C1085.35,1055.88 1085.35,1068.98 1077.32,1077.05C1069.44,1084.95 1056.66,1084.95 1048.79,1077.05C1040.76,1068.98 1040.76,1055.88 1048.79,1047.81ZM1462.19,1033.07C1481.33,1013.85 1512.42,1013.85 1531.56,1033.07C1550.78,1052.36 1550.78,1083.69 1531.56,1102.99C1512.42,1122.2 1481.33,1122.2 1462.19,1102.99C1442.97,1083.69 1442.97,1052.36 1462.19,1033.07ZM721.93,731.964C740.897,712.923 771.695,712.923 790.662,731.964C809.708,751.084 809.708,782.131 790.662,801.251C771.695,820.291 740.897,820.291 721.93,801.251C702.883,782.131 702.883,751.084 721.93,731.964ZM756.296,1336.09C777.534,1336.09 794.705,1353.46 794.705,1374.78C794.705,1396.1 777.534,1413.48 756.296,1413.48C735.058,1413.48 717.887,1396.1 717.887,1374.78C717.887,1353.46 735.058,1336.09 756.296,1336.09ZM1369.81,1339.93C1388.93,1339.93 1404.38,1355.59 1404.38,1374.78C1404.38,1393.98 1388.93,1409.64 1369.81,1409.64C1350.69,1409.64 1335.25,1393.98 1335.25,1374.78C1335.25,1355.59 1350.69,1339.93 1369.81,1339.93ZM1030.75,1469.26C1048.58,1451.36 1077.53,1451.36 1095.36,1469.26C1113.28,1487.24 1113.28,1516.45 1095.36,1534.44C1077.53,1552.34 1048.58,1552.34 1030.75,1534.44C1012.83,1516.45 1012.83,1487.24 1030.75,1469.26ZM1115.19,551.704L1093.6,608.392C1093.13,609.622 1093.26,611 1093.94,612.123C1094.63,613.247 1095.8,613.991 1097.1,614.137L1133.53,618.21L1102.46,637.655C1101.34,638.353 1100.61,639.529 1100.48,640.838C1100.35,642.148 1100.83,643.445 1101.79,644.351L1145.8,686.099L1089.11,664.507C1087.88,664.039 1086.5,664.166 1085.38,664.851C1084.26,665.537 1083.51,666.704 1083.37,668.012L1079.29,704.44L1059.85,673.368C1059.15,672.252 1057.97,671.522 1056.66,671.391C1055.35,671.26 1054.06,671.742 1053.15,672.697L1011.4,716.707L1033,660.018C1033.46,658.788 1033.34,657.411 1032.65,656.287C1031.96,655.163 1030.8,654.42 1029.49,654.273L993.062,650.201L1024.13,630.755C1025.25,630.057 1025.98,628.882 1026.11,627.572C1026.24,626.262 1025.76,624.965 1024.81,624.059L980.795,582.311L1037.48,603.903C1038.71,604.372 1040.09,604.245 1041.21,603.559C1042.34,602.873 1043.08,601.707 1043.23,600.398L1047.3,563.97L1066.75,595.042C1067.44,596.158 1068.62,596.888 1069.93,597.019C1071.24,597.151 1072.54,596.669 1073.44,595.714L1115.19,551.704Z" style="fill:white;"/>
</svg>
