<?xml version="1.0" encoding="UTF-8" standalone="no"?>
<!DOCTYPE svg PUBLIC "-//W3C//DTD SVG 1.1//EN" "http://www.w3.org/Graphics/SVG/1.1/DTD/svg11.dtd">
<svg width="100%" height="100%" viewBox="0 0 2112 2113" version="1.1" xmlns="http://www.w3.org/2000/svg" xmlns:xlink="http://www.w3.org/1999/xlink" xml:space="preserve" xmlns:serif="http://www.serif.com/" style="fill-rule:evenodd;clip-rule:evenodd;stroke-linejoin:round;stroke-miterlimit:2;">
    <rect id="enterprise_detail" x="0.316" y="0.523" width="2111.51" height="2111.51" style="fill:none;"/>
    <path d="M1029.24,1490.91L641.586,1115.48C649.673,1113.34 657.318,1109.08 663.653,1102.72C667.894,1098.46 671.199,1093.62 673.566,1088.45L998.199,1402.85L867.076,1085.76L674.621,1085.97C681.594,1068.22 677.938,1047.22 663.653,1032.88C651.099,1020.28 633.405,1015.95 617.32,1019.9L716.302,802.248L737.763,795.548L740.476,849.741L660.653,1025.26L816.001,962.244L757.501,820.778L765.11,799.612L796.582,821.035L785.236,784.694L855.579,781.172L789.3,757.347L798.941,743.185L1230.13,743.185L1319.19,774.664L1292.89,813.746L1115.95,885.525L1259.82,943.151L1313.05,814.92L1342.38,805.595L1344.69,847.388L1298.5,958.645L1456.85,1022.07C1455.85,1022.95 1454.88,1023.87 1453.92,1024.83C1437.67,1041.14 1432.6,1064.45 1438.7,1085.14L1245.9,1085.35L1109.41,1414.13L1443.07,1095.97C1445.85,1101.3 1449.46,1106.3 1453.92,1110.78C1459.83,1116.7 1466.65,1121.15 1473.94,1124.11L1096.29,1484.22L1093.65,1483.99L1106.66,1447.15L1073.57,1467.93L1059.85,1424.84L1200.77,1085.4L1098.49,1085.51C1106.59,1072.98 1107.5,1057.12 1101.23,1043.84L1218.08,1043.71L1243.84,981.636L1060.28,908.11L870.535,985.085L894.922,1044.06L1024.39,1043.92C1018.15,1057.21 1019.1,1073.07 1027.22,1085.58L912.145,1085.71L1049.97,1419.01L1045.44,1471.05L1008.6,1458.04L1029.24,1490.91ZM1253.28,784.851L864.615,784.851L1060.18,863.186L1253.28,784.851ZM1263.21,1043.66L1398.33,1043.52L1282.53,997.13L1263.21,1043.66ZM724.702,1044.25L849.854,1044.11L831.923,1000.75L724.702,1044.25ZM794.717,801.738L854.612,946.58L1004.51,885.771L794.717,801.738ZM1415.1,832.901L1501.64,1007.28C1487.42,1006.11 1472.87,1009.96 1460.86,1018.84L1372.69,841.188L1383.21,811.441L1415.1,832.901ZM611.774,1050.22C621.286,1040.67 636.732,1040.67 646.245,1050.22C655.909,1059.93 655.909,1075.68 646.245,1085.38C636.732,1094.93 621.286,1094.93 611.774,1085.38C602.109,1075.68 602.109,1059.93 611.774,1050.22ZM1050.23,1049.25C1057.18,1042.27 1068.48,1042.27 1075.43,1049.25C1082.56,1056.4 1082.56,1068.02 1075.43,1075.17C1068.48,1082.15 1057.18,1082.15 1050.23,1075.17C1043.11,1068.02 1043.11,1056.4 1050.23,1049.25ZM1050.23,621.021C1057.18,614.04 1068.48,614.04 1075.43,621.021C1082.56,628.174 1082.56,639.789 1075.43,646.943C1068.48,653.923 1057.18,653.923 1050.23,646.943C1043.11,639.789 1043.11,628.174 1050.23,621.021ZM1471.33,1042.17C1485.31,1028.14 1508,1028.14 1521.97,1042.17C1536.07,1056.32 1536.07,1079.29 1521.97,1093.44C1508,1107.47 1485.31,1107.47 1471.33,1093.44C1457.24,1079.29 1457.24,1056.32 1471.33,1042.17ZM756.073,1356.34C766.029,1356.34 774.001,1364.57 774.001,1374.56C774.001,1384.56 766.029,1392.78 756.073,1392.78C746.116,1392.78 738.144,1384.56 738.144,1374.56C738.144,1364.57 746.116,1356.34 756.073,1356.34ZM1369.59,1356.34C1379.55,1356.34 1387.52,1364.57 1387.52,1374.56C1387.52,1384.56 1379.55,1392.78 1369.59,1392.78C1359.63,1392.78 1351.66,1384.56 1351.66,1374.56C1351.66,1364.57 1359.63,1356.34 1369.59,1356.34ZM762.422,723.658L763.533,745.842C763.61,747.391 764.401,748.818 765.673,749.705C766.946,750.593 768.557,750.842 770.038,750.38L783.214,746.266L775.447,757.676C774.574,758.959 774.343,760.573 774.822,762.049C775.302,763.524 776.437,764.695 777.897,765.22L798.799,772.734L776.615,773.844C775.066,773.922 773.639,774.712 772.751,775.985C771.864,777.257 771.615,778.869 772.077,780.35L776.19,793.525L764.781,785.758C763.498,784.885 761.884,784.655 760.408,785.134C758.932,785.613 757.762,786.748 757.237,788.208L749.723,809.11L748.612,786.927C748.535,785.377 747.745,783.951 746.472,783.063C745.2,782.175 743.588,781.926 742.107,782.389L728.932,786.502L736.698,775.092C737.572,773.81 737.802,772.195 737.323,770.72C736.844,769.244 735.709,768.073 734.248,767.548L713.346,760.034L735.53,758.924C737.08,758.846 738.506,758.056 739.394,756.784C740.281,755.511 740.53,753.899 740.068,752.418L735.955,739.243L747.365,747.01C748.647,747.883 750.262,748.114 751.737,747.634C753.213,747.155 754.384,746.02 754.909,744.56L762.422,723.658ZM1382.85,668.399L1386,725.174C1386.09,726.723 1386.88,728.146 1388.16,729.026C1389.44,729.907 1391.05,730.148 1392.53,729.677L1425.38,719.229L1406.13,747.829C1405.27,749.116 1405.05,750.732 1405.53,752.205C1406.02,753.678 1407.16,754.843 1408.62,755.36L1462.24,774.31L1405.46,777.455C1403.91,777.541 1402.49,778.339 1401.61,779.616C1400.73,780.893 1400.49,782.506 1400.96,783.985L1411.4,816.836L1382.81,797.59C1381.52,796.724 1379.9,796.502 1378.43,796.989C1376.96,797.476 1375.79,798.617 1375.27,800.08L1356.32,853.692L1353.18,796.916C1353.09,795.367 1352.3,793.945 1351.02,793.064C1349.74,792.183 1348.13,791.943 1346.65,792.413L1313.8,802.861L1333.04,774.261C1333.91,772.974 1334.13,771.358 1333.64,769.885C1333.16,768.412 1332.02,767.248 1330.55,766.73L1276.94,747.78L1333.72,744.635C1335.27,744.549 1336.69,743.751 1337.57,742.474C1338.45,741.197 1338.69,739.584 1338.22,738.105L1327.77,705.254L1356.37,724.501C1357.66,725.367 1359.28,725.589 1360.75,725.102C1362.22,724.615 1363.39,723.473 1363.9,722.01L1382.85,668.399ZM1058.04,1456.27L1065.28,1479.03C1065.75,1480.51 1066.88,1481.69 1068.34,1482.22C1069.79,1482.76 1071.42,1482.58 1072.73,1481.76L1085.27,1473.89L1080.34,1487.84C1079.82,1489.31 1080.01,1490.93 1080.85,1492.23C1081.69,1493.54 1083.09,1494.38 1084.63,1494.51L1108.43,1496.59L1085.67,1503.83C1084.19,1504.3 1083.01,1505.43 1082.48,1506.89C1081.94,1508.35 1082.11,1509.97 1082.94,1511.28L1090.81,1523.82L1076.85,1518.89C1075.39,1518.37 1073.77,1518.56 1072.47,1519.4C1071.16,1520.24 1070.32,1521.64 1070.18,1523.18L1068.11,1546.98L1060.87,1524.22C1060.39,1522.74 1059.27,1521.56 1057.81,1521.03C1056.35,1520.49 1054.73,1520.66 1053.42,1521.49L1040.88,1529.36L1045.81,1515.4C1046.33,1513.94 1046.14,1512.32 1045.3,1511.02C1044.46,1509.71 1043.06,1508.87 1041.52,1508.74L1017.72,1506.66L1040.48,1499.42C1041.96,1498.95 1043.14,1497.82 1043.67,1496.36C1044.2,1494.9 1044.03,1493.28 1043.21,1491.97L1035.34,1479.43L1049.29,1484.36C1050.76,1484.88 1052.38,1484.69 1053.68,1483.85C1054.99,1483.01 1055.83,1481.61 1055.96,1480.07L1058.04,1456.27Z" style="fill:white;"/>
</svg>
