<?xml version="1.0" encoding="UTF-8" standalone="no"?>
<!DOCTYPE svg PUBLIC "-//W3C//DTD SVG 1.1//EN" "http://www.w3.org/Graphics/SVG/1.1/DTD/svg11.dtd">
<svg width="100%" height="100%" viewBox="0 0 2113 2113" version="1.1" xmlns="http://www.w3.org/2000/svg" xmlns:xlink="http://www.w3.org/1999/xlink" xml:space="preserve" xmlns:serif="http://www.serif.com/" style="fill-rule:evenodd;clip-rule:evenodd;stroke-linejoin:round;stroke-miterlimit:2;">
    <rect id="faithful_detail" x="0.986" y="0.523" width="2111.51" height="2111.51" style="fill:none;"/>
    <path d="M653.287,958.168L719.325,801.513L738.433,795.548L741.471,856.242L673.262,1018.05L656.892,1023.25L653.287,958.168ZM774.982,735.829L1010.27,634.355C1010.36,647.943 1015.57,661.502 1025.89,671.86C1026.15,672.126 1026.42,672.39 1026.69,672.65L811.969,765.255L789.97,757.347L811.393,725.875L775.052,737.22L774.982,735.829ZM1116.73,633.394L1342.36,726.928C1341.29,727.813 1340.26,728.756 1339.26,729.758C1329.53,739.523 1325.31,752.733 1326.58,765.492L1101,671.977L1101.11,671.86C1111.67,661.258 1116.88,647.302 1116.73,633.394ZM1404.34,788.894L1494.74,1007.13C1480.87,1007.72 1467.17,1013.07 1456.29,1023.19L1365.91,804.998C1378.54,806.251 1391.6,802.029 1401.26,792.333C1402.36,791.229 1403.38,790.08 1404.34,788.894ZM1494.74,1128.48L1402.81,1350.42C1395.45,1340.38 1383.62,1333.84 1370.26,1333.84C1368.27,1333.84 1366.31,1333.99 1364.4,1334.27L1456.29,1112.42C1467.17,1122.53 1480.87,1127.89 1494.74,1128.48ZM1346.04,1407.15L1149.16,1488.77L1094.32,1483.99L1101.59,1463.38L1330.27,1368.59C1329.98,1370.54 1329.83,1372.53 1329.83,1374.56C1329.83,1387.87 1336.19,1399.72 1346.04,1407.15ZM1003.97,1499.43L801.908,1415.8C811.21,1405.52 817.088,1392.06 817.726,1377.25L1034.15,1466.83L1009.27,1458.04L1030.05,1491.13L1003.97,1499.43ZM715.478,1329.38L636.256,1138.12L643.298,1118.2L684.623,1146.01L753.914,1313.29C739.12,1313.97 725.697,1319.95 715.478,1329.38ZM1050.47,1048.82C1057.66,1041.6 1069.34,1041.6 1076.53,1048.82C1083.89,1056.21 1083.89,1068.21 1076.53,1075.6C1069.34,1082.81 1057.66,1082.81 1050.47,1075.6C1043.11,1068.21 1043.11,1056.21 1050.47,1048.82ZM1042.87,613.017C1054.25,601.585 1072.75,601.585 1084.13,613.017C1095.66,624.588 1095.66,643.376 1084.13,654.946C1072.75,666.379 1054.25,666.379 1042.87,654.946C1031.34,643.376 1031.34,624.588 1042.87,613.017ZM1471.57,1041.74C1485.78,1027.47 1508.86,1027.47 1523.07,1041.74C1537.4,1056.12 1537.4,1079.48 1523.07,1093.87C1508.86,1108.13 1485.78,1108.13 1471.57,1093.87C1457.24,1079.48 1457.24,1056.12 1471.57,1041.74ZM1356.24,746.671C1363.98,738.904 1376.54,738.904 1384.28,746.671C1392.18,754.604 1392.18,767.486 1384.28,775.419C1376.54,783.186 1363.98,783.186 1356.24,775.419C1348.34,767.486 1348.34,754.604 1356.24,746.671ZM756.742,1337.19C777.246,1337.19 793.819,1353.98 793.819,1374.56C793.819,1395.14 777.246,1411.93 756.742,1411.93C736.239,1411.93 719.666,1395.14 719.666,1374.56C719.666,1353.98 736.239,1337.19 756.742,1337.19ZM1370.26,1357.81C1379.41,1357.81 1386.72,1365.38 1386.72,1374.56C1386.72,1383.74 1379.41,1391.31 1370.26,1391.31C1361.11,1391.31 1353.8,1383.74 1353.8,1374.56C1353.8,1365.38 1361.11,1357.81 1370.26,1357.81ZM762.346,728.675L763.208,745.891C763.301,747.748 764.248,749.458 765.773,750.522C767.298,751.586 769.23,751.884 771.005,751.33L781.452,748.068L775.294,757.116C774.247,758.653 773.971,760.588 774.545,762.356C775.12,764.125 776.48,765.528 778.23,766.157L794.452,771.988L777.235,772.85C775.378,772.943 773.668,773.89 772.605,775.415C771.541,776.94 771.242,778.872 771.797,780.646L775.058,791.094L766.01,784.935C764.473,783.889 762.539,783.613 760.77,784.187C759.002,784.761 757.599,786.122 756.97,787.872L751.138,804.093L750.276,786.877C750.183,785.02 749.236,783.31 747.711,782.246C746.186,781.183 744.255,780.884 742.48,781.438L732.032,784.7L738.191,775.652C739.237,774.115 739.514,772.181 738.939,770.412C738.365,768.644 737.005,767.24 735.255,766.611L719.033,760.78L736.25,759.918C738.107,759.825 739.816,758.878 740.88,757.353C741.944,755.828 742.242,753.897 741.688,752.122L738.426,741.674L747.474,747.833C749.011,748.879 750.946,749.155 752.714,748.581C754.483,748.007 755.886,746.646 756.515,744.897L762.346,728.675ZM642.225,980.178L645.095,1031.99C645.198,1033.84 646.154,1035.55 647.685,1036.6C649.216,1037.66 651.149,1037.95 652.92,1037.38L683.049,1027.8L665.398,1054.03C664.36,1055.57 664.094,1057.51 664.677,1059.28C665.261,1061.04 666.629,1062.44 668.382,1063.06L717.304,1080.35L665.495,1083.22C663.638,1083.32 661.934,1084.28 660.878,1085.81C659.823,1087.34 659.535,1089.27 660.098,1091.05L669.68,1121.17L643.451,1103.52C641.908,1102.48 639.972,1102.22 638.207,1102.8C636.441,1103.38 635.045,1104.75 634.426,1106.51L617.133,1155.43L614.263,1103.62C614.16,1101.76 613.204,1100.06 611.673,1099C610.142,1097.95 608.209,1097.66 606.438,1098.22L576.309,1107.8L593.96,1081.58C594.998,1080.03 595.264,1078.1 594.681,1076.33C594.097,1074.57 592.729,1073.17 590.976,1072.55L542.054,1055.26L593.863,1052.39C595.72,1052.28 597.424,1051.33 598.48,1049.8C599.535,1048.27 599.823,1046.33 599.26,1044.56L589.678,1014.43L615.907,1032.08C617.45,1033.12 619.386,1033.39 621.151,1032.81C622.917,1032.22 624.313,1030.85 624.932,1029.1L642.225,980.178ZM1059.27,1461.31L1065,1479.33C1065.57,1481.11 1066.92,1482.52 1068.66,1483.16C1070.41,1483.8 1072.35,1483.59 1073.93,1482.6L1084.04,1476.25L1080.07,1487.51C1079.45,1489.27 1079.67,1491.21 1080.68,1492.77C1081.69,1494.33 1083.36,1495.34 1085.21,1495.5L1104.06,1497.15L1086.03,1502.88C1084.26,1503.45 1082.85,1504.8 1082.21,1506.55C1081.57,1508.29 1081.78,1510.24 1082.77,1511.81L1089.12,1521.93L1077.86,1517.95C1076.1,1517.33 1074.16,1517.56 1072.6,1518.56C1071.03,1519.57 1070.03,1521.24 1069.86,1523.1L1068.22,1541.94L1062.48,1523.91C1061.92,1522.14 1060.57,1520.73 1058.82,1520.09C1057.08,1519.45 1055.13,1519.66 1053.56,1520.65L1043.44,1527L1047.42,1515.74C1048.04,1513.98 1047.81,1512.04 1046.81,1510.48C1045.8,1508.91 1044.12,1507.91 1042.27,1507.75L1023.43,1506.1L1041.45,1500.37C1043.22,1499.8 1044.64,1498.45 1045.28,1496.7C1045.91,1494.96 1045.71,1493.01 1044.72,1491.44L1038.37,1481.32L1049.63,1485.3C1051.38,1485.92 1053.33,1485.69 1054.89,1484.69C1056.45,1483.68 1057.46,1482.01 1057.62,1480.15L1059.27,1461.31Z" style="fill:white;"/>
</svg>
