<?xml version="1.0" encoding="UTF-8" standalone="no"?>
<!DOCTYPE svg PUBLIC "-//W3C//DTD SVG 1.1//EN" "http://www.w3.org/Graphics/SVG/1.1/DTD/svg11.dtd">
<svg width="100%" height="100%" viewBox="0 0 2113 2113" version="1.1" xmlns="http://www.w3.org/2000/svg" xmlns:xlink="http://www.w3.org/1999/xlink" xml:space="preserve" xmlns:serif="http://www.serif.com/" style="fill-rule:evenodd;clip-rule:evenodd;stroke-linejoin:round;stroke-miterlimit:2;">
    <rect id="grounded_detail" x="0.986" y="0.746" width="2111.51" height="2111.51" style="fill:none;"/>
    <path d="M696.102,1047.19L1023.82,1047.19C1018.04,1062.47 1021.27,1080.41 1033.52,1092.7C1050.07,1109.31 1076.93,1109.31 1093.48,1092.7C1105.73,1080.41 1108.96,1062.47 1103.18,1047.19L1453.09,1047.19C1446.97,1060.36 1446.97,1075.69 1453.09,1088.86L1118.66,1088.86L1327.62,1301.64L1310.84,1289.47L1326.68,1346.04L1313.1,1346.32L1084.47,1113.51L1084.56,1439.99C1071.07,1435.43 1056.38,1435.43 1042.89,1440L1042.8,1113.24L818.139,1342C811.481,1329.46 801.124,1319.2 788.534,1312.68L1008.34,1088.86L687.276,1088.86L664.386,1068.61L696.102,1047.19ZM1042.78,1025.11L1042.68,685.472C1056,690.923 1071.03,690.919 1084.35,685.461L1084.44,1025.24C1071.57,1017.9 1055.68,1017.85 1042.78,1025.11ZM1035.18,1472.98C1050.94,1457.16 1076.54,1457.16 1092.31,1472.98C1108.18,1488.91 1108.18,1514.78 1092.31,1530.71C1076.54,1546.54 1050.94,1546.54 1035.18,1530.71C1019.31,1514.78 1019.31,1488.91 1035.18,1472.98ZM1357.64,748.285C1364.6,741.292 1375.91,741.292 1382.88,748.285C1390.02,755.451 1390.02,767.086 1382.88,774.251C1375.91,781.244 1364.6,781.244 1357.64,774.251C1350.5,767.086 1350.5,755.451 1357.64,748.285ZM1050.91,1049.48C1057.86,1042.5 1069.14,1042.5 1076.09,1049.48C1083.21,1056.63 1083.21,1068.24 1076.09,1075.38C1069.14,1082.36 1057.86,1082.36 1050.91,1075.38C1043.79,1068.24 1043.79,1056.63 1050.91,1049.48ZM1041.97,612.344C1053.85,600.414 1073.15,600.413 1085.03,612.344C1097.05,624.41 1097.05,644.001 1085.03,656.066C1073.15,667.997 1053.85,667.997 1041.97,656.066C1029.95,644.001 1029.95,624.41 1041.97,612.344ZM1480.22,1050.58C1489.66,1041.11 1504.99,1041.11 1514.42,1050.58C1524.02,1060.21 1524.02,1075.84 1514.42,1085.47C1504.99,1094.95 1489.66,1094.95 1480.22,1085.47C1470.63,1075.84 1470.63,1060.21 1480.22,1050.58ZM744.121,753.624C751.087,746.631 762.398,746.631 769.364,753.624C776.502,760.79 776.502,772.425 769.364,779.59C762.398,786.583 751.087,786.583 744.121,779.59C736.983,772.425 736.983,760.79 744.121,753.624ZM756.742,1329.5C781.607,1329.5 801.736,1349.82 801.736,1374.78C801.736,1399.75 781.607,1420.07 756.742,1420.07C731.877,1420.07 711.749,1399.75 711.749,1374.78C711.749,1349.82 731.877,1329.5 756.742,1329.5ZM1386.3,1285.09L1387.42,1339.52C1387.45,1341.22 1388.28,1342.81 1389.64,1343.82C1391.01,1344.84 1392.77,1345.16 1394.41,1344.7L1426.26,1335.78L1406.85,1362.56C1405.85,1363.94 1405.54,1365.7 1406.02,1367.34C1406.5,1368.97 1407.7,1370.29 1409.29,1370.91L1459.95,1390.83L1405.53,1391.95C1403.83,1391.98 1402.24,1392.8 1401.22,1394.17C1400.21,1395.54 1399.88,1397.29 1400.34,1398.93L1409.26,1430.78L1382.48,1411.37C1381.1,1410.37 1379.34,1410.07 1377.71,1410.55C1376.07,1411.03 1374.75,1412.23 1374.13,1413.82L1354.21,1464.48L1353.1,1410.05C1353.06,1408.35 1352.24,1406.76 1350.87,1405.75C1349.51,1404.73 1347.75,1404.41 1346.11,1404.87L1314.26,1413.79L1333.67,1387.01C1334.67,1385.63 1334.97,1383.87 1334.5,1382.23C1334.02,1380.6 1332.81,1379.28 1331.23,1378.66L1280.57,1358.74L1334.99,1357.62C1336.69,1357.59 1338.28,1356.77 1339.3,1355.4C1340.31,1354.03 1340.63,1352.28 1340.17,1350.64L1331.25,1318.78L1358.04,1338.2C1359.41,1339.19 1361.18,1339.5 1362.81,1339.02C1364.44,1338.54 1365.76,1337.34 1366.39,1335.75L1386.3,1285.09ZM613.659,1029.74L625.031,1046.58C625.983,1047.99 627.534,1048.88 629.233,1048.99C630.931,1049.11 632.585,1048.42 633.712,1047.15L642.148,1037.62L641.463,1050.33C641.371,1052.03 642.071,1053.67 643.358,1054.79C644.646,1055.9 646.376,1056.35 648.044,1056.02L667.968,1052.01L651.123,1063.38C649.713,1064.33 648.822,1065.88 648.711,1067.58C648.6,1069.28 649.281,1070.93 650.556,1072.06L660.089,1080.5L647.378,1079.81C645.678,1079.72 644.032,1080.42 642.919,1081.71C641.806,1082.99 641.351,1084.72 641.687,1086.39L645.699,1106.32L634.327,1089.47C633.375,1088.06 631.824,1087.17 630.125,1087.06C628.427,1086.95 626.773,1087.63 625.646,1088.9L617.21,1098.44L617.895,1085.72C617.987,1084.03 617.287,1082.38 616,1081.27C614.712,1080.15 612.982,1079.7 611.314,1080.03L591.39,1084.05L608.235,1072.67C609.645,1071.72 610.536,1070.17 610.647,1068.47C610.758,1066.78 610.077,1065.12 608.802,1063.99L599.269,1055.56L611.98,1056.24C613.68,1056.33 615.326,1055.63 616.439,1054.35C617.552,1053.06 618.007,1051.33 617.671,1049.66L613.659,1029.74Z" style="fill:white;"/>
</svg>
