<?xml version="1.0" encoding="UTF-8" standalone="no"?>
<!DOCTYPE svg PUBLIC "-//W3C//DTD SVG 1.1//EN" "http://www.w3.org/Graphics/SVG/1.1/DTD/svg11.dtd">
<svg width="100%" height="100%" viewBox="0 0 2113 2113" version="1.1" xmlns="http://www.w3.org/2000/svg" xmlns:xlink="http://www.w3.org/1999/xlink" xml:space="preserve" xmlns:serif="http://www.serif.com/" style="fill-rule:evenodd;clip-rule:evenodd;stroke-linejoin:round;stroke-miterlimit:2;">
    <rect id="intrepid_detail" x="0.762" y="0.746" width="2111.51" height="2111.51" style="fill:none;"/>
    <path d="M1012.92,1042.81L785.064,823.077C790.837,820.135 796.25,816.242 801.074,811.4C806.552,805.901 810.811,799.639 813.852,792.954L1042.37,1013.33L1042.11,1014.71L988.933,989.754L1015.09,1042.35L1012.92,1042.81ZM1042.44,1012.94L1042.44,787.441L816.053,787.441C823.444,766.056 819.098,741.475 803.013,723.849L1013.06,633.189C1012.8,646.47 1017.71,659.837 1027.79,669.962C1028.32,670.494 1028.86,671.011 1029.41,671.514L857.359,745.774L1042.44,745.774L1042.44,680.181C1055.64,686.216 1070.91,686.216 1084.11,680.181L1084.11,745.774L1278.19,745.774L1097.69,671.008C1098.05,670.666 1098.41,670.317 1098.76,669.962C1109.04,659.648 1113.94,645.972 1113.48,632.448L1303.24,711.05C1286.6,733.289 1282.44,761.976 1290.76,787.441L1084.11,787.441L1084.11,1012.78L1297.71,803.081C1301.28,809.301 1305.71,815.157 1311.01,820.474C1315.87,825.347 1321.17,829.494 1326.8,832.915L1114,1041.83L1111,1041.26L1135.95,988.086L1083.36,1014.24L1068.04,941.99L1061.56,911.445L1042.44,1012.94ZM1084.14,1111.78L1084.32,1448C1070.95,1442.8 1056.02,1442.8 1042.66,1448.02L1042.47,1110.98L1043.2,1110.62L1064.99,1213.42L1084.14,1111.78ZM616.162,1054.37C623.499,1047.01 635.412,1047.01 642.749,1054.37C650.255,1061.91 650.255,1074.14 642.749,1081.68C635.412,1089.04 623.499,1089.04 616.162,1081.68C608.656,1074.14 608.656,1061.91 616.162,1054.37ZM1039.62,1477.63C1052.81,1464.39 1074.23,1464.39 1087.42,1477.63C1100.74,1491 1100.74,1512.7 1087.42,1526.07C1074.23,1539.31 1052.81,1539.31 1039.62,1526.07C1026.3,1512.7 1026.3,1491 1039.62,1477.63ZM1327.73,718.712C1351.08,695.271 1388.99,695.271 1412.34,718.712C1435.74,742.2 1435.74,780.337 1412.34,803.824C1388.99,827.266 1351.08,827.266 1327.73,803.824C1304.33,780.337 1304.33,742.2 1327.73,718.712ZM1044.51,615.097C1054.87,604.698 1071.69,604.698 1082.05,615.097C1092.55,625.643 1092.55,642.767 1082.05,653.313C1071.69,663.712 1054.87,663.712 1044.51,653.313C1034,642.767 1034,625.643 1044.51,615.097ZM1483.81,1054.37C1491.14,1047.01 1503.06,1047.01 1510.39,1054.37C1517.9,1061.91 1517.9,1074.14 1510.39,1081.68C1503.06,1089.04 1491.14,1089.04 1483.81,1081.68C1476.3,1074.14 1476.3,1061.91 1483.81,1054.37ZM728.678,738.464C744.044,723.039 768.994,723.039 784.36,738.464C799.833,753.997 799.833,779.218 784.36,794.751C768.994,810.176 744.044,810.176 728.678,794.751C713.206,779.218 713.206,753.997 728.678,738.464ZM756.519,1355.59C767.015,1355.59 775.427,1364.25 775.427,1374.78C775.427,1385.32 767.015,1393.98 756.519,1393.98C746.023,1393.98 737.611,1385.32 737.611,1374.78C737.611,1364.25 746.023,1355.59 756.519,1355.59ZM1370.04,1355.59C1380.53,1355.59 1388.94,1364.25 1388.94,1374.78C1388.94,1385.32 1380.53,1393.98 1370.04,1393.98C1359.54,1393.98 1351.13,1385.32 1351.13,1374.78C1351.13,1364.25 1359.54,1355.59 1370.04,1355.59ZM1062.27,973.517L1073.11,1024.66C1073.49,1026.46 1074.68,1027.97 1076.33,1028.77C1077.99,1029.57 1079.91,1029.56 1081.56,1028.74L1110.07,1014.57L1096.54,1043.39C1095.76,1045.05 1095.79,1046.98 1096.63,1048.61C1097.46,1050.25 1099.01,1051.4 1100.81,1051.74L1152.19,1061.42L1101.05,1072.26C1099.25,1072.64 1097.73,1073.83 1096.93,1075.49C1096.13,1077.14 1096.15,1079.07 1096.96,1080.71L1111.14,1109.22L1082.32,1095.69C1080.66,1094.91 1078.73,1094.95 1077.09,1095.78C1075.46,1096.62 1074.3,1098.16 1073.96,1099.97L1064.29,1151.34L1053.44,1100.2C1053.06,1098.4 1051.87,1096.89 1050.22,1096.09C1048.57,1095.29 1046.64,1095.3 1045,1096.12L1016.49,1110.29L1030.01,1081.47C1030.79,1079.81 1030.76,1077.88 1029.92,1076.25C1029.09,1074.61 1027.54,1073.46 1025.74,1073.12L974.364,1063.44L1025.51,1052.6C1027.3,1052.22 1028.82,1051.03 1029.62,1049.37C1030.42,1047.72 1030.41,1045.79 1029.59,1044.15L1015.41,1015.64L1044.24,1029.17C1045.9,1029.95 1047.83,1029.91 1049.46,1029.08C1051.1,1028.24 1052.25,1026.7 1052.59,1024.89L1062.27,973.517Z" style="fill:white;"/>
</svg>
