<?xml version="1.0" encoding="UTF-8" standalone="no"?>
<!DOCTYPE svg PUBLIC "-//W3C//DTD SVG 1.1//EN" "http://www.w3.org/Graphics/SVG/1.1/DTD/svg11.dtd">
<svg width="100%" height="100%" viewBox="0 0 2113 2113" version="1.1" xmlns="http://www.w3.org/2000/svg" xmlns:xlink="http://www.w3.org/1999/xlink" xml:space="preserve" xmlns:serif="http://www.serif.com/" style="fill-rule:evenodd;clip-rule:evenodd;stroke-linejoin:round;stroke-miterlimit:2;">
    <rect id="mighty_detail" x="0.539" y="0.523" width="2111.51" height="2111.51" style="fill:none;"/>
    <path d="M1029.73,660.003C1029.24,659.899 1028.75,659.846 1028.24,659.849L980.466,660.126L1024.45,641.481C1026.4,640.656 1027.86,638.977 1028.4,636.933C1028.93,634.889 1028.5,632.711 1027.21,631.032L1009.43,607.806L1037.8,614.952C1039.85,615.469 1042.02,615.008 1043.68,613.703C1045.35,612.399 1046.31,610.399 1046.3,608.285L1046.03,560.508L1064.67,604.497C1065.49,606.444 1067.17,607.899 1069.22,608.438C1071.26,608.978 1073.44,608.542 1075.12,607.257L1098.34,589.472L1091.2,617.839C1090.68,619.889 1091.14,622.063 1092.45,623.726C1093.75,625.39 1095.75,626.356 1097.87,626.344L1145.64,626.067L1101.65,644.712C1099.71,645.537 1098.25,647.216 1097.71,649.26C1097.17,651.304 1097.61,653.483 1098.89,655.161L1116.68,678.387L1102.52,674.82L1102.8,675.494L1088.17,671.809C1086.29,671.336 1084.31,671.758 1082.79,672.951C1081.26,674.143 1080.38,675.972 1080.39,677.905L1080.68,728.605L1060.9,681.925C1060.14,680.145 1058.61,678.814 1056.74,678.321C1054.87,677.827 1052.88,678.226 1051.35,679.401L1026.79,698.207L1034.34,668.211C1034.81,666.337 1034.39,664.349 1033.2,662.828C1032.27,661.641 1030.95,660.842 1029.5,660.554L1029.73,660.003ZM1083.89,765.145L1083.89,1030.5C1071,1023.21 1055.11,1023.21 1042.22,1030.5L1042.22,738.718L793.606,1338.93C784.231,1329 770.983,1322.81 756.296,1322.81C755.923,1322.81 755.55,1322.81 755.179,1322.82L1013.88,698.246L1010.28,712.548C1009.63,715.127 1010.69,717.834 1012.91,719.296C1015.13,720.758 1018.03,720.654 1020.14,719.037L1052.54,694.231L1081.36,762.232C1081.89,763.482 1082.79,764.483 1083.89,765.145ZM1108.76,689.887L1363.02,1303.72C1348.48,1305.11 1335.22,1310.92 1324.58,1319.79L1093.2,761.211C1093.31,760.742 1093.37,760.255 1093.37,759.757L1092.94,685.901L1108.76,689.887ZM1315.1,1419.78L1118.68,1501.13C1118.56,1487.2 1113.3,1473.3 1102.88,1462.58L1299.25,1381.24C1300.6,1395.8 1306.33,1409.09 1315.1,1419.78ZM1007.43,1501.13L791.944,1411.88C801.694,1402.45 807.762,1389.21 807.762,1374.56C807.762,1374.15 807.757,1373.74 807.747,1373.32L1023.22,1462.58C1012.81,1473.3 1007.55,1487.2 1007.43,1501.13ZM1083.89,1105.11L1083.89,1449.76C1070.55,1444.37 1055.55,1444.37 1042.22,1449.76L1042.22,1105.11C1055.11,1112.4 1071,1112.4 1083.89,1105.11ZM616.33,1054.54C623.451,1047.39 635.014,1047.39 642.136,1054.54C649.428,1061.86 649.428,1073.75 642.136,1081.07C635.014,1088.21 623.451,1088.21 616.33,1081.07C609.038,1073.75 609.038,1061.86 616.33,1054.54ZM1040.84,1479.09C1053.1,1466.79 1073.01,1466.79 1085.26,1479.09C1097.65,1491.53 1097.65,1511.72 1085.26,1524.16C1073.01,1536.46 1053.1,1536.46 1040.84,1524.16C1028.46,1511.72 1028.46,1491.53 1040.84,1479.09ZM1050.15,1054.54C1057.27,1047.39 1068.84,1047.39 1075.96,1054.54C1083.25,1061.86 1083.25,1073.75 1075.96,1081.07C1068.84,1088.21 1057.27,1088.21 1050.15,1081.07C1042.86,1073.75 1042.86,1061.86 1050.15,1054.54ZM1483.97,1054.54C1491.09,1047.39 1502.66,1047.39 1509.78,1054.54C1517.07,1061.86 1517.07,1073.75 1509.78,1081.07C1502.66,1088.21 1491.09,1088.21 1483.97,1081.07C1476.68,1073.75 1476.68,1061.86 1483.97,1054.54ZM756.296,742.398C766.488,742.398 774.653,750.814 774.653,761.045C774.653,771.277 766.488,779.693 756.296,779.693C746.104,779.693 737.939,771.277 737.939,761.045C737.939,750.814 746.104,742.398 756.296,742.398ZM756.296,1346.95C771.427,1346.95 783.619,1359.37 783.619,1374.56C783.619,1389.75 771.427,1402.17 756.296,1402.17C741.165,1402.17 728.973,1389.75 728.973,1374.56C728.973,1359.37 741.165,1346.95 756.296,1346.95ZM1369.81,742.398C1380,742.398 1388.17,750.813 1388.17,761.045C1388.17,771.277 1380,779.693 1369.81,779.693C1359.62,779.693 1351.45,771.277 1351.45,761.045C1351.45,750.813 1359.62,742.398 1369.81,742.398ZM1369.81,1327.54C1395.63,1327.54 1416.54,1348.64 1416.54,1374.56C1416.54,1400.48 1395.63,1421.58 1369.81,1421.58C1343.99,1421.58 1323.08,1400.48 1323.08,1374.56C1323.08,1348.64 1343.99,1327.54 1369.81,1327.54Z" style="fill:white;"/>
</svg>
