<?xml version="1.0" encoding="UTF-8" standalone="no"?>
<!DOCTYPE svg PUBLIC "-//W3C//DTD SVG 1.1//EN" "http://www.w3.org/Graphics/SVG/1.1/DTD/svg11.dtd">
<svg width="100%" height="100%" viewBox="0 0 2113 2113" version="1.1" xmlns="http://www.w3.org/2000/svg" xmlns:xlink="http://www.w3.org/1999/xlink" xml:space="preserve" xmlns:serif="http://www.serif.com/" style="fill-rule:evenodd;clip-rule:evenodd;stroke-linejoin:round;stroke-miterlimit:2;">
    <rect id="scholars_detail" x="0.762" y="0.523" width="2111.51" height="2111.51" style="fill:none;"/>
    <path d="M1042.44,1097.77C1041.88,1097.82 1041.31,1097.94 1040.76,1098.14L1013.36,1107.86L1028.78,1083.22C1029.92,1081.41 1030.15,1079.18 1029.41,1077.18C1028.67,1075.18 1027.05,1073.63 1025.02,1072.98L979.771,1058.65L1021.01,1055L1020.41,1054.4L1029.9,1053.56C1030.84,1053.02 1031.64,1052.25 1032.25,1051.32C1032.85,1050.38 1033.2,1049.33 1033.31,1048.25L1021.98,1016.35L1050.68,1034.31C1051.75,1034.44 1052.86,1034.32 1053.9,1033.94C1054.94,1033.55 1055.87,1032.93 1056.6,1032.13L1056.71,1031.78L1056.82,1031.88C1057.38,1031.2 1057.82,1030.41 1058.1,1029.55L1072.43,984.297L1076.08,1025.54L1076.68,1024.94L1077.52,1034.42C1078.06,1035.36 1078.83,1036.17 1079.76,1036.77C1080.7,1037.37 1081.75,1037.73 1082.83,1037.83L1114.73,1026.51L1096.77,1055.2C1096.64,1056.28 1096.76,1057.38 1097.14,1058.43C1097.53,1059.47 1098.15,1060.39 1098.95,1061.12L1099.31,1061.24L1099.2,1061.34C1099.88,1061.91 1100.67,1062.35 1101.53,1062.62L1146.78,1076.95L1099.51,1081.14C1097.38,1081.33 1095.46,1082.49 1094.31,1084.29C1093.16,1086.08 1092.9,1088.31 1093.61,1090.32L1103.34,1117.72L1084.11,1105.69L1084.11,1106.45L1075.88,1101.3C1074.8,1101.16 1073.69,1101.29 1072.65,1101.67C1071.61,1102.05 1070.69,1102.68 1069.96,1103.47L1053.77,1154.59L1049.03,1101.18C1048.49,1100.24 1047.73,1099.44 1046.79,1098.84C1045.86,1098.24 1044.8,1097.88 1043.73,1097.77L1042.44,1098.23L1042.44,1097.77ZM735.686,785.052C729.066,779.192 724.893,770.595 724.893,761.045C724.893,751.496 729.066,742.898 735.686,737.039L735.686,735.687C740.538,731.622 746.577,728.946 753.208,728.272L754.153,729.216C754.934,729.158 755.723,729.128 756.519,729.128C774.02,729.129 788.145,743.476 788.145,761.045C788.145,761.749 788.123,762.448 788.078,763.141L789.031,764.094C787.505,780.811 773.561,793.986 756.519,793.986C748.592,793.986 741.334,791.135 735.686,786.403L735.686,785.052ZM1390.87,773.463L1390.87,775.388C1386.34,782.107 1378.71,786.539 1370.04,786.539C1356.07,786.539 1344.83,775.063 1344.83,761.045C1344.83,759.446 1344.98,757.88 1345.26,756.36L1346.6,755.021C1348.79,746.277 1355.64,739.372 1364.37,737.251L1365.69,735.928C1367.1,735.68 1368.55,735.551 1370.04,735.551C1378.71,735.551 1386.34,739.983 1390.87,746.703L1390.87,748.628C1393,752.274 1394.21,756.522 1394.21,761.045C1394.21,765.568 1393,769.816 1390.87,773.463ZM1345.75,1407.17L1344.66,1407.62C1334.85,1399.97 1328.54,1387.99 1328.54,1374.56C1328.54,1372.69 1328.66,1370.86 1328.89,1369.05L1329.99,1368.6C1331.78,1356.31 1339.04,1345.77 1349.2,1339.61L1349.2,1338.42C1355.32,1334.83 1362.44,1332.77 1370.04,1332.77C1377.63,1332.77 1384.75,1334.83 1390.87,1338.42L1390.87,1339.61C1402.64,1346.75 1410.51,1359.75 1410.51,1374.56C1410.51,1397.02 1392.41,1415.33 1370.04,1415.33C1360.92,1415.33 1352.51,1412.29 1345.75,1407.17ZM735.686,1386.2C733.797,1382.74 732.724,1378.77 732.724,1374.56C732.724,1370.35 733.797,1366.38 735.686,1362.92L735.686,1360.92C740.102,1354.03 747.767,1349.45 756.519,1349.45C770.271,1349.45 781.339,1360.76 781.339,1374.56C781.339,1386.66 772.841,1396.83 761.486,1399.17L759.71,1398.43C758.666,1398.57 757.601,1398.65 756.519,1398.65C748.859,1398.65 742.07,1394.99 737.724,1389.33L735.934,1388.58C735.85,1388.46 735.767,1388.33 735.686,1388.2L735.686,1386.2ZM1008.88,1042.87L779.988,813.977C793.044,808.115 803.535,797.516 809.302,784.365L1034.16,1009.22L998.206,986.719L1017.85,1042.08L1008.88,1042.87ZM1088.21,1013.41L1322.97,778.646C1330.08,797.836 1348.46,811.539 1370.04,811.539C1377.47,811.539 1384.52,809.912 1390.87,806.995L1390.87,1311.12C1384.31,1308.95 1377.31,1307.77 1370.04,1307.77C1362.76,1307.77 1355.76,1308.95 1349.2,1311.12L1349.2,811.341L1121.86,1038.69L1144.36,1002.73L1089,1022.38L1088.21,1013.41ZM1084.11,1121.2L1084.11,1460.8C1071.08,1454.07 1055.48,1454.07 1042.44,1460.8L1042.44,1168.4L1046.83,1217.9L1078.56,1117.72L1084.11,1121.2ZM1387.81,713.81L1390.87,710.749L1390.87,715.096C1389.87,714.635 1388.84,714.206 1387.81,713.81ZM1319.55,1418.02L1108.73,1505.35C1109.77,1492.38 1105.36,1479.05 1095.48,1469.13C1094.66,1468.31 1093.82,1467.53 1092.96,1466.78L1303.71,1379.48C1304.78,1394.14 1310.57,1407.5 1319.55,1418.02ZM1017.82,1505.35L790.505,1411.19C800.249,1402.04 806.339,1389 806.339,1374.56C806.339,1373.91 806.327,1373.27 806.302,1372.63L1033.6,1466.78C1032.73,1467.53 1031.89,1468.31 1031.07,1469.13C1021.2,1479.05 1016.78,1492.38 1017.82,1505.35ZM735.686,1329.04L735.686,815.082C742.147,817.603 749.173,818.986 756.519,818.986C763.865,818.986 770.891,817.603 777.352,815.082L777.352,1329.04C771.014,1326.09 763.958,1324.45 756.519,1324.45C749.081,1324.45 742.024,1326.09 735.686,1329.04ZM1071.71,1520.68L1071.57,1520.74C1071.35,1520.83 1071.12,1520.93 1070.9,1521.02L1070.51,1521.18C1065.86,1522.93 1060.7,1522.93 1056.05,1521.18L1055.66,1521.02C1055.43,1520.93 1055.2,1520.83 1054.98,1520.74L1054.85,1520.68C1052.65,1519.69 1050.59,1518.29 1048.78,1516.47C1040.62,1508.28 1040.62,1494.97 1048.78,1486.78C1056.78,1478.75 1069.77,1478.75 1077.77,1486.78C1085.93,1494.97 1085.93,1508.28 1077.77,1516.47C1075.97,1518.29 1073.91,1519.69 1071.71,1520.68ZM617.886,1055.87C624.271,1049.46 634.64,1049.46 641.026,1055.87C647.588,1062.45 647.588,1073.15 641.026,1079.74C634.64,1086.15 624.271,1086.15 617.886,1079.74C611.324,1073.15 611.324,1062.45 617.886,1055.87ZM1485.53,1055.87C1491.91,1049.46 1502.28,1049.46 1508.67,1055.87C1515.23,1062.45 1515.23,1073.15 1508.67,1079.74C1502.28,1086.15 1491.91,1086.15 1485.53,1079.74C1478.97,1073.15 1478.97,1062.45 1485.53,1055.87ZM1051.71,622.046C1058.09,615.636 1068.46,615.636 1074.85,622.046C1081.41,628.634 1081.41,639.33 1074.85,645.917C1068.46,652.328 1058.09,652.328 1051.71,645.917C1045.14,639.33 1045.14,628.634 1051.71,622.046Z" style="fill:white;"/>
</svg>
